<?xml version="1.0" encoding="utf-8"?>
<svg width="646px" height="781px" viewBox="0 0 646 781" version="1.1" 
    xmlns:xlink="http://www.w3.org/1999/xlink" 
    xmlns="http://www.w3.org/2000/svg">
    <desc>Created with Lunacy</desc>
    <defs>
        <linearGradient x1="-0.136148542" y1="0.48752138" x2="4.342763" y2="0.5734438" id="gradient_1">
            <stop offset="0" stop-color="#010101" stop-opacity="0" />
            <stop offset="0.95" stop-color="#010101" />
        </linearGradient>
        <linearGradient x1="-0.219786614" y1="0.478917658" x2="6.123554" y2="0.6629354" id="gradient_2">
            <stop offset="0" stop-color="#010101" stop-opacity="0" />
            <stop offset="0.95" stop-color="#010101" />
        </linearGradient>
        <linearGradient x1="-0.2287753" y1="0.5441716" x2="10.2967348" y2="-0.09572432" id="gradient_3">
            <stop offset="0" stop-color="#010101" stop-opacity="0" />
            <stop offset="0.95" stop-color="#010101" />
        </linearGradient>
        <linearGradient x1="0.07515358" y1="0.5168259" x2="15.3707581" y2="-0.102226295" id="gradient_4">
            <stop offset="0" stop-color="#010101" stop-opacity="0" />
            <stop offset="0.36" stop-color="#010101" stop-opacity="0.360784322" />
            <stop offset="0.95" stop-color="#010101" />
        </linearGradient>
        <linearGradient x1="-0.5955121" y1="0.5053687" x2="7.76100636" y2="0.463268727" id="gradient_5">
            <stop offset="0" stop-color="#FFFFFF" stop-opacity="0" />
            <stop offset="0.07" stop-color="#FFFFFF" stop-opacity="0.219607845" />
            <stop offset="0.16" stop-color="#FFFFFF" stop-opacity="0.4509804" />
            <stop offset="0.25" stop-color="#FFFFFF" stop-opacity="0.6509804" />
            <stop offset="0.33" stop-color="#FFFFFF" stop-opacity="0.8" />
            <stop offset="0.4" stop-color="#FFFFFF" stop-opacity="0.9098039" />
            <stop offset="0.46" stop-color="#FFFFFF" stop-opacity="0.980392158" />
            <stop offset="0.51" stop-color="#FFFFFF" />
        </linearGradient>
        <linearGradient x1="-1.199973" y1="0.5362639" x2="3.47578669" y2="0.436009824" id="gradient_6">
            <stop offset="0" stop-color="#FFFFFF" stop-opacity="0" />
            <stop offset="0.07" stop-color="#FFFFFF" stop-opacity="0.219607845" />
            <stop offset="0.16" stop-color="#FFFFFF" stop-opacity="0.4509804" />
            <stop offset="0.25" stop-color="#FFFFFF" stop-opacity="0.6509804" />
            <stop offset="0.33" stop-color="#FFFFFF" stop-opacity="0.8" />
            <stop offset="0.4" stop-color="#FFFFFF" stop-opacity="0.9098039" />
            <stop offset="0.46" stop-color="#FFFFFF" stop-opacity="0.980392158" />
            <stop offset="0.51" stop-color="#FFFFFF" />
        </linearGradient>
        <linearGradient x1="0.474849522" y1="0.757418036" x2="0.626397252" y2="-0.7837064" id="gradient_7">
            <stop offset="0" stop-color="#010101" stop-opacity="0" />
            <stop offset="0.95" stop-color="#010101" />
        </linearGradient>
        <linearGradient x1="0.5061368" y1="-0.185741439" x2="0.4940348" y2="1.17237008" id="gradient_8">
            <stop offset="0" stop-color="#FFFFFF" stop-opacity="0" />
            <stop offset="0.07" stop-color="#FFFFFF" stop-opacity="0.219607845" />
            <stop offset="0.16" stop-color="#FFFFFF" stop-opacity="0.4509804" />
            <stop offset="0.25" stop-color="#FFFFFF" stop-opacity="0.6509804" />
            <stop offset="0.33" stop-color="#FFFFFF" stop-opacity="0.8" />
            <stop offset="0.4" stop-color="#FFFFFF" stop-opacity="0.9098039" />
            <stop offset="0.46" stop-color="#FFFFFF" stop-opacity="0.980392158" />
            <stop offset="0.51" stop-color="#FFFFFF" />
        </linearGradient>
        <linearGradient x1="0.488822" y1="-1.44464946" x2="0.556964755" y2="10.4077492" id="gradient_9">
            <stop offset="0" stop-color="#010101" stop-opacity="0" />
            <stop offset="0.95" stop-color="#010101" />
        </linearGradient>
        <linearGradient x1="-0.554463267" y1="1.15417016" x2="6.734504" y2="-3.28980613" id="gradient_10">
            <stop offset="0" stop-color="#FFFFFF" stop-opacity="0" />
            <stop offset="0.07" stop-color="#FFFFFF" stop-opacity="0.219607845" />
            <stop offset="0.16" stop-color="#FFFFFF" stop-opacity="0.4509804" />
            <stop offset="0.25" stop-color="#FFFFFF" stop-opacity="0.6509804" />
            <stop offset="0.33" stop-color="#FFFFFF" stop-opacity="0.8" />
            <stop offset="0.4" stop-color="#FFFFFF" stop-opacity="0.9098039" />
            <stop offset="0.46" stop-color="#FFFFFF" stop-opacity="0.980392158" />
            <stop offset="0.51" stop-color="#FFFFFF" />
        </linearGradient>
        <linearGradient x1="0.439639628" y1="-0.279018283" x2="0.582432449" y2="1.56006646" id="gradient_11">
            <stop offset="0" stop-color="#FFFFFF" stop-opacity="0" />
            <stop offset="0.07" stop-color="#FFFFFF" stop-opacity="0.219607845" />
            <stop offset="0.16" stop-color="#FFFFFF" stop-opacity="0.4509804" />
            <stop offset="0.25" stop-color="#FFFFFF" stop-opacity="0.6509804" />
            <stop offset="0.33" stop-color="#FFFFFF" stop-opacity="0.8" />
            <stop offset="0.4" stop-color="#FFFFFF" stop-opacity="0.9098039" />
            <stop offset="0.46" stop-color="#FFFFFF" stop-opacity="0.980392158" />
            <stop offset="0.51" stop-color="#FFFFFF" />
        </linearGradient>
        <linearGradient x1="0.508464932" y1="-0.183016986" x2="0.49162963" y2="1.16963041" id="gradient_12">
            <stop offset="0" stop-color="#FFFFFF" stop-opacity="0" />
            <stop offset="0.07" stop-color="#FFFFFF" stop-opacity="0.219607845" />
            <stop offset="0.16" stop-color="#FFFFFF" stop-opacity="0.4509804" />
            <stop offset="0.25" stop-color="#FFFFFF" stop-opacity="0.6509804" />
            <stop offset="0.33" stop-color="#FFFFFF" stop-opacity="0.8" />
            <stop offset="0.4" stop-color="#FFFFFF" stop-opacity="0.9098039" />
            <stop offset="0.46" stop-color="#FFFFFF" stop-opacity="0.980392158" />
            <stop offset="0.51" stop-color="#FFFFFF" />
        </linearGradient>
        <linearGradient x1="0.382134" y1="5.137116" x2="2.04218364" y2="-59.10402" id="gradient_13">
            <stop offset="0" stop-color="#010101" stop-opacity="0" />
            <stop offset="0.95" stop-color="#010101" />
        </linearGradient>
        <linearGradient x1="0.2605459" y1="9.841607" x2="1.92059553" y2="-54.39953" id="gradient_14">
            <stop offset="0" stop-color="#010101" stop-opacity="0" />
            <stop offset="0.95" stop-color="#010101" />
        </linearGradient>
        <linearGradient x1="0.387096763" y1="4.87470436" x2="2.04962778" y2="-59.36643" id="gradient_15">
            <stop offset="0" stop-color="#010101" stop-opacity="0" />
            <stop offset="0.95" stop-color="#010101" />
        </linearGradient>
        <linearGradient x1="0.265508682" y1="9.579196" x2="1.92803967" y2="-54.6619377" id="gradient_16">
            <stop offset="0" stop-color="#010101" stop-opacity="0" />
            <stop offset="0.95" stop-color="#010101" />
        </linearGradient>
        <linearGradient x1="0.126550868" y1="15.0070925" x2="1.78908193" y2="-49.2340431" id="gradient_17">
            <stop offset="0" stop-color="#010101" stop-opacity="0" />
            <stop offset="0.95" stop-color="#010101" />
        </linearGradient>
        <linearGradient x1="0.13151364" y1="14.7517729" x2="1.79156327" y2="-49.48936" id="gradient_18">
            <stop offset="0" stop-color="#010101" stop-opacity="0" />
            <stop offset="0.95" stop-color="#010101" />
        </linearGradient>
        <linearGradient x1="0.126550868" y1="14.8794327" x2="1.78908193" y2="-49.3593369" id="gradient_19">
            <stop offset="0" stop-color="#010101" stop-opacity="0" />
            <stop offset="0.95" stop-color="#010101" />
        </linearGradient>
        <linearGradient x1="0.3846154" y1="4.929078" x2="2.04714632" y2="-59.3120575" id="gradient_20">
            <stop offset="0" stop-color="#010101" stop-opacity="0" />
            <stop offset="0.95" stop-color="#010101" />
        </linearGradient>
        <linearGradient x1="0.336287946" y1="0.357203275" x2="3.49583673" y2="3.11446285" id="gradient_21">
            <stop offset="0" stop-color="#FFFFFF" stop-opacity="0" />
            <stop offset="0.07" stop-color="#FFFFFF" stop-opacity="0.219607845" />
            <stop offset="0.16" stop-color="#FFFFFF" stop-opacity="0.4509804" />
            <stop offset="0.25" stop-color="#FFFFFF" stop-opacity="0.6509804" />
            <stop offset="0.33" stop-color="#FFFFFF" stop-opacity="0.8" />
            <stop offset="0.4" stop-color="#FFFFFF" stop-opacity="0.9098039" />
            <stop offset="0.46" stop-color="#FFFFFF" stop-opacity="0.980392158" />
            <stop offset="0.51" stop-color="#FFFFFF" />
        </linearGradient>
        <linearGradient x1="0.509037435" y1="-0.1824296" x2="0.491172761" y2="1.16918874" id="gradient_22">
            <stop offset="0" stop-color="#FFFFFF" stop-opacity="0" />
            <stop offset="0.07" stop-color="#FFFFFF" stop-opacity="0.219607845" />
            <stop offset="0.16" stop-color="#FFFFFF" stop-opacity="0.4509804" />
            <stop offset="0.25" stop-color="#FFFFFF" stop-opacity="0.6509804" />
            <stop offset="0.33" stop-color="#FFFFFF" stop-opacity="0.8" />
            <stop offset="0.4" stop-color="#FFFFFF" stop-opacity="0.9098039" />
            <stop offset="0.46" stop-color="#FFFFFF" stop-opacity="0.980392158" />
            <stop offset="0.51" stop-color="#FFFFFF" />
        </linearGradient>
        <linearGradient x1="0.502859652" y1="-0.206722692" x2="0.498020232" y2="1.19327736" id="gradient_23">
            <stop offset="0" stop-color="#FFFFFF" stop-opacity="0" />
            <stop offset="0.07" stop-color="#FFFFFF" stop-opacity="0.219607845" />
            <stop offset="0.16" stop-color="#FFFFFF" stop-opacity="0.4509804" />
            <stop offset="0.25" stop-color="#FFFFFF" stop-opacity="0.6509804" />
            <stop offset="0.33" stop-color="#FFFFFF" stop-opacity="0.8" />
            <stop offset="0.4" stop-color="#FFFFFF" stop-opacity="0.9098039" />
            <stop offset="0.46" stop-color="#FFFFFF" stop-opacity="0.980392158" />
            <stop offset="0.51" stop-color="#FFFFFF" />
        </linearGradient>
        <linearGradient x1="-0.136156" y1="0.487846732" x2="4.34265661" y2="0.573199153" id="gradient_24">
            <stop offset="0" stop-color="#010101" stop-opacity="0" />
            <stop offset="0.95" stop-color="#010101" />
        </linearGradient>
        <linearGradient x1="-0.219649836" y1="0.4789888" x2="6.124199" y2="0.663260758" id="gradient_25">
            <stop offset="0" stop-color="#010101" stop-opacity="0" />
            <stop offset="0.95" stop-color="#010101" />
        </linearGradient>
        <linearGradient x1="-0.228638515" y1="0.54424274" x2="10.2968721" y2="-0.09565318" id="gradient_26">
            <stop offset="0" stop-color="#010101" stop-opacity="0" />
            <stop offset="0.95" stop-color="#010101" />
        </linearGradient>
        <linearGradient x1="0.0757984444" y1="0.517556667" x2="15.3713045" y2="-0.102065518" id="gradient_27">
            <stop offset="0" stop-color="#010101" stop-opacity="0" />
            <stop offset="0.36" stop-color="#010101" stop-opacity="0.360784322" />
            <stop offset="0.95" stop-color="#010101" />
        </linearGradient>
        <linearGradient x1="0.07123394" y1="0.8311307" x2="3.34760618" y2="-1.698605" id="gradient_28">
            <stop offset="0" stop-color="#FFFFFF" stop-opacity="0" />
            <stop offset="0.07" stop-color="#FFFFFF" stop-opacity="0.219607845" />
            <stop offset="0.16" stop-color="#FFFFFF" stop-opacity="0.4509804" />
            <stop offset="0.25" stop-color="#FFFFFF" stop-opacity="0.6509804" />
            <stop offset="0.33" stop-color="#FFFFFF" stop-opacity="0.8" />
            <stop offset="0.4" stop-color="#FFFFFF" stop-opacity="0.9098039" />
            <stop offset="0.46" stop-color="#FFFFFF" stop-opacity="0.980392158" />
            <stop offset="0.51" stop-color="#FFFFFF" />
        </linearGradient>
        <linearGradient x1="-1.19826663" y1="0.536273539" x2="3.47657585" y2="0.436081" id="gradient_29">
            <stop offset="0" stop-color="#FFFFFF" stop-opacity="0" />
            <stop offset="0.07" stop-color="#FFFFFF" stop-opacity="0.219607845" />
            <stop offset="0.16" stop-color="#FFFFFF" stop-opacity="0.4509804" />
            <stop offset="0.25" stop-color="#FFFFFF" stop-opacity="0.6509804" />
            <stop offset="0.33" stop-color="#FFFFFF" stop-opacity="0.8" />
            <stop offset="0.4" stop-color="#FFFFFF" stop-opacity="0.9098039" />
            <stop offset="0.46" stop-color="#FFFFFF" stop-opacity="0.980392158" />
            <stop offset="0.51" stop-color="#FFFFFF" />
        </linearGradient>
        <linearGradient x1="0.1035818" y1="0.499162942" x2="1.92061961" y2="0.5065569" id="gradient_30">
            <stop offset="0" stop-color="#FFFFFF" stop-opacity="0" />
            <stop offset="0.07" stop-color="#FFFFFF" stop-opacity="0.219607845" />
            <stop offset="0.16" stop-color="#FFFFFF" stop-opacity="0.4509804" />
            <stop offset="0.25" stop-color="#FFFFFF" stop-opacity="0.6509804" />
            <stop offset="0.33" stop-color="#FFFFFF" stop-opacity="0.8" />
            <stop offset="0.4" stop-color="#FFFFFF" stop-opacity="0.9098039" />
            <stop offset="0.46" stop-color="#FFFFFF" stop-opacity="0.980392158" />
            <stop offset="0.51" stop-color="#FFFFFF" />
        </linearGradient>
        <linearGradient x1="-0.5448364" y1="-0.122494429" x2="1.52231193" y2="1.11358571" id="gradient_31">
            <stop offset="0" stop-color="#010101" stop-opacity="0" />
            <stop offset="0.95" stop-color="#010101" />
        </linearGradient>
        <linearGradient x1="-1.28918922" y1="0.403162062" x2="1.95743239" y2="0.5578769" id="gradient_32">
            <stop offset="0" stop-color="#010101" stop-opacity="0" />
            <stop offset="0.95" stop-color="#010101" />
        </linearGradient>
        <linearGradient x1="0.523880959" y1="0.6007223" x2="0.178986177" y2="-0.3698802" id="gradient_33">
            <stop offset="0" stop-color="#010101" stop-opacity="0" />
            <stop offset="0.95" stop-color="#010101" />
        </linearGradient>
        <linearGradient x1="1.96640217" y1="0.272981256" x2="-4.06782675" y2="1.195007" id="gradient_34">
            <stop offset="0" stop-color="#010101" stop-opacity="0" />
            <stop offset="0.95" stop-color="#010101" />
        </linearGradient>
    </defs>
    <g id="Group">
        <path d="M151.503 31.6127C105.054 36.2832 57.1801 41.4186 16.3067 64.2637C10.8359 67.3281 5.28134 70.9419 2.263 76.4577C-3.79465 87.5527 3.08047 102.177 13.7495 108.855C24.4185 115.533 37.5818 116.294 50.1373 116.844C273.704 126.586 497.607 122.761 721.362 118.957C786.341 117.858 852.346 116.59 914.62 97.7178C925.813 94.3365 938.117 89.2645 942.33 78.2118C947.843 63.7565 935.267 47.7375 920.594 43.2361C905.922 38.7347 890.264 42.0949 875.088 44.0603C822.393 50.8863 769.237 40.4465 716.772 32.0988C614.064 15.7838 507.5 2.51208 403.472 0.0394824C368.007 -0.784718 337.718 11.5149 303.007 16.3756C252.89 23.4341 201.893 26.5407 151.503 31.6127Z" transform="translate(31.26295 657.1634)" id="Path" fill="#505F98" fill-opacity="0.24" stroke="none" />
        <path d="M1.74622e-05 3.56133e-05L262.819 0.13693L262.859 76.9503L0.039995 76.8134L1.74622e-05 3.56133e-05Z" transform="matrix(0.4402526 -0.8978739 0.8978739 0.4402526 0.05723572 255.4895)" id="Rectangle" fill="#FFFFFF" stroke="none" />
        <path d="M-2.28172e-13 3.67236e-13L32.1036 0.0166901L32.1305 51.7217L0.0268588 51.705L-2.28172e-13 3.67236e-13Z" transform="matrix(0.4391553 -0.8984112 0.8984112 0.4391553 26.90238 248.2187)" id="Rectangle" fill="#505F98" stroke="none" />
        <path d="M-2.28172e-13 3.67236e-13L32.1036 0.0166901L32.1305 51.7217L0.0268588 51.705L-2.28172e-13 3.67236e-13Z" transform="matrix(0.4391553 -0.8984112 0.8984112 0.4391553 26.90238 248.2187)" id="Rectangle" fill="url(#gradient_1)" stroke="none" />
        <path d="M2.2817e-13 -3.67241e-13L32.1036 0.0166901L32.1305 51.7217L0.0268588 51.705L2.2817e-13 -3.67241e-13Z" transform="matrix(0.4391553 -0.8984112 0.8984112 0.4391553 41.01788 219.6087)" id="Rectangle" fill="#505F98" stroke="none" />
        <path d="M2.2817e-13 -3.67241e-13L32.1036 0.0166901L32.1305 51.7217L0.0268588 51.705L2.2817e-13 -3.67241e-13Z" transform="matrix(0.4391553 -0.8984112 0.8984112 0.4391553 41.01788 219.6087)" id="Rectangle" fill="url(#gradient_2)" stroke="none" />
        <path d="M1.14084e-13 5.60768e-18L32.1036 0.0166901L32.1305 51.7217L0.0268588 51.705L1.14084e-13 5.60768e-18Z" transform="matrix(0.4391553 -0.8984112 0.8984112 0.4391553 55.11456 190.9896)" id="Rectangle" fill="#505F98" stroke="none" />
        <path d="M1.14084e-13 5.60768e-18L32.1036 0.0166901L32.1305 51.7217L0.0268588 51.705L1.14084e-13 5.60768e-18Z" transform="matrix(0.4391553 -0.8984112 0.8984112 0.4391553 55.11456 190.9896)" id="Rectangle" fill="url(#gradient_3)" stroke="none" />
        <path d="M2.28172e-13 3.67236e-13L32.1036 0.0166901L32.1305 51.7217L0.0268588 51.705L2.28172e-13 3.67236e-13Z" transform="matrix(0.4391553 -0.8984112 0.8984112 0.4391553 69.25102 162.4006)" id="Rectangle" fill="#505F98" stroke="none" />
        <path d="M2.28172e-13 3.67236e-13L32.1036 0.0166901L32.1305 51.7217L0.0268588 51.705L2.28172e-13 3.67236e-13Z" transform="matrix(0.4391553 -0.8984112 0.8984112 0.4391553 69.25102 162.4006)" id="Rectangle" fill="url(#gradient_4)" stroke="none" />
        <path d="M-2.28179e-13 3.68671e-13L32.1036 0.0166901L32.1305 51.7217L0.0268588 51.705L-2.28179e-13 3.68671e-13Z" transform="matrix(0.4391553 -0.8984112 0.8984112 0.4391553 83.3569 133.7627)" id="Rectangle" fill="#505F98" stroke="none" />
        <path d="M0 -3.67236e-13L32.1036 0.0166901L32.1305 51.7217L0.0268588 51.705L0 -3.67236e-13Z" transform="matrix(0.4391553 -0.8984112 0.8984112 0.4391553 97.4724 105.1737)" id="Rectangle" fill="#505F98" stroke="none" />
        <path d="M0 3.67236e-13L32.1036 0.0166901L32.1305 51.7217L0.0268588 51.705L0 3.67236e-13Z" transform="matrix(0.4391553 -0.8984112 0.8984112 0.4391553 111.5691 76.55461)" id="Rectangle" fill="#505F98" stroke="none" />
        <path d="M2.28169e-13 0L32.1036 0.0166901L32.1305 51.7217L0.0268588 51.705L2.28169e-13 0Z" transform="matrix(0.4391553 -0.8984112 0.8984112 0.4391553 95.88444 108.7617)" id="Rectangle" fill="url(#gradient_5)" stroke="none" />
        <path d="M-6.96719e-18 0L32.1036 0.0166901L32.1305 51.7217L0.0268588 51.705L-6.96719e-18 0Z" transform="matrix(0.4391553 -0.8984112 0.8984112 0.4391553 110.0091 80.13297)" id="Rectangle" fill="url(#gradient_6)" stroke="none" />
        <path d="M0 0L98.0679 0L98.0679 82L0 82L0 0Z" transform="translate(410.5256 573.1634)" id="Rectangle" fill="#505F98" stroke="none" />
        <path d="M0 0L98.0679 0L98.0679 82L0 82L0 0Z" transform="translate(410.5256 573.1634)" id="Rectangle" fill="url(#gradient_7)" stroke="none" />
        <path d="M9.369 0L508.99 0Q509.22 0 509.45 0.0112854Q509.679 0.0225707 509.908 0.0451143Q510.137 0.0676579 510.365 0.101405Q510.592 0.135153 510.818 0.180023Q511.043 0.224893 511.266 0.280777Q511.49 0.336662 511.71 0.403426Q511.93 0.47019 512.146 0.547674Q512.363 0.625157 512.575 0.713173Q512.788 0.801188 512.996 0.899524Q513.204 0.99786 513.406 1.10628Q513.609 1.2147 513.807 1.33294Q514.004 1.45118 514.195 1.57896Q514.386 1.70674 514.571 1.84375Q514.756 1.98076 514.934 2.12667Q515.111 2.27257 515.282 2.42703Q515.452 2.58148 515.615 2.74412Q515.777 2.90675 515.932 3.07716Q516.086 3.24758 516.232 3.42537Q516.378 3.60316 516.515 3.78789Q516.652 3.97263 516.78 4.16386Q516.908 4.3551 517.026 4.55237Q517.144 4.74965 517.253 4.95248Q517.361 5.15532 517.459 5.36324Q517.558 5.57115 517.646 5.78364Q517.734 5.99613 517.811 6.21268Q517.889 6.42923 517.955 6.64932Q518.022 6.86942 518.078 7.09252Q518.134 7.31562 518.179 7.5412Q518.224 7.76678 518.258 7.99428Q518.291 8.22179 518.314 8.45068Q518.336 8.67957 518.348 8.90928Q518.359 9.139 518.359 9.369L518.359 345.631Q518.359 345.861 518.348 346.091Q518.336 346.32 518.314 346.549Q518.291 346.778 518.258 347.006Q518.224 347.233 518.179 347.459Q518.134 347.684 518.078 347.908Q518.022 348.131 517.955 348.351Q517.889 348.571 517.811 348.787Q517.734 349.004 517.646 349.216Q517.558 349.429 517.459 349.637Q517.361 349.845 517.253 350.047Q517.144 350.25 517.026 350.448Q516.908 350.645 516.78 350.836Q516.652 351.027 516.515 351.212Q516.378 351.397 516.232 351.575Q516.086 351.752 515.932 351.923Q515.777 352.093 515.615 352.256Q515.452 352.418 515.282 352.573Q515.111 352.727 514.934 352.873Q514.756 353.019 514.571 353.156Q514.386 353.293 514.195 353.421Q514.004 353.549 513.807 353.667Q513.609 353.785 513.406 353.894Q513.204 354.002 512.996 354.1Q512.788 354.199 512.575 354.287Q512.363 354.375 512.146 354.452Q511.93 354.53 511.71 354.597Q511.49 354.663 511.266 354.719Q511.043 354.775 510.818 354.82Q510.592 354.865 510.365 354.899Q510.137 354.932 509.908 354.955Q509.679 354.977 509.45 354.989Q509.22 355 508.99 355L9.369 355Q9.139 355 8.90928 354.989Q8.67957 354.977 8.45068 354.955Q8.22179 354.932 7.99428 354.899Q7.76678 354.865 7.5412 354.82Q7.31562 354.775 7.09252 354.719Q6.86942 354.663 6.64932 354.596Q6.42923 354.53 6.21268 354.452Q5.99613 354.375 5.78364 354.287Q5.57115 354.199 5.36324 354.1Q5.15532 354.002 4.95248 353.894Q4.74965 353.785 4.55237 353.667Q4.3551 353.549 4.16386 353.421Q3.97263 353.293 3.78789 353.156Q3.60316 353.019 3.42537 352.873Q3.24758 352.727 3.07716 352.573Q2.90675 352.418 2.74412 352.256Q2.58148 352.093 2.42703 351.923Q2.27257 351.752 2.12667 351.575Q1.98076 351.397 1.84375 351.212Q1.70674 351.027 1.57896 350.836Q1.45118 350.645 1.33294 350.448Q1.2147 350.25 1.10628 350.047Q0.99786 349.845 0.899524 349.637Q0.801188 349.429 0.713173 349.216Q0.625157 349.004 0.547674 348.787Q0.47019 348.571 0.403426 348.351Q0.336662 348.131 0.280777 347.907Q0.224893 347.684 0.180023 347.459Q0.135153 347.233 0.101405 347.006Q0.0676579 346.778 0.0451143 346.549Q0.0225707 346.32 0.0112854 346.091Q0 345.861 0 345.631L0 9.369Q0 9.139 0.0112854 8.90928Q0.0225707 8.67957 0.0451143 8.45068Q0.0676578 8.22179 0.101405 7.99428Q0.135153 7.76677 0.180023 7.5412Q0.224893 7.31562 0.280777 7.09252Q0.336662 6.86941 0.403426 6.64932Q0.47019 6.42923 0.547674 6.21268Q0.625157 5.99613 0.713173 5.78364Q0.801188 5.57115 0.899524 5.36324Q0.99786 5.15532 1.10628 4.95248Q1.2147 4.74964 1.33294 4.55237Q1.45118 4.3551 1.57896 4.16386Q1.70674 3.97263 1.84375 3.78789Q1.98076 3.60316 2.12666 3.42537Q2.27257 3.24758 2.42703 3.07716Q2.58148 2.90675 2.74412 2.74412Q2.90675 2.58148 3.07716 2.42703Q3.24758 2.27257 3.42537 2.12666Q3.60316 1.98076 3.78789 1.84375Q3.97263 1.70674 4.16386 1.57896Q4.3551 1.45118 4.55237 1.33294Q4.74965 1.2147 4.95248 1.10628Q5.15532 0.99786 5.36324 0.899524Q5.57115 0.801188 5.78364 0.713173Q5.99613 0.625157 6.21268 0.547674Q6.42923 0.47019 6.64932 0.403426Q6.86941 0.336662 7.09252 0.280777Q7.31562 0.224893 7.5412 0.180023Q7.76677 0.135153 7.99428 0.101405Q8.22179 0.0676578 8.45068 0.0451143Q8.67957 0.0225707 8.90928 0.0112854Q9.139 0 9.369 0Z" transform="translate(202.3815 231.1634)" id="Rectangle" fill="#505F98" stroke="none" />
        <path d="M488.338 18.4378L488.338 312.562C488.355 317.443 486.431 322.129 482.991 325.588C479.551 329.047 474.877 330.994 470.001 331L18.3373 331C13.4629 330.989 8.79246 329.04 5.35354 325.582C1.91463 322.125 -0.011081 317.441 4.79695e-05 312.562L4.79695e-05 18.4378C-0.011081 13.5589 1.91463 8.87545 5.35354 5.41768C8.79246 1.95991 13.4629 0.0111136 18.3373 0L470.001 0C474.877 0.00554285 479.551 1.95256 482.991 5.41154C486.431 8.87052 488.355 13.5572 488.338 18.4378L488.338 18.4378Z" transform="translate(215.3905 242.1634)" id="Path" fill="url(#gradient_8)" fill-opacity="0.65" stroke="none" />
        <path d="M0 0L206.143 0L206.143 21L0 21L0 0Z" transform="translate(365.4944 645.1634)" id="Rectangle" fill="#505F98" stroke="none" />
        <path d="M0 0L98.0679 0L98.0679 12L0 12L0 0Z" transform="translate(410.5256 633.1634)" id="Rectangle" fill="url(#gradient_9)" stroke="none" />
        <path d="M144.1 59.2411L144.1 79.7145L131.391 79.8193C130.154 89.3456 126.531 98.4104 120.852 106.181L131.707 117.351L116.827 131.6L106.141 120.578C99.5523 125.062 92.1169 128.17 84.2848 129.714L84.2848 143L63.7142 143L63.7142 130.029C54.9297 128.76 46.5569 125.497 39.2444 120.494L30.308 129.316L15.7441 114.647L24.6173 105.993C19.0309 98.2193 15.4683 89.191 14.2477 79.7145L0 79.7145L0 59.2411L14.7535 59.2411C16.5825 51.0933 20.1791 43.4409 25.2918 36.8187L17.0509 28.3318L31.9308 14.0821L40.3614 22.8205C47.3317 18.2143 55.2557 15.2276 63.5455 14.0821L63.5455 0L84.1162 0L84.1162 14.3964C92.4849 16.0545 100.394 19.493 107.3 24.476L117.839 14.1659L132.318 28.709L121.78 39.1867C125.912 45.2671 128.844 52.0725 130.421 59.2411L144.1 59.2411ZM37.9588 72.1496C37.9355 91.211 53.4581 106.682 72.6295 106.705C81.8411 106.733 90.6847 103.113 97.2062 96.6445C103.728 90.1762 107.39 81.3922 107.385 72.2334C107.408 53.1721 91.8852 37.7011 72.7138 37.678C53.5424 37.6548 37.9821 53.0883 37.9588 72.1496Z" transform="translate(421.5332 0.1634103)" id="Shape" fill="#505F98" fill-rule="evenodd" stroke="none" />
        <path d="M85.0589 38.3542L84.1407 50.3958L76.6281 49.9375C75.5017 55.4753 72.997 60.6409 69.3451 64.9583L75.2091 72.0208L65.8601 79.7292L60.1005 72.7917C56.0461 75.1296 51.5599 76.6249 46.9118 77.1875L46.3066 85L34.2656 84.1042L34.8499 76.4792C29.7645 75.3443 25.009 73.056 20.9517 69.7917L15.3173 74.5833L7.44996 65.3958L13.0218 60.6875C10.0933 55.8763 8.40812 50.414 8.11774 44.7917L0 44.1667L0.897334 32.1458L9.51591 32.7917C10.9394 28.0854 13.3671 23.7428 16.632 20.0625L12.187 14.7083L21.536 7L26.0644 12.5C30.336 10.095 35.0912 8.67154 39.9835 8.33333L40.6096 0L52.6505 0.895833L52.0036 9.375C56.8108 10.7138 61.2684 13.0811 65.0671 16.3125L71.6824 10.7083L79.5288 19.8958L72.851 25.5833C75.0173 29.3387 76.4346 33.4774 77.0246 37.7708L85.0589 38.3542ZM22.3617 41.2429C21.5068 52.4358 29.8992 62.2028 41.1104 63.0625C46.5047 63.4873 51.846 61.7472 55.951 58.2278C60.0561 54.7084 62.586 49.7001 62.9803 44.3125C63.8229 33.1186 55.4197 23.3609 44.2076 22.5136C32.9954 21.6662 23.2167 30.05 22.3617 41.2429Z" transform="translate(556.6268 55.16341)" id="Shape" fill="#505F98" fill-rule="evenodd" stroke="none" />
        <path d="M488.338 18.513L488.338 25L4.79736e-05 25L4.79736e-05 18.513C-0.0110819 13.6143 1.91479 8.91165 5.354 5.43978C8.79321 1.96791 13.464 0.011159 18.3389 0L469.999 0C474.876 0.00556546 479.55 1.96052 482.99 5.43361C486.431 8.9067 488.355 13.6125 488.338 18.513L488.338 18.513Z" transform="translate(215.3905 242.1634)" id="Path" fill="url(#gradient_10)" stroke="none" />
        <path d="M0 0L47.0326 0L47.0326 227L0 227L0 0Z" transform="translate(225.3974 299.1634)" id="Rectangle" fill="url(#gradient_11)" stroke="none" />
        <path d="M0 0L221.153 0L221.153 209L0 209L0 0Z" transform="translate(343.4792 315.1634)" id="Rectangle" fill="url(#gradient_12)" stroke="none" />
        <path d="M0 0L7.00485 0L7.00485 9L0 9L0 0Z" transform="translate(394.5145 413.1634)" id="Rectangle" fill="url(#gradient_13)" stroke="none" />
        <path d="M0 0L7.00485 0L7.00485 9L0 9L0 0Z" transform="translate(394.5145 371.1634)" id="Rectangle" fill="url(#gradient_14)" stroke="none" />
        <path d="M0 0L7.00485 0L7.00485 9L0 9L0 0Z" transform="translate(299.4487 413.1634)" id="Rectangle" fill="url(#gradient_15)" stroke="none" />
        <path d="M0 0L7.00485 0L7.00485 9L0 9L0 0Z" transform="translate(299.4487 371.1634)" id="Rectangle" fill="url(#gradient_16)" stroke="none" />
        <path d="M0 0L7.00485 0L7.00485 9L0 9L0 0Z" transform="translate(394.5145 326.1634)" id="Rectangle" fill="url(#gradient_17)" stroke="none" />
        <path d="M0 0L7.00485 0L7.00485 9L0 9L0 0Z" transform="translate(300.4494 326.1634)" id="Rectangle" fill="url(#gradient_18)" stroke="none" />
        <path d="M0 0L7.00485 0L7.00485 9L0 9L0 0Z" transform="translate(348.4826 326.1634)" id="Rectangle" fill="url(#gradient_19)" stroke="none" />
        <path d="M0 0L7.00485 0L7.00485 9L0 9L0 0Z" transform="translate(348.4826 413.1634)" id="Rectangle" fill="url(#gradient_20)" stroke="none" />
        <path d="M0 73L78.0541 73L78.0541 0L0 0L0 73ZM70.192 65.2822L7.86201 65.2822L7.86201 7.65605L70.192 7.65605L70.192 65.2822Z" transform="translate(312.4577 338.1634)" id="Shape" fill="#505F98" fill-rule="evenodd" stroke="none" />
        <path d="M0 73L78.0541 73L78.0541 0L0 0L0 73ZM70.192 65.2822L7.86201 65.2822L7.86201 7.65605L70.192 7.65605L70.192 65.2822Z" transform="translate(312.4577 338.1634)" id="Shape" fill="url(#gradient_21)" fill-rule="evenodd" stroke="none" />
        <path d="M0 0L100.069 0L100.069 100L0 100L0 0Z" transform="translate(596.6545 279.1634)" id="Rectangle" fill="url(#gradient_22)" stroke="none" />
        <path d="M0 0L100.069 0L100.069 100L0 100L0 0Z" transform="translate(596.6545 389.1634)" id="Rectangle" fill="url(#gradient_22)" stroke="none" />
        <path d="M0 0L47.0326 0L47.0326 13L0 13L0 0Z" transform="translate(225.3974 298.1634)" id="Rectangle" fill="url(#gradient_23)" fill-opacity="0.65" stroke="none" />
        <path d="M2.33482e-13 2.08548e-18L262.962 0.169078L263.012 76.9406L0.0493761 76.7715L2.33482e-13 2.08548e-18Z" transform="matrix(0.7796659 -0.6261957 0.6261957 0.7796659 22.36126 229.9901)" id="Rectangle" fill="#FFFFFF" stroke="none" />
        <path d="M-2.28851e-13 0L32.2061 0.0207326L32.2394 51.8344L0.0333642 51.8137L-2.28851e-13 0Z" transform="matrix(0.7779412 -0.6283371 0.6283371 0.7779412 51.08494 234.6182)" id="Rectangle" fill="#505F98" stroke="none" />
        <path d="M-2.28851e-13 0L32.2061 0.0207326L32.2394 51.8344L0.0333642 51.8137L-2.28851e-13 0Z" transform="matrix(0.7779412 -0.6283371 0.6283371 0.7779412 51.08494 234.6182)" id="Rectangle" fill="url(#gradient_24)" stroke="none" />
        <path d="M-4.56502e-13 -1.83577e-13L32.1211 0.0206642L32.1544 51.6975L0.0332541 51.6768L-4.56502e-13 -1.83577e-13Z" transform="matrix(0.7789003 -0.6271477 0.6271477 0.7789003 74.70286 214.8522)" id="Rectangle" fill="#505F98" stroke="none" />
        <path d="M-4.56502e-13 -1.83577e-13L32.1211 0.0206642L32.1544 51.6975L0.0332541 51.6768L-4.56502e-13 -1.83577e-13Z" transform="matrix(0.7789003 -0.6271477 0.6271477 0.7789003 74.70286 214.8522)" id="Rectangle" fill="url(#gradient_25)" stroke="none" />
        <path d="M-2.28255e-13 0L32.1211 0.0206642L32.1544 51.6975L0.0332541 51.6768L-2.28255e-13 0Z" transform="matrix(0.7789003 -0.6271477 0.6271477 0.7789003 99.64678 194.9245)" id="Rectangle" fill="#505F98" stroke="none" />
        <path d="M-2.28255e-13 0L32.1211 0.0206642L32.1544 51.6975L0.0332541 51.6768L-2.28255e-13 0Z" transform="matrix(0.7789003 -0.6271477 0.6271477 0.7789003 99.64678 194.9245)" id="Rectangle" fill="url(#gradient_26)" stroke="none" />
        <path d="M1.39447e-17 3.70046e-13L32.1211 0.0206642L32.1544 51.6975L0.0332541 51.6768L1.39447e-17 3.70046e-13Z" transform="matrix(0.7789003 -0.6271477 0.6271477 0.7789003 124.5744 175.01)" id="Rectangle" fill="#505F98" stroke="none" />
        <path d="M1.39447e-17 3.70046e-13L32.1211 0.0206642L32.1544 51.6975L0.0332541 51.6768L1.39447e-17 3.70046e-13Z" transform="matrix(0.7789003 -0.6271477 0.6271477 0.7789003 124.5744 175.01)" id="Rectangle" fill="url(#gradient_27)" stroke="none" />
        <path d="M-4.57717e-13 0L32.2061 0.0207326L32.2394 51.8344L0.0333642 51.8137L-4.57717e-13 0Z" transform="matrix(0.7779412 -0.6283371 0.6283371 0.7779412 150.6944 154.5529)" id="Rectangle" fill="#505F98" stroke="none" />
        <path d="M2.28851e-13 1.12398e-17L32.2061 0.0207326L32.2394 51.8344L0.0333642 51.8137L2.28851e-13 1.12398e-17Z" transform="matrix(0.7779412 -0.6283371 0.6283371 0.7779412 175.7745 134.1537)" id="Rectangle" fill="#505F98" stroke="none" />
        <path d="M2.31148e-13 1.12101e-17L32.1211 0.0206642L32.1544 51.6975L0.0332541 51.6768L2.31148e-13 1.12101e-17Z" transform="matrix(0.7789003 -0.6271477 0.6271477 0.7789003 199.382 115.2146)" id="Rectangle" fill="#505F98" stroke="none" />
        <path d="M53.0367 40.2181L31.9376 57L0 16.7819L21.0991 0L53.0367 40.2181L53.0367 40.2181Z" transform="translate(176.3634 118.1634)" id="Path" fill="url(#gradient_28)" stroke="none" />
        <path d="M2.28234e-13 1.86458e-13L32.1211 0.0206642L32.1544 51.6975L0.0332541 51.6768L2.28234e-13 1.86458e-13Z" transform="matrix(0.7789003 -0.6271477 0.6271477 0.7789003 196.4248 117.811)" id="Rectangle" fill="url(#gradient_29)" stroke="none" />
        <path d="M21.0145 26.1498L21.0145 149L0 149L0 26.1498C-8.96467e-06 21.6099 2.81837 17.5698 7.01841 16.089L7.01841 3.82478C7.01841 1.71241 8.69428 0 10.7616 0C12.8289 0 14.5047 1.71241 14.5047 3.82478L14.5047 16.2969C18.424 17.9351 20.9927 21.823 21.0145 26.1498L21.0145 26.1498Z" transform="translate(124.3274 213.1634)" id="Path" fill="#505F98" stroke="none" />
        <path d="M21.0145 26.1498L21.0145 149L0 149L0 26.1498C-8.96467e-06 21.6099 2.81837 17.5698 7.01841 16.089L7.01841 3.82478C7.01841 1.71241 8.69428 0 10.7616 0C12.8289 0 14.5047 1.71241 14.5047 3.82478L14.5047 16.2969C18.424 17.9351 20.9927 21.823 21.0145 26.1498L21.0145 26.1498Z" transform="translate(124.3274 213.1634)" id="Path" fill="url(#gradient_30)" stroke="none" />
        <path d="M2.244 0L47.7906 0Q47.9009 0 48.0106 0.0108055Q48.1203 0.0216109 48.2284 0.0431178Q48.3365 0.0646247 48.442 0.0966259Q48.5475 0.128627 48.6494 0.170814Q48.7512 0.213002 48.8485 0.264969Q48.9457 0.316936 49.0373 0.378182Q49.129 0.439429 49.2142 0.509365Q49.2994 0.579301 49.3774 0.657252Q49.4553 0.735204 49.5253 0.820422Q49.5952 0.905639 49.6565 0.9973Q49.7177 1.08896 49.7697 1.18619Q49.8216 1.28341 49.8638 1.38526Q49.906 1.48711 49.938 1.5926Q49.97 1.69809 49.9915 1.80622Q50.013 1.91434 50.0238 2.02405Q50.0346 2.13376 50.0346 2.244L50.0346 6.756Q50.0346 6.86624 50.0238 6.97595Q50.013 7.08566 49.9915 7.19378Q49.97 7.3019 49.938 7.4074Q49.906 7.51289 49.8638 7.61474Q49.8216 7.71659 49.7697 7.81381Q49.7177 7.91104 49.6565 8.0027Q49.5952 8.09436 49.5253 8.17958Q49.4553 8.2648 49.3774 8.34275Q49.2994 8.4207 49.2142 8.49063Q49.129 8.56057 49.0373 8.62182Q48.9457 8.68306 48.8485 8.73503Q48.7512 8.787 48.6494 8.82919Q48.5475 8.87137 48.442 8.90337Q48.3365 8.93538 48.2284 8.95688Q48.1203 8.97839 48.0106 8.98919Q47.9009 9 47.7906 9L2.244 9Q2.13376 9 2.02405 8.98919Q1.91434 8.97839 1.80622 8.95688Q1.69809 8.93538 1.5926 8.90337Q1.48711 8.87137 1.38526 8.82919Q1.28341 8.787 1.18619 8.73503Q1.08896 8.68306 0.9973 8.62182Q0.905639 8.56057 0.820421 8.49063Q0.735204 8.4207 0.657252 8.34275Q0.5793 8.2648 0.509365 8.17958Q0.439429 8.09436 0.378182 8.0027Q0.316936 7.91104 0.264969 7.81381Q0.213002 7.71659 0.170814 7.61474Q0.128627 7.51289 0.0966259 7.4074Q0.0646247 7.3019 0.0431178 7.19378Q0.0216109 7.08566 0.0108055 6.97595Q0 6.86624 0 6.756L0 2.244Q0 2.13376 0.0108055 2.02405Q0.0216109 1.91434 0.0431178 1.80622Q0.0646247 1.69809 0.0966259 1.5926Q0.128627 1.48711 0.170814 1.38526Q0.213002 1.28341 0.264969 1.18619Q0.316936 1.08896 0.378182 0.9973Q0.439429 0.905639 0.509365 0.820422Q0.579301 0.735204 0.657252 0.657252Q0.735204 0.579301 0.820422 0.509365Q0.905639 0.439429 0.9973 0.378182Q1.08896 0.316936 1.18619 0.264969Q1.28341 0.213002 1.38526 0.170814Q1.48711 0.128627 1.5926 0.0966259Q1.69809 0.0646247 1.80622 0.0431178Q1.91434 0.0216109 2.02405 0.0108055Q2.13376 0 2.244 0L2.244 0Z" transform="translate(111.3184 317.1634)" id="Rectangle" fill="#505F98" stroke="none" />
        <path d="M15.6994 78L15.6994 78C7.12656 78 0 65.1847 0 56.6341L0 0L31.0215 0L31.0215 56.6341C31.0215 65.1847 24.2513 78 15.6994 78Z" transform="translate(120.3246 321.1634)" id="Path" fill="#505F98" stroke="none" />
        <path d="M2.244 0L47.7906 0Q47.9009 0 48.0106 0.0108055Q48.1203 0.0216109 48.2284 0.0431178Q48.3365 0.0646247 48.442 0.0966259Q48.5475 0.128627 48.6494 0.170814Q48.7512 0.213002 48.8485 0.264969Q48.9457 0.316936 49.0373 0.378182Q49.129 0.439429 49.2142 0.509365Q49.2994 0.579301 49.3774 0.657252Q49.4553 0.735204 49.5253 0.820422Q49.5952 0.905639 49.6565 0.9973Q49.7177 1.08896 49.7697 1.18619Q49.8216 1.28341 49.8638 1.38526Q49.906 1.48711 49.938 1.5926Q49.97 1.69809 49.9915 1.80622Q50.013 1.91434 50.0238 2.02405Q50.0346 2.13376 50.0346 2.244L50.0346 6.756Q50.0346 6.86624 50.0238 6.97595Q50.013 7.08566 49.9915 7.19378Q49.97 7.3019 49.938 7.4074Q49.906 7.51289 49.8638 7.61474Q49.8216 7.71659 49.7697 7.81381Q49.7177 7.91104 49.6565 8.0027Q49.5952 8.09436 49.5253 8.17958Q49.4553 8.2648 49.3774 8.34275Q49.2994 8.4207 49.2142 8.49063Q49.129 8.56057 49.0373 8.62182Q48.9457 8.68306 48.8485 8.73503Q48.7512 8.787 48.6494 8.82919Q48.5475 8.87137 48.442 8.90337Q48.3365 8.93538 48.2284 8.95688Q48.1203 8.97839 48.0106 8.98919Q47.9009 9 47.7906 9L2.244 9Q2.13376 9 2.02405 8.98919Q1.91434 8.97839 1.80622 8.95688Q1.69809 8.93538 1.5926 8.90337Q1.48711 8.87137 1.38526 8.82919Q1.28341 8.787 1.18619 8.73503Q1.08896 8.68306 0.9973 8.62182Q0.905639 8.56057 0.820421 8.49063Q0.735204 8.4207 0.657252 8.34275Q0.5793 8.2648 0.509365 8.17958Q0.439429 8.09436 0.378182 8.0027Q0.316936 7.91104 0.264969 7.81381Q0.213002 7.71659 0.170814 7.61474Q0.128627 7.51289 0.0966259 7.4074Q0.0646247 7.3019 0.0431178 7.19378Q0.0216109 7.08566 0.0108055 6.97595Q0 6.86624 0 6.756L0 2.244Q0 2.13376 0.0108055 2.02405Q0.0216109 1.91434 0.0431178 1.80622Q0.0646247 1.69809 0.0966259 1.5926Q0.128627 1.48711 0.170814 1.38526Q0.213002 1.28341 0.264969 1.18619Q0.316936 1.08896 0.378182 0.9973Q0.439429 0.905639 0.509365 0.820422Q0.579301 0.735204 0.657252 0.657252Q0.735204 0.579301 0.820422 0.509365Q0.905639 0.439429 0.9973 0.378182Q1.08896 0.316936 1.18619 0.264969Q1.28341 0.213002 1.38526 0.170814Q1.48711 0.128627 1.5926 0.0966259Q1.69809 0.0646247 1.80622 0.0431178Q1.91434 0.0216109 2.02405 0.0108055Q2.13376 0 2.244 0L2.244 0Z" transform="translate(111.3184 317.1634)" id="Rectangle" fill="url(#gradient_31)" stroke="none" />
        <path d="M15.6994 73L15.6994 73C7.12656 73 0 60.3662 0 51.9368L0 0L31.0215 0L31.0215 51.9368C31.0215 60.3662 24.2513 73 15.6994 73Z" transform="translate(120.3246 326.1634)" id="Path" fill="url(#gradient_32)" stroke="none" />
        <path d="M0.642481 9C-0.0307244 5.43555 -0.455907 0.390483 0.837356 0.0431778C3.56561 -0.72455 0.642481 9 0.642481 9Z" transform="translate(335.4736 450.1634)" id="Path" fill="#28353D" stroke="none" />
        <path d="M122.887 109.507C122.401 122.102 112.639 168.388 112.322 181.004C112.322 185.202 113.442 191.647 112.089 195.698C109.3 204.284 99.4109 203.108 98.122 198.049L97.636 195.53C93.0506 171.012 100.425 143.198 97.636 111.186C95.9667 91.6428 88.1906 53.9628 83.0981 53.7109C80.4145 53.7109 19.1568 182.851 13.8319 190.807C11.2117 194.817 3.83708 194.187 0.265998 197.42C-3.30508 200.652 30.0179 99.5146 43.9853 46.07C47.2428 35.0391 49.3667 23.7088 50.3245 12.2525C50.7048 5.64011 48.5706 3.415 54.6774 1.46278C58.9035 0.119314 64.7567 0.497163 69.2787 0.182289C74.2021 -0.19556 119.992 -0.279527 119.992 2.95318C119.548 20.5022 124.07 80.4122 122.887 109.507Z" transform="translate(356.4882 545.1634)" id="Path" fill="#606161" stroke="none" />
        <path d="M122.887 109.507C122.401 122.102 112.639 168.388 112.322 181.004C112.322 185.202 113.442 191.647 112.089 195.698C109.3 204.284 99.4109 203.108 98.122 198.049L97.636 195.53C93.0506 171.012 100.425 143.198 97.636 111.186C95.9667 91.6428 88.1906 53.9628 83.0981 53.7109C80.4145 53.7109 19.1568 182.851 13.8319 190.807C11.2117 194.817 3.83708 194.187 0.265998 197.42C-3.30508 200.652 30.0179 99.5146 43.9853 46.07C47.2428 35.0391 49.3667 23.7088 50.3245 12.2525C50.7048 5.64011 48.5706 3.415 54.6774 1.46278C58.9035 0.119314 64.7567 0.497163 69.2787 0.182289C74.2021 -0.19556 119.992 -0.279527 119.992 2.95318C119.548 20.5022 124.07 80.4122 122.887 109.507Z" transform="translate(356.4882 545.1634)" id="Path" fill="url(#gradient_33)" stroke="none" />
        <path d="M6.7711 6.14841C6.38602 2.16254 4.5034 0 2.66357 0C0.823736 0 -0.310115 2.12014 0.074966 6.14841C0.162347 9.12199 2.40642 11.597 5.38053 12C7.24176 12 7.17758 10.1343 6.7711 6.14841Z" transform="translate(418.5312 380.1634)" id="Path" fill="#FFCD9C" stroke="none" />
        <path d="M0.13791 6.15929C0.388337 2.16637 2.2248 0 4.12387 0C6.02294 0 7.25421 2.12389 6.96204 6.15929C6.93561 9.17325 4.69035 11.6868 1.74482 12C-0.133386 12 -0.154254 10.1522 0.13791 6.15929Z" transform="translate(457.5582 380.1634)" id="Path" fill="#FFCD9C" stroke="none" />
        <path d="M39.8874 52.6717C39.6283 54.7773 30.7134 64 20.568 64C10.4227 64 2.04734 55.5775 0.277294 52.2084C-1.49275 48.8394 5.63059 5.50548 9.75349 1.88379C13.8764 -1.73791 30.5839 0.641461 31.9869 2.55759C35.3543 7.0847 40.9883 44.2702 39.8874 52.6717Z" transform="translate(421.5332 351.1634)" id="Path" fill="#F4AD7D" stroke="none" />
        <path d="M8.67467 20.977C7.29542 21.6389 1.87982 7.84159 0.743968 5.5248C-0.391888 3.20801 -0.20934 0.829166 1.16991 0.167226C2.54917 -0.494714 4.57748 0.870537 5.71334 3.16664C6.84919 5.46274 10.0336 20.3357 8.67467 20.977Z" transform="translate(448.5519 350.1634)" id="Path" fill="#FFCD9C" stroke="none" />
        <path d="M0.319551 20.9872C-1.11095 20.5006 2.67685 6.17863 3.50291 3.70349C4.32897 1.22834 6.18258 -0.400596 7.53248 0.0859706C8.88239 0.572537 9.44653 2.98421 8.62047 5.48051C7.79441 7.97681 1.66946 21.4737 0.319551 20.9872Z" transform="translate(426.5367 349.1634)" id="Path" fill="#FFCD9C" stroke="none" />
        <path d="M2.99475 0L24.758 0L28.0194 20.6222C16.1635 27.0048 9.25092 26.3005 0 19.2137L2.99475 0Z" transform="translate(429.5388 402.1634)" id="Path" fill="#F4AD7D" stroke="none" />
        <path d="M0 1.13C0 0.75 0.90539 0.43 2.00139 0.43C3.09739 0.43 4.00278 0.75 4.00278 1.13C4.00278 1.51 3.12121 1.57 2.00139 1.57C0.881564 1.57 0 1.53 0 1.13Z" transform="translate(441.5471 405.1634)" id="Path" fill="#F4AD7D" stroke="none" />
        <path d="M43.0484 51.8077C43.8723 46.8941 45.2164 11.7083 41.9211 7.05101C38.6258 2.39375 18.8975 -0.618518 15.9058 0.107843C9.20681 1.73148 10.3775 6.51692 10.3775 6.51692C8.38639 6.54669 6.43702 7.08397 4.71916 8.07646C2.42114 9.61464 -2.41338 31.79 1.44556 48.5604C3.17992 56.1018 10.0089 62.6604 21.8026 62.9809C36.3278 63.3654 42.0512 57.8963 43.0484 51.8077Z" transform="translate(419.5318 345.1634)" id="Path" fill="#606161" stroke="none" />
        <path d="M15.9873 1.76199C17.5466 0.448356 19.5664 -0.172334 21.5866 0.0413429C27.7192 0.00828945 33.8032 1.13965 39.5213 3.37642C42.6917 4.48751 45.5708 6.31064 47.9413 8.7083C50.3284 11.173 51.4278 14.6273 50.9093 18.0338C49.8568 23.047 44.5943 26.1484 42.8682 30.9705C41.4789 34.8366 42.4683 38.5753 42.5104 42.4627C42.5382 45.6057 42.313 48.7457 41.8368 51.8519C40.8685 57.906 35.3323 63.3441 21.1235 62.983C9.67228 62.6643 3.04152 56.1429 1.35751 48.6443C-0.922306 36.1984 -0.324399 23.3894 3.10467 11.2149C9.27618 12.6485 15.5906 13.3612 21.9234 13.3392C28.6384 13.3954 35.3344 12.6105 41.8578 11.0025C42.9735 17.5027 42.9524 30.5244 42.5946 40.2535" transform="translate(419.5318 345.1634)" id="Path" fill="#606161" stroke="none" />
        <path d="M14.8822 3.95381C11.4482 4.24117 8.13983 5.38444 5.25699 7.28003C0.319363 11.1711 -0.0556467 18.4302 0.0276888 24.7479C-0.141518 33.5011 0.465055 42.2521 1.84024 50.8974C3.31944 58.826 6.00701 66.4407 8.2154 74.2019C11.6964 86.8314 13.5243 99.8624 13.653 112.966C13.653 120.162 13.528 128.07 18.0073 133.697C22.9033 139.806 31.5702 140.998 39.362 141.438C50.4248 142.086 61.5293 142.17 72.5921 141.71C80.0089 141.375 87.905 140.643 93.7801 136.082C98.4677 132.442 109.447 9.28831 100.926 6.17129C92.4051 3.05427 83.2382 2.25932 74.1963 1.50622C53.9249 -0.209194 34.8411 -1.56897 14.8822 3.95381Z" transform="translate(385.5083 415.1634)" id="Path" fill="#505F98" stroke="none" />
        <path d="M24.6643 87.2907C23.5774 101.255 20.9855 152 20.9855 152L14.3805 151.77C9.8448 127.39 17.1396 99.7316 14.3805 67.8987C12.7293 48.4651 5.03736 10.9963 0 10.7458C1.50494 -1.77861 9.97021 0.100047 9.97021 0.100047C16.1269 9.29413 21.4368 19.0264 25.8348 29.1775C30.8721 42.3699 25.7721 73.2633 24.6643 87.2907Z" transform="translate(439.5457 587.1634)" id="Path" fill="url(#gradient_34)" stroke="none" />
        <path d="M2.37785 10.0237C1.34637 10.7863 0.563582 11.8297 0.125884 13.0254C-0.108776 14.0085 -0.013659 15.0402 0.396954 15.9655C1.56335 18.3256 3.77374 20.019 6.38136 20.5503C8.95778 21.0404 11.596 21.1306 14.2007 20.8175L22.5413 20.2624C24.6636 20.2124 26.7687 19.8734 28.7968 19.255C30.827 18.6269 32.5028 17.1979 33.4259 15.3075C33.9171 13.9158 34.1088 12.4383 33.9888 10.9694C33.9888 4.16418 31.5701 -1.36638 24.0218 0.298955C16.1151 1.76505 8.68766 5.10224 2.37785 10.0237L2.37785 10.0237Z" transform="translate(337.475 730.1634)" id="Path" fill="#505F98" stroke="none" />
        <path d="M28.8384 9.06284C29.7861 9.75867 30.5046 10.709 30.9056 11.797C31.1196 12.6823 31.0357 13.6112 30.6662 14.4464C29.6033 16.5842 27.574 18.1137 25.1828 18.5795C22.8256 19.0354 20.4088 19.1213 18.0238 18.8338L10.4514 18.3251C8.52532 18.2844 6.61418 17.9848 4.77217 17.4349C2.91517 16.8642 1.38578 15.5664 0.550784 13.853C0.102985 12.5945 -0.0747631 11.2599 0.0285514 9.93184C0.0285514 3.78524 2.20452 -1.2804 9.14587 0.28804C16.342 1.61855 23.0994 4.62958 28.8384 9.06284L28.8384 9.06284Z" transform="translate(449.5526 734.1634)" id="Path" fill="#505F98" stroke="none" />
        <path d="M0 0C0 0 32.7157 19.1635 42.5411 43.3887C52.3666 67.6138 10.3618 126 10.3618 126L1.37299 116.814C1.37299 116.814 23.2979 72.7588 19.9083 61.7398C16.5187 50.7208 3.23939 40.4517 3.23939 40.4517L0 0Z" transform="translate(487.5789 421.1634)" id="Path" fill="#505F98" stroke="none" />
        <path d="M72.0499 49.859C72.0499 49.859 26.5614 70.2397 8.07645 60.2384C-10.4085 50.2372 8.62197 0 8.62197 0L21.0012 4.20219C21.0012 4.20219 10.6572 29.8146 22.4909 33.6175C34.3247 37.4205 69.7839 12.4385 69.7839 12.4385L72.0499 49.859Z" transform="translate(322.4646 409.1634)" id="Path" fill="#505F98" stroke="none" />
        <path d="M3.58347 5.97614C2.27489 6.82632 1.21451 7.96784 0.498516 9.29717C0.0686766 10.4252 -0.0860921 11.6285 0.0454803 12.8195C-0.0339049 15.7091 1.28052 18.4794 3.62662 20.3673C5.27502 21.2499 7.12213 21.76 9.0199 21.8567C10.1831 22.0478 11.3731 22.0478 12.5363 21.8567C13.7228 21.6458 14.7138 20.888 15.1682 19.8439C15.3233 19.1833 15.3885 18.5071 15.3624 17.8312C15.5134 14.5102 18.0159 11.793 20.0869 9.07577C20.5872 8.55079 20.9099 7.89955 21.0146 7.20392C21.0025 6.43372 20.7138 5.68956 20.1948 5.09054C18.7925 3.19856 15.3193 -0.283488 12.5363 0.0184231C9.75339 0.320335 5.74079 4.32569 3.58347 5.97614Z" transform="translate(476.5714 540.1634)" id="Path" fill="#F4AD7D" stroke="none" />
        <path d="M23.8056 21.4347C24.3983 20.6114 24.8025 19.6789 24.9921 18.6976C25.1432 17.6826 24.6065 16.687 23.6518 16.2111C22.1358 15.647 20.3341 17.1305 18.8401 16.5036C18.3345 16.2346 17.9107 15.846 17.6097 15.3753C15.8455 12.9449 14.8331 10.0929 14.6874 7.14293C14.7734 5.57092 14.6255 3.99523 14.248 2.46257C13.8037 0.885618 12.2204 -0.150646 10.5129 0.0179226C9.10669 0.331339 8.31572 1.68948 7.43686 2.77599C6.558 3.8625 4.80028 5.15796 3.65776 6.51609C1.70709 9.30719 0.590703 12.5499 0.427954 15.8977C-0.187248 20.0766 -0.582735 24.8614 2.49327 27.8702C4.86619 30.1895 12.0948 32.9267 15.4125 31.6939C19.0817 30.3149 21.96 24.4435 23.8056 21.4347Z" transform="translate(327.4681 380.1634)" id="Path" fill="#F4AD7D" stroke="none" />
    </g>
</svg>