<?xml version="1.0" encoding="utf-8"?>
<svg width="76px" height="38px" viewBox="0 0 76 38" version="1.1" 
    xmlns:xlink="http://www.w3.org/1999/xlink" 
    xmlns="http://www.w3.org/2000/svg">
    <desc>Created with Lunacy</desc>
    <g id="Landie" fill="#37447E">
        <path d="M51.3018 28.1025L53.3838 28.1025L53.3838 8.85645L51.3018 8.85645L51.3018 16.9053L51.251 16.9053Q50.0322 14.7979 47.3535 14.7979Q44.6494 14.7979 43.0244 16.7402Q41.3994 18.6826 41.3994 21.9072Q41.3994 24.916 42.8657 26.6616Q44.332 28.4072 46.7822 28.4072Q49.8037 28.4072 51.251 25.8936L51.3018 25.8936L51.3018 28.1025ZM58.665 11.8018Q58.1064 11.8018 57.7129 11.4209Q57.3193 11.04 57.3193 10.4561Q57.3193 9.87207 57.7129 9.48486Q58.1064 9.09766 58.665 9.09766Q59.2363 9.09766 59.6362 9.48486Q60.0361 9.87207 60.0361 10.4561Q60.0361 11.0146 59.6362 11.4082Q59.2363 11.8018 58.665 11.8018ZM2.38672 28.1025L11.832 28.1025L11.832 26.1729L4.51953 26.1729L4.51953 9.89746L2.38672 9.89746L2.38672 28.1025ZM21.5693 28.1025L23.6514 28.1025L23.6514 19.6475Q23.6514 14.7979 19.0684 14.7979Q16.5674 14.7979 14.6504 16.0166L14.6504 18.1494Q16.542 16.5498 18.8906 16.5498Q21.5693 16.5498 21.5693 19.8633L17.6719 20.4092Q13.3809 21.0059 13.3809 24.6494Q13.3809 26.3506 14.479 27.3789Q15.5771 28.4072 17.5195 28.4072Q20.1602 28.4072 21.5186 26.0713L21.5693 26.0713L21.5693 28.1025ZM38.3652 28.1025L36.2832 28.1025L36.2832 20.6885Q36.2832 16.5498 33.2617 16.5498Q31.7002 16.5498 30.6782 17.7241Q29.6563 18.8984 29.6563 20.6885L29.6563 28.1025L27.5742 28.1025L27.5742 15.1025L29.6563 15.1025L29.6563 17.2607L29.707 17.2607Q31.1797 14.7979 33.9727 14.7979Q36.1055 14.7979 37.2354 16.1753Q38.3652 17.5527 38.3652 20.1553L38.3652 28.1025ZM65.165 22.123L74.3438 22.123L74.3438 21.0313Q74.3438 18.0986 72.9473 16.4482Q71.5508 14.7979 68.999 14.7979Q66.4473 14.7979 64.7271 16.7085Q63.0068 18.6191 63.0068 21.6533Q63.0068 24.8652 64.5811 26.6362Q66.1553 28.4072 68.9102 28.4072Q71.7285 28.4072 73.4424 27.1631L73.4424 25.208Q71.6016 26.6553 69.4053 26.6553Q67.4502 26.6553 66.333 25.4746Q65.2158 24.2939 65.165 22.123ZM59.6807 28.1025L57.5986 28.1025L57.5986 15.1025L59.6807 15.1025L59.6807 28.1025ZM51.3018 20.3076L51.3018 22.2246Q51.3018 24.1416 50.2163 25.3984Q49.1309 26.6553 47.3916 26.6553Q45.627 26.6553 44.5796 25.354Q43.5322 24.0527 43.5322 21.8057Q43.5322 19.3428 44.624 17.9463Q45.7158 16.5498 47.6201 16.5498Q49.2197 16.5498 50.2607 17.6416Q51.3018 18.7334 51.3018 20.3076ZM71.3413 17.5527Q72.1982 18.5557 72.2109 20.3584L65.1904 20.3584Q65.4316 18.6572 66.46 17.6035Q67.4883 16.5498 68.9609 16.5498Q70.4844 16.5498 71.3413 17.5527ZM18.4336 21.958L21.5693 21.5264L21.5693 22.8213Q21.5693 24.4844 20.5601 25.5698Q19.5508 26.6553 18.002 26.6553Q16.8721 26.6553 16.1929 26.0522Q15.5137 25.4492 15.5137 24.4971Q15.5137 23.1895 16.25 22.6753Q16.9863 22.1611 18.4336 21.958Z" />
    </g>
</svg>