<?xml version="1.0" encoding="utf-8"?>
<svg width="447px" height="315px" viewBox="0 0 447 315" version="1.1" 
    xmlns:xlink="http://www.w3.org/1999/xlink" 
    xmlns="http://www.w3.org/2000/svg">
    <desc>Created with Lunacy</desc>
    <g id="undraw_mention_6k5d" transform="translate(1 1)">
        <path d="M144 288C223.529 288 288 223.529 288 144C288 64.471 223.529 0 144 0C64.471 0 0 64.471 0 144C0 223.529 64.471 288 144 288Z" transform="translate(23 16.9349)" id="Oval" fill="#F2F2F2" stroke="none" />
        <path d="M24.1083 65.9573C-7.59908 114.834 1.08876 177 1.08876 177C1.08876 177 61.1844 159.92 92.8917 111.043C124.599 62.1655 115.911 0 115.911 0C115.911 0 55.8156 17.0801 24.1083 65.9573Z" transform="translate(166 116.9349)" id="Path" fill="#3F3D56" stroke="none" />
        <path d="M134.991 162C134.991 162 134.215 161.877 132.786 161.589C131.646 161.359 130.077 161.03 128.16 160.578C111.029 156.558 65.4849 142.969 35.7083 107.241C-1.55986 62.5031 0.00946876 0 0.00946876 0C0.00946876 0 56.9938 9.21559 94.5428 49.3909C96.17 51.1172 97.7532 52.9066 99.2922 54.759C131.72 93.6848 134.743 146.06 134.983 159.008C135.016 160.948 134.991 162 134.991 162Z" transform="translate(32 130.9349)" id="Path" fill="#222F65" stroke="none" />
        <path d="M92.8917 65.9573C124.599 114.834 115.911 177 115.911 177C115.911 177 55.8156 159.92 24.1083 111.043C-7.59908 62.1655 1.08876 0 1.08876 0C1.08876 0 61.1844 17.0801 92.8917 65.9573Z" transform="translate(51 116.9349)" id="Path" fill="none" stroke="#3F3D56" stroke-width="2" />
        <path d="M41 110.056C40.1601 111.071 39.419 111.938 38.8097 112.648C37.4593 114.191 36.6935 115 36.6935 115C36.6935 115 35.763 113.828 34.1985 111.632C25.6102 99.6315 -2.01566 56.9594 0.116977 7.66775C0.232267 5.08431 0.421655 2.52839 0.685142 0C2.30731 1.73328 3.88554 3.52984 5.41983 5.38969C37.7475 44.4714 40.7612 97.0563 41 110.056Z" transform="translate(126 180.9349)" id="Path" fill="#000000" fill-opacity="0.1" stroke="none" />
        <path d="M82.8831 107.281C80.3547 165.547 36.9218 211 36.9218 211C36.9218 211 -2.41157 161.985 0.11688 103.719C2.64533 45.4531 46.0782 0 46.0782 0C46.0782 0 85.4116 49.0149 82.8831 107.281Z" transform="translate(132 84.93491)" id="Path" fill="#222F65" stroke="none" />
        <path d="M0 207L9 0" transform="translate(169 86.93491)" id="Path" fill="none" stroke="#3F3D56" stroke-width="2" />
        <path d="M222.5 28C345.383 28 445 21.732 445 14C445 6.26801 345.383 0 222.5 0C99.6166 0 0 6.26801 0 14C0 21.732 99.6166 28 222.5 28Z" transform="translate(0 284.9349)" id="Oval" fill="#3F3D56" stroke="none" />
        <path d="M0.205448 56L0.205448 0" transform="translate(36.79455 237.9349)" id="Path" fill="#3F3D56" stroke="#3F3D56" stroke-width="2" />
        <path d="M8 16C12.4183 16 16 12.4183 16 8C16 3.58172 12.4183 0 8 0C3.58172 0 0 3.58172 0 8C0 12.4183 3.58172 16 8 16Z" transform="translate(29 229.9349)" id="Oval" fill="#3F3D56" stroke="none" />
        <path d="M24 22C24 22 22.8837 -2.63151 0 0.231568" transform="translate(13 250.9349)" id="Path" fill="#3F3D56" stroke="none" />
        <path d="M0.205444 156L0.205444 0" transform="translate(227.7946 46.9349)" id="Path" fill="#3F3D56" stroke="#3F3D56" stroke-width="2" />
        <path d="M11 22C17.0751 22 22 17.0751 22 11C22 4.92487 17.0751 0 11 0C4.92487 0 0 4.92487 0 11C0 17.0751 4.92487 22 11 22Z" transform="translate(217 36.9349)" id="Oval" fill="#3F3D56" stroke="none" />
        <path d="M33 30C33 30 31.4651 -3.58842 0 0.315773" transform="translate(195 61.9349)" id="Path" fill="#3F3D56" stroke="none" />
        <path d="M69.2857 0L59.9089 17.6348C59.9089 17.6348 -7.89203 30.591 0.76341 50.7451C9.41885 70.8991 19.1563 100.41 24.2052 99.6907C29.2542 98.9709 57.0238 83.1355 58.1057 78.4569C59.1876 73.7783 33.2213 51.8248 33.2213 51.8248L76.1379 43.5472C76.1379 43.5472 82.2688 72.3387 74.3346 92.1329C66.4005 111.927 61.7121 165.551 67.1218 166.271C72.5314 166.991 86.2359 171.31 92.3668 167.351C98.4977 163.392 101.383 76.6574 101.383 76.6574C101.383 76.6574 114.366 19.7942 106.432 13.3161C98.4977 6.83798 69.2857 0 69.2857 0Z" transform="translate(289 116.9349)" id="Path" fill="#2F2E41" stroke="none" />
        <path d="M18.9421 2.25713C18.9421 2.25713 10.5635 -2.16685 8.79958 1.37234C8.79958 1.37234 10.1225 11.9899 4.83077 13.3171C-0.460976 14.6443 -2.66587 23.9346 4.83077 24.8194C12.3274 25.7042 17.1782 23.0498 19.8241 23.0498C22.4699 23.0498 19.8241 13.7595 19.8241 13.7595L18.9421 2.25713Z" transform="translate(354 272.9349)" id="Path" fill="#2F2E41" stroke="none" />
        <path d="M14.9647 0.835184C14.9647 0.835184 5.83583 -1.72541 4.85462 2.12046C4.85462 2.12046 8.38308 12.2539 3.48466 14.679C-1.41377 17.1042 -1.61635 26.6847 5.90487 25.9611C13.4261 25.2375 17.6138 21.6042 20.2026 21.0425C22.7915 20.4808 18.2478 11.93 18.2478 11.93L14.9647 0.835184Z" transform="translate(318 201.9349)" id="Path" fill="#2F2E41" stroke="none" />
        <path d="M2.39547 2.85868C2.39547 2.85868 2.75168 16.2887 0.258225 17.3776C-2.23523 18.4665 14.1503 25 14.1503 25L17 19.9184C17 19.9184 13.7941 1.76976 14.5065 0.31787C15.219 -1.13402 2.39547 2.85868 2.39547 2.85868Z" transform="translate(376 51.9349)" id="Path" fill="#9F616A" stroke="none" />
        <path d="M22 44C34.1503 44 44 34.1503 44 22C44 9.84974 34.1503 0 22 0C9.84974 0 0 9.84974 0 22C0 34.1503 9.84974 44 22 44Z" transform="translate(362 13.9349)" id="Oval" fill="#2F2E41" stroke="none" />
        <path d="M9 18C13.9706 18 18 13.9706 18 9C18 4.02944 13.9706 0 9 0C4.02944 0 0 4.02944 0 9C0 13.9706 4.02944 18 9 18Z" transform="translate(377 5.934903)" id="Oval" fill="#2F2E41" stroke="none" />
        <path d="M1.8868 9C1.88707 4.39243 5.38872 0.529044 10 0.048663C9.68659 0.016323 9.3717 8.04062e-05 9.05661 0C4.05478 0 0 4.02944 0 9C0 13.9706 4.05478 18 9.05661 18C9.3717 17.9999 9.68659 17.9837 10 17.9513C5.38872 17.471 1.88707 13.6076 1.8868 9L1.8868 9Z" transform="translate(372 0.934903)" id="Path" fill="#2F2E41" stroke="none" />
        <path d="M15 30C23.2843 30 30 23.2843 30 15C30 6.71573 23.2843 0 15 0C6.71573 0 0 6.71573 0 15C0 23.2843 6.71573 30 15 30Z" transform="translate(368 31.9349)" id="Oval" fill="#9F616A" stroke="none" />
        <path d="M44.2508 0.809385C44.2508 0.809385 31.2967 4.74972 24.8196 0.809385C18.3426 -3.13095 2.86958 8.33185 0.350721 13.3468C-2.16814 18.3618 9.70648 23.3768 9.70648 23.3768C9.70648 23.3768 6.31555 33.0611 7.00771 37.8844C7.72738 42.8994 6.46795 53.1084 6.46795 53.1084C6.46795 53.1084 38.2581 73.9583 45.3303 64.5712C46.4098 63.1383 55.4057 29.4664 55.4057 29.4664L68 16.9289C68 16.9289 60.0836 5.46613 55.4057 4.39149C50.7278 3.31685 44.2508 0.809385 44.2508 0.809385Z" transform="translate(350 65.93491)" id="Path" fill="#D0CDE1" stroke="none" />
        <path d="M19.9368 0C19.9368 0 -4.31591 12.8382 0.677301 16.5063C5.67051 20.1743 26 2.20084 26 2.20084L19.9368 0Z" transform="translate(287 139.9349)" id="Path" fill="#9F616A" stroke="none" />
        <path d="M12.9222 4.93868C12.9222 4.93868 1.92659 -2.77801 0.156136 1.08034C-1.61431 4.93868 12.1954 13.6268 15.1027 10.2271C18.01 6.8274 12.9222 4.93868 12.9222 4.93868Z" transform="translate(390 125.9349)" id="Path" fill="#9F616A" stroke="none" />
        <path d="M10.7684 0L17.1814 3.9883C17.1814 3.9883 38.9144 34.4444 31.4326 41.3333C23.9507 48.2222 4.71162 62 4.71162 62C4.71162 62 -1.70142 52.5731 0.43626 52.2105C2.57394 51.848 19.6754 37.345 19.6754 37.345L4.71162 9.06432L10.7684 0Z" transform="translate(401 77.93491)" id="Path" fill="#D0CDE1" stroke="none" />
        <path d="M49.1795 0L44.5128 1.81052L32.3077 23.8988L0 63.3681C0 63.3681 4.30769 70.2481 7.89744 68.7997C11.4872 67.3512 38.4103 36.9346 38.4103 36.9346L56 9.41469L49.1795 0Z" transform="translate(305 76.93491)" id="Path" fill="#D0CDE1" stroke="none" />
        <path d="M15.5 18C24.0604 18 31 13.9706 31 9C31 4.02944 24.0604 0 15.5 0C6.93959 0 0 4.02944 0 9C0 13.9706 6.93959 18 15.5 18Z" transform="translate(369 19.9349)" id="Oval" fill="#2F2E41" stroke="none" />
        <path d="M0 0L71 0L71 71L0 71L0 0Z" transform="translate(282 223.9349)" id="Rectangle" fill="#222F65" stroke="none" />
        <path d="M39.8667 39.4088C47.301 39.4088 52 33.0866 52 23.055C52 9.40884 41.5458 0 26.4604 0C10.7656 0 0 10.5867 0 26.0063C0 41.805 10.549 51.9855 27.0292 51.9991C29.885 52.0135 32.7334 51.7047 35.5198 51.0785C36.6503 50.8054 37.3561 49.6802 37.1097 48.5439C36.8632 47.4076 35.7546 46.6757 34.6125 46.8953C32.1806 47.3237 29.7151 47.5321 27.2458 47.518C13.6906 47.518 4.98332 39.2058 4.98332 26.1823C4.98332 13.4431 13.7854 4.44043 26.1354 4.44043C38.6208 4.44043 47.0708 11.981 47.0708 23.2581C47.0708 30.3249 44.6875 34.8736 40.9365 34.8736C38.7698 34.8736 37.5646 33.5605 37.5646 31.3809L37.5646 13.8763L32.1615 13.8763L32.1615 17.6399L31.6198 17.6399C30.374 14.8917 27.5438 13.213 24.2125 13.213C17.7261 13.213 13.2844 18.4792 13.2844 26.0469C13.2844 33.926 17.699 39.2193 24.3073 39.2193C28.0177 39.2193 30.7802 37.5 32.1208 34.3592L32.6625 34.3592C33.1635 37.3781 36.0615 39.4088 39.8667 39.4088ZM25.3094 34.2103C21.4771 34.2103 19.1208 31.1778 19.1208 26.1688C19.1208 21.1462 21.4365 18.1949 25.3771 18.1949C29.3448 18.1949 31.8906 21.241 31.8906 26.1688C31.8906 31.0965 29.3448 34.2103 25.3094 34.2103Z" transform="translate(291 233.9349)" id="Shape" fill="#FFFFFF" fill-rule="evenodd" stroke="none" />
    </g>
</svg>