<?xml version="1.0" encoding="utf-8"?>
<svg width="555px" height="394px" viewBox="0 0 555 394" version="1.1" 
    xmlns:xlink="http://www.w3.org/1999/xlink" 
    xmlns="http://www.w3.org/2000/svg">
    <desc>Created with Lunacy</desc>
    <g id="undraw_happy_news_hxmt">
        <path d="M44.0802 21.5326C19.7797 21.6437 0 22 0 22C0 22 23.5112 -8.9058 43.992 2.54458C64.4728 13.995 88 21.5975 88 21.5975C88 21.5975 68.3807 21.4214 44.0802 21.5326Z" transform="translate(130 193.2918)" id="Path" fill="#F2F2F2" stroke="none" />
        <path d="M5 10C7.76142 10 10 7.76142 10 5C10 2.23858 7.76142 0 5 0C2.23858 0 0 2.23858 0 5C0 7.76142 2.23858 10 5 10Z" transform="translate(441 214.2918)" id="Oval" fill="#FF6584" stroke="none" />
        <path d="M2.055e-13 4.41869e-13L57.843 2.65121e-13L57.843 1.55469L2.055e-13 1.55469L2.055e-13 4.41869e-13Z" transform="matrix(0.6567253 -0.7541299 0.7541299 0.6567253 408.9896 298.606)" id="Rectangle" fill="#3F3D56" stroke="none" />
        <path d="M8 16C12.4183 16 16 12.4183 16 8C16 3.58172 12.4183 0 8 0C3.58172 0 0 3.58172 0 8C0 12.4183 3.58172 16 8 16Z" transform="translate(440 247.2918)" id="Oval" fill="#3F3D56" stroke="none" />
        <path d="M4.28586 33C4.28586 33 19.6456 13.4272 0 0" transform="translate(420 249.2918)" id="Path" fill="#3F3D56" stroke="none" />
        <path d="M17.578 114.405C45.7262 166.596 105.467 189 105.467 189C105.467 189 119.57 126.786 91.422 74.5953C63.2738 22.4044 3.53315 0 3.53315 0C3.53315 0 -10.5702 62.2137 17.578 114.405Z" transform="translate(152 202.2918)" id="Path" fill="#3F3D56" stroke="none" />
        <path d="M113.621 21.46C164.431 52.1163 184 113.008 184 113.008C184 113.008 121.189 124.196 70.3788 93.54C19.5686 62.8837 0 1.99183 0 1.99183C0 1.99183 62.811 -9.19636 113.621 21.46Z" transform="translate(75 278.2918)" id="Path" fill="#111B47" stroke="none" />
        <path d="M71.1943 20.73C20.108 50.9674 0 111.75 0 111.75C0 111.75 62.7194 123.508 113.806 93.2701C164.892 63.0326 185 2.25023 185 2.25023C185 2.25023 122.281 -9.50751 71.1943 20.73Z" transform="translate(319 279.2918)" id="Path" fill="#3F3D56" stroke="none" />
        <path d="M91.7387 114.221C63.1343 166.135 3.20714 188 3.20714 188C3.20714 188 -10.3431 125.694 18.2613 73.7794C46.8657 21.8647 106.793 0 106.793 0C106.793 0 120.343 62.3058 91.7387 114.221Z" transform="translate(317 204.2918)" id="Path" fill="#111B47" stroke="none" />
        <path d="M6.88138 21.04C0.866161 15.5973 0.0237795 6.45078 4.94362 0C4.62955 0.294623 4.32254 0.600521 4.02865 0.925718C-1.74952 7.31932 -1.253 17.1887 5.13766 22.9695C11.5283 28.7503 21.3931 28.2536 27.1712 21.86C27.4651 21.5348 27.7385 21.1985 28 20.8562C22.0788 26.4012 12.8981 26.4811 6.88138 21.04L6.88138 21.04Z" transform="translate(298 155.2918)" id="Path" fill="#2F2E41" stroke="none" />
        <path d="M32.5 65C50.4493 65 65 50.4492 65 32.5C65 14.5507 50.4493 0 32.5 0C14.5507 0 0 14.5507 0 32.5C0 50.4492 14.5507 65 32.5 65Z" transform="translate(258 122.2918)" id="Oval" fill="#2F2E41" stroke="none" />
        <path d="M72.2377 38.031L73.2122 35.5256L55.4765 50.3654L34.0377 62.3143C34.0377 62.3143 23.1234 20.6857 22.3438 19.9148C21.5642 19.1439 7.53151 -10.1503 1.29477 3.72592C-4.94198 17.6021 13.3785 25.6966 13.3785 25.6966C13.3785 25.6966 13.9632 76.3833 32.6734 75.9978C51.3836 75.6124 74.5765 58.8453 74.9663 57.3035C75.3561 55.7617 72.2377 38.031 72.2377 38.031Z" transform="translate(209 158.2918)" id="Path" fill="#FFB8B8" stroke="none" />
        <path d="M19.5 39C30.2696 39 39 30.2696 39 19.5C39 8.73045 30.2696 0 19.5 0C8.73045 0 0 8.73045 0 19.5C0 30.2696 8.73045 39 19.5 39Z" transform="translate(267 149.2918)" id="Oval" fill="#FFB8B8" stroke="none" />
        <path d="M13.8791 12.75C13.8791 12.75 18.9429 19.3182 17.3848 20.0909C15.8267 20.8636 6.86764 21.25 1.41432 27.8182C-4.03901 34.3864 8.03622 51 8.03622 51L54 20.4773L35.3029 14.2955C35.3029 14.2955 22.4486 7.34091 22.8381 0L13.8791 12.75Z" transform="translate(276 170.2918)" id="Path" fill="#FFB8B8" stroke="none" />
        <path d="M125 206L73.37 206C70.4455 184.663 69.0933 165.109 69.0933 165.109C69.0933 165.109 68.3386 184.778 66.3312 206L0 206C9.40252 143.159 53.978 75.0156 53.978 75.0156C53.978 75.0156 54.3658 65.7328 55.5294 64.1848C56.6929 62.642 48.9413 62.255 45.4507 50.6554C43.3228 43.5743 45.2359 38.9407 47.0545 36.4095C47.6788 35.4974 48.4469 34.692 49.3291 34.0248C49.3291 34.0248 50.1048 25.9082 49.3291 24.7472C49.2296 24.5955 49.9947 24.0621 51.4099 23.2515C52.5891 22.5716 54.2191 21.6982 56.1688 20.6941C67.3375 14.9153 88.957 4.69109 96.3627 1.20807C97.9874 0.439299 98.9308 0 98.9308 0L112.107 4.63879C122.568 8.11658 122.568 30.16 122.568 30.16L121.976 31.0595L106.164 54.9595L96.9916 68.8288C99.3187 70.3715 94.6698 80.0414 94.6698 80.0414C94.6698 80.0414 101.295 89.5386 106.682 104.035C109.729 112.104 111.807 120.504 112.872 129.06C113.551 134.605 113.685 140.203 113.27 145.774C111.834 164.402 118.218 187.042 125 206Z" transform="translate(227 187.2918)" id="Path" fill="#2F2E41" stroke="none" />
        <path d="M15.9508 0.434122C15.0914 -0.054492 14.0628 -0.134872 13.1395 0.214437C12.2162 0.563746 11.4921 1.30719 11.1605 2.24633C10.0072 5.4545 8.83834 12.1424 9.25487 26.0477C10.0209 51.6205 10.4039 69.0565 10.4039 69.0565L10.4039 107.803C10.4039 107.803 -6.44871 145 2.74363 145C11.936 145 18.4472 115.553 18.4472 115.553C18.4472 115.553 26.8736 70.9938 24.1925 63.2445C24.1924 63.2445 31.7524 9.7096 15.9508 0.434122Z" transform="translate(323 193.2918)" id="Path" fill="#FFB8B8" stroke="none" />
        <path d="M16.5 23C25.6127 23 33 17.8513 33 11.5C33 5.14873 25.6127 0 16.5 0C7.3873 0 0 5.14873 0 11.5C0 17.8513 7.3873 23 16.5 23Z" transform="translate(268 140.2918)" id="Oval" fill="#2F2E41" stroke="none" />
        <path d="M16 32C24.8366 32 32 24.8365 32 16C32 7.16344 24.8366 0 16 0C7.16344 0 0 7.16344 0 16C0 24.8365 7.16344 32 16 32Z" transform="translate(295 110.2918)" id="Oval" fill="#2F2E41" stroke="none" />
        <path d="M16 14.3846C7.68151 14.3835 0.751923 8.13019 0.0596169 0C0.0232551 0.431598 0 0.866886 0 1.30769C6.0059e-14 9.97431 7.16344 17 16 17C24.8366 17 32 9.97431 32 1.30769C32 0.866886 31.9768 0.431619 31.9404 1.4726e-14C31.2481 8.13021 24.3185 14.3835 16 14.3846L16 14.3846Z" transform="translate(306 123.2918)" id="Path" fill="#2F2E41" stroke="none" />
        <path d="M1.35622 6.19987C2.10523 6.19987 2.71243 4.81199 2.71243 3.09994C2.71243 1.38789 2.10523 0 1.35622 0C0.607199 0 -3.8546e-14 1.38789 0 3.09994C7.7092e-14 4.81199 0.607199 6.19987 1.35622 6.19987Z" transform="matrix(0.9726402 -0.2323168 0.2323168 0.9726402 302.6298 159.595)" id="Oval" fill="#FFB8B8" stroke="none" />
        <path d="M1 2C1.55228 2 2 1.55228 2 1C2 0.447715 1.55228 0 1 0C0.447715 0 0 0.447715 0 1C0 1.55228 0.447715 2 1 2Z" transform="translate(304 163.2918)" id="Oval" fill="#F2F2F2" stroke="none" />
        <path d="M0 6.5C0 10.0899 2.91015 13 6.5 13C10.0882 12.996 12.996 10.0882 13 6.5C13 2.91015 10.0899 0 6.5 0C2.91015 0 0 2.91015 0 6.5ZM1.08333 6.5C1.08333 3.50846 3.50846 1.08333 6.5 1.08333C9.49012 1.08675 11.9132 3.50988 11.9167 6.5C11.9167 9.49154 9.49154 11.9167 6.5 11.9167C3.50846 11.9167 1.08333 9.49154 1.08333 6.5Z" transform="translate(115 218.2918)" id="Shape" fill="#3F3D56" fill-rule="evenodd" stroke="none" />
        <path d="M0 14L14 14L14 0L0 0L0 14ZM12.9231 12.9231L1.07692 12.9231L1.07692 1.07692L12.9231 1.07692L12.9231 12.9231Z" transform="translate(379 171.2918)" id="Shape" fill="#3F3D56" fill-rule="evenodd" stroke="none" />
        <path d="M44.0802 21.5326C19.7797 21.6437 0 22 0 22C0 22 23.5112 -8.9058 43.992 2.54458C64.4728 13.995 88 21.5975 88 21.5975C88 21.5975 68.3807 21.4214 44.0802 21.5326Z" transform="translate(467 236.2918)" id="Path" fill="#F2F2F2" stroke="none" />
        <path d="M44.0802 21.5326C19.7797 21.6437 0 22 0 22C0 22 23.5112 -8.9058 43.992 2.54458C64.4728 13.995 88 21.5975 88 21.5975C88 21.5975 68.3807 21.4214 44.0802 21.5326Z" transform="translate(392 131.2918)" id="Path" fill="#F2F2F2" stroke="none" />
        <path d="M60.3577 80.1329L4.23627 51.1611C0.403868 49.1826 -1.10537 44.4598 0.8653 40.6123L14.0868 14.7991C14.4748 14.0416 15.1559 13.4774 15.9705 13.239L60.2049 0.290408C63.8774 -0.78463 67.7459 1.21242 69.0114 4.83664L83.545 46.4575C84.2788 48.5587 84.1199 50.8704 83.1056 52.8506L70.8651 76.7487C69.9188 78.5963 68.2801 79.9909 66.3096 80.6255C64.339 81.2602 62.1981 81.083 60.3577 80.1329L60.3577 80.1329Z" transform="translate(146 86.29179)" id="Path" fill="#F2F2F2" stroke="none" />
        <path d="M57.3468 54.576L0.805467 30.3349C-1.01636 29.3941 0.691908 30.8402 1.62871 29.0107L8.73634 0L78 35.7674L60.4893 57.5108C59.5525 59.3404 59.1686 55.5168 57.3468 54.576Z" transform="translate(151 102.2918)" id="Path" fill="#000000" fill-opacity="0.1" stroke="none" />
        <g id="Group" transform="translate(0 0.2917847)" />
        <path d="M8.18496 -3.90357e-13L49.8223 -2.79413e-13Q50.0232 -2.78878e-13 50.2239 0.00985914Q50.4246 0.0197183 50.6245 0.0394128Q50.8245 0.0591073 51.0233 0.0885898Q51.222 0.118072 51.4191 0.157272Q51.6161 0.196471 51.8111 0.245293Q52.006 0.294115 52.1982 0.352442Q52.3905 0.410768 52.5797 0.478459Q52.7689 0.54615 52.9545 0.623043Q53.1401 0.699935 53.3218 0.785844Q53.5034 0.871752 53.6806 0.96647Q53.8578 1.06119 54.0302 1.16449Q54.2025 1.26778 54.3696 1.37941Q54.5367 1.49104 54.698 1.61074Q54.8594 1.73043 55.0148 1.8579Q55.1701 1.98537 55.319 2.1203Q55.4678 2.25524 55.6099 2.39732Q55.752 2.5394 55.8869 2.68828Q56.0219 2.83716 56.1493 2.99248Q56.2768 3.1478 56.3965 3.30918Q56.5162 3.47057 56.6278 3.63764Q56.7394 3.80471 56.8427 3.97705Q56.946 4.14939 57.0408 4.3266Q57.1355 4.5038 57.2214 4.68544Q57.3073 4.86708 57.3842 5.05271Q57.4611 5.23835 57.5288 5.42753Q57.5965 5.61671 57.6548 5.80899Q57.7131 6.00127 57.7619 6.19618Q57.8108 6.39108 57.85 6.58815Q57.8892 6.78522 57.9186 6.98398Q57.9481 7.18273 57.9678 7.38269Q57.9875 7.58266 57.9974 7.78334Q58.0072 7.98403 58.0072 8.18496L58.0072 49.8223Q58.0072 50.0232 57.9974 50.2239Q57.9875 50.4246 57.9678 50.6245Q57.9481 50.8245 57.9186 51.0232Q57.8892 51.222 57.85 51.4191Q57.8108 51.6161 57.7619 51.8111Q57.7131 52.006 57.6548 52.1982Q57.5965 52.3905 57.5288 52.5797Q57.4611 52.7689 57.3842 52.9545Q57.3073 53.1401 57.2214 53.3218Q57.1355 53.5034 57.0408 53.6806Q56.946 53.8578 56.8427 54.0302Q56.7394 54.2025 56.6278 54.3696Q56.5162 54.5367 56.3965 54.698Q56.2768 54.8594 56.1493 55.0147Q56.0219 55.1701 55.8869 55.3189Q55.752 55.4678 55.6099 55.6099Q55.4678 55.752 55.3189 55.8869Q55.1701 56.0219 55.0147 56.1493Q54.8594 56.2768 54.698 56.3965Q54.5367 56.5162 54.3696 56.6278Q54.2025 56.7394 54.0302 56.8427Q53.8578 56.946 53.6806 57.0408Q53.5034 57.1355 53.3218 57.2214Q53.1401 57.3073 52.9545 57.3842Q52.7689 57.4611 52.5797 57.5288Q52.3905 57.5965 52.1982 57.6548Q52.006 57.7131 51.8111 57.7619Q51.6161 57.8107 51.4191 57.8499Q51.222 57.8891 51.0233 57.9186Q50.8245 57.9481 50.6245 57.9678Q50.4246 57.9875 50.2239 57.9974Q50.0232 58.0072 49.8223 58.0072L8.18496 58.0072Q7.98403 58.0072 7.78334 57.9974Q7.58266 57.9875 7.38269 57.9678Q7.18273 57.9481 6.98398 57.9186Q6.78522 57.8891 6.58815 57.8499Q6.39108 57.8107 6.19618 57.7619Q6.00127 57.7131 5.80899 57.6548Q5.61671 57.5964 5.42753 57.5288Q5.23835 57.4611 5.05271 57.3842Q4.86708 57.3073 4.68544 57.2214Q4.5038 57.1355 4.3266 57.0407Q4.14939 56.946 3.97705 56.8427Q3.80471 56.7394 3.63764 56.6278Q3.47057 56.5162 3.30918 56.3965Q3.1478 56.2768 2.99248 56.1493Q2.83716 56.0219 2.68828 55.8869Q2.5394 55.752 2.39732 55.6099Q2.25524 55.4678 2.1203 55.3189Q1.98537 55.1701 1.8579 55.0147Q1.73043 54.8594 1.61074 54.698Q1.49104 54.5366 1.37941 54.3696Q1.26778 54.2025 1.16449 54.0302Q1.06119 53.8578 0.96647 53.6806Q0.871752 53.5034 0.785844 53.3218Q0.699935 53.1401 0.623043 52.9545Q0.54615 52.7689 0.478459 52.5797Q0.410768 52.3905 0.352442 52.1982Q0.294115 52.006 0.245293 51.8111Q0.196471 51.6161 0.157272 51.4191Q0.118072 51.222 0.0885898 51.0232Q0.0591073 50.8245 0.0394128 50.6245Q0.0197183 50.4246 0.00985914 50.2239Q3.08238e-13 50.0232 3.08216e-13 49.8223L3.03593e-13 8.18496Q3.03571e-13 7.98403 0.00985914 7.78334Q0.0197183 7.58266 0.0394128 7.38269Q0.0591073 7.18273 0.0885898 6.98398Q0.118072 6.78522 0.157272 6.58815Q0.196471 6.39108 0.245293 6.19618Q0.294115 6.00127 0.352442 5.80899Q0.410768 5.61671 0.478459 5.42753Q0.54615 5.23835 0.623043 5.05271Q0.699935 4.86708 0.785844 4.68544Q0.871752 4.5038 0.96647 4.3266Q1.06119 4.14939 1.16449 3.97705Q1.26778 3.80471 1.37941 3.63764Q1.49104 3.47057 1.61074 3.30918Q1.73043 3.1478 1.8579 2.99248Q1.98537 2.83716 2.1203 2.68828Q2.25524 2.5394 2.39732 2.39732Q2.5394 2.25524 2.68828 2.1203Q2.83716 1.98537 2.99248 1.8579Q3.1478 1.73043 3.30918 1.61074Q3.47057 1.49104 3.63764 1.37941Q3.80471 1.26778 3.97705 1.16449Q4.14939 1.06119 4.3266 0.96647Q4.5038 0.871752 4.68544 0.785844Q4.86708 0.699935 5.05271 0.623043Q5.23835 0.54615 5.42753 0.478459Q5.61671 0.410768 5.80899 0.352442Q6.00127 0.294115 6.19618 0.245293Q6.39108 0.196471 6.58815 0.157272Q6.78522 0.118072 6.98398 0.0885898Q7.18273 0.0591073 7.38269 0.0394128Q7.58266 0.0197183 7.78334 0.00985914Q7.98403 -3.90892e-13 8.18496 -3.90357e-13Z" transform="matrix(0.4572965 -0.8893143 0.8893143 0.4572965 153.8766 136.189)" id="Rectangle" fill="#111B47" stroke="none" />
        <path d="M66 26.5855L51.458 55L0 28.4139L14.542 0L33.8767 25.7877L66 26.5855L66 26.5855Z" transform="translate(154 107.2918)" id="Path" fill="#000000" fill-opacity="0.1" stroke="none" />
        <path d="M42.2515 33.6568L17.2877 0.602164C16.9738 0.186555 16.4677 -0.0388343 15.948 0.00551343C15.4282 0.0498612 14.9678 0.357713 14.7293 0.820456L0.523821 28.376C-0.0501436 29.4894 -0.157191 30.7846 0.226228 31.9767C0.609647 33.1688 1.45213 34.1601 2.56833 34.7326L64.4604 66.4775C65.5766 67.05 66.8751 67.1568 68.0702 66.7743C69.2653 66.3919 70.2592 65.5516 70.8331 64.4382L84.7953 37.3547C85.0864 36.79 85.0659 36.1157 84.741 35.5696C84.4162 35.0236 83.8326 34.6826 83.1963 34.6668L42.2515 33.6568Z" transform="translate(145 101.2918)" id="Path" fill="#F2F2F2" stroke="none" />
        <path d="M1.44084e-13 6.18905e-14L16.2224 6.49468e-14L16.2224 2.29408L2.88167e-14 2.29408L1.44084e-13 6.18905e-14Z" transform="matrix(0.8893143 0.4572965 -0.4572965 0.8893143 182.4124 91.62389)" id="Rectangle" fill="#F2F2F2" stroke="none" />
        <path d="M4.27884e-14 2.20055e-13L48.1755 2.14233e-13L48.1755 1.3109L4.27884e-14 1.3109L4.27884e-14 2.20055e-13Z" transform="matrix(0.8893143 0.4572965 -0.4572965 0.8893143 177.425 98.45639)" id="Rectangle" fill="#F2F2F2" stroke="none" />
        <path d="M0 3.95866e-14L48.1755 -8.15018e-15L48.1755 1.3109L0 1.3109L0 3.95866e-14Z" transform="matrix(0.8893143 0.4572965 -0.4572965 0.8893143 175.4018 102.391)" id="Rectangle" fill="#F2F2F2" stroke="none" />
        <path d="M0 1.37389e-13L48.1755 6.05442e-14L48.1755 1.3109L0 1.3109L0 1.37389e-13Z" transform="matrix(0.8893143 0.4572965 -0.4572965 0.8893143 173.3786 106.3255)" id="Rectangle" fill="#F2F2F2" stroke="none" />
        <path d="M6.73058 13.4367C10.4478 13.4367 13.4612 10.4288 13.4612 6.71835C13.4612 3.00791 10.4478 9.54735e-14 6.73058 0C3.01338 2.38684e-14 -1.01859e-13 3.00791 -9.12105e-14 6.71835C-7.99551e-14 10.4288 3.01338 13.4367 6.73058 13.4367Z" transform="matrix(0.4572965 -0.8893143 0.8893143 0.4572965 173.0458 89.41456)" id="Oval" fill="#FFFFFF" stroke="none" />
        <path d="M0.887429 4.3424C2.90849 0.413987 7.73311 -1.13306 11.6635 0.886976C15.5833 2.91605 17.1278 7.72806 15.1207 11.6576C13.0996 15.586 8.27501 17.1331 4.3446 15.113C0.414194 13.093 -1.13363 8.27081 0.887429 4.3424ZM2.82017 5.52166L4.59197 11.0416L14.5408 7.85717L14.0438 6.30889L5.64572 9.00179L4.36923 5.02494L2.82017 5.52166Z" transform="translate(174 78.29179)" id="Shape" fill="#57B894" fill-rule="evenodd" stroke="none" />
    </g>
</svg>