<?xml version="1.0" encoding="utf-8"?>
<svg width="36px" height="36px" viewBox="0 0 36 36" version="1.1" 
    xmlns:xlink="http://www.w3.org/1999/xlink" 
    xmlns="http://www.w3.org/2000/svg">
    <desc>Created with Lunacy</desc>
    <g id="Icon">
        <path d="M35.6226 22.2404C35.3938 22.1495 35.1326 22.2063 34.9626 22.3843L32.4001 25.0777L32.4001 9.07928L32.4031 9.07928L34.8481 6.43938C35.073 6.19631 35.0582 5.81648 34.8148 5.59154L34.8143 5.59099L33.9343 4.772L35.1571 3.45204C35.3817 3.20871 35.3666 2.82914 35.1233 2.60448L32.4833 0.159575C32.2402 -0.0653605 31.8606 -0.0508041 31.6357 0.192533L27.3697 4.79864L6.60004 4.79864C6.59811 3.14252 5.25613 1.80059 3.59995 1.79867L3.00009 1.79867C1.3439 1.80059 0.00192261 3.14252 0 4.79864L0 30.5976C0 30.9288 0.268616 31.1974 0.600128 31.1974L9.6828 31.1974L8.42267 32.7105C8.21091 32.9653 8.24551 33.3435 8.50012 33.5553L11.2668 35.8587C11.5214 36.0708 11.8998 36.0362 12.1119 35.7816L12.1122 35.7813L15.1831 32.0919C15.3951 31.8365 15.5316 31.5264 15.5767 31.1974L26.571 31.1974L22.965 34.984C22.7368 35.224 22.7464 35.6039 22.9864 35.8321C23.0979 35.9381 23.246 35.9974 23.4001 35.9972L35.3999 35.9972C35.7314 35.9972 36 35.7285 36 35.3973L36 22.7979C36 22.5524 35.8506 22.3315 35.6226 22.2404ZM32.1067 1.44657L33.8681 3.07605L33.0529 3.95849L31.2913 2.32736L32.1067 1.44657ZM3.59995 2.9986L3.00009 2.9986C2.00583 2.9986 1.19998 3.80441 1.19998 4.79864L1.19998 27.6133C1.71634 27.2161 2.3486 26.9997 3.00009 26.9975L3.59995 26.9975C4.25116 26.9997 4.8837 27.2161 5.40005 27.6133L5.40005 4.79864C5.40005 3.80441 4.59421 2.9986 3.59995 2.9986ZM31.2001 5.9516L31.2001 5.96012L26.1258 11.444L24.3636 9.81369L30.4763 3.20788L32.2386 4.83819L31.2072 5.9516L31.2001 5.9516ZM32.4001 7.31303L33.5599 6.05844L33.1199 5.65059L32.4001 6.43059L32.4001 7.31303ZM14.9513 29.5572C15.0988 29.6827 15.2249 29.8313 15.3246 29.9975L27.7141 29.9975L31.2001 26.3375L31.2001 7.72692L26.6004 12.6978C26.5487 12.7508 26.4878 12.7939 26.4205 12.8244C26.4043 12.8323 26.3886 12.84 26.3735 12.8455C26.3587 12.8507 26.3455 12.8598 26.3298 12.8647L22.9697 13.8439C22.8755 13.8713 22.7758 13.8752 22.6794 13.8551C22.355 13.7876 22.1468 13.4698 22.2144 13.1454L22.9307 9.72086C22.9351 9.70163 22.9441 9.68351 22.9499 9.66565C22.9559 9.64753 22.9614 9.63132 22.9686 9.61402C22.9936 9.55003 23.0298 9.4907 23.0754 9.43934L26.2595 5.99857L6.60004 5.99857L6.60004 29.9975L10.6801 29.9975L11.4942 29.0214C12.1303 28.2573 13.2652 28.1538 14.0293 28.7899L14.9513 29.5572ZM17.3999 9.59837L18.6001 9.59837L18.6001 10.7983L17.3999 10.7983L17.3999 9.59837ZM23.5931 12.414L24.9733 12.0114L23.8878 11.0065L23.5931 12.414ZM26.3999 22.7979L22.2001 22.7979L22.2001 16.1981C22.1992 16.0388 22.1358 15.8861 22.0235 15.7733L18.4235 12.1735C18.1892 11.9392 17.8094 11.9392 17.5751 12.1735L13.9752 15.7733C13.8634 15.8864 13.8005 16.0391 13.7999 16.1981L13.7999 22.7979L9.60013 22.7979C9.26862 22.7979 9 23.0665 9 23.3977C9 23.7292 9.26862 23.9978 9.60013 23.9978L26.4001 23.9978C26.7314 23.9978 27 23.7292 27 23.3977C27 23.0665 26.7314 22.7979 26.3999 22.7979ZM20.1517 15.598L18 13.4464L15.8483 15.598L20.1517 15.598ZM21.0001 16.798L21.0001 22.7979L14.9999 22.7979L14.9999 16.798L21.0001 16.798ZM34.8 34.7972L24.7997 34.7972L34.8 24.2977L34.8 34.7972ZM18.6001 26.3977L18.6001 25.1978L17.3999 25.1978L17.3999 26.3977L18.6001 26.3977ZM3.00009 28.1975L3.59995 28.1975C4.59421 28.1975 5.40005 29.0035 5.40005 29.9975L1.19998 29.9975C1.19998 29.0035 2.00583 28.1975 3.00009 28.1975ZM28.8001 33.5973C28.5573 33.5973 28.3384 33.4512 28.2456 33.2271C28.1527 33.003 28.2041 32.7448 28.3758 32.5731L32.5758 28.3735C32.6882 28.2609 32.8409 28.1977 32.9999 28.1977C33.3311 28.1977 33.6 28.4661 33.6 28.7976L33.6 32.9975C33.6 33.3287 33.3314 33.5973 32.9999 33.5973L28.8001 33.5973ZM13.8774 31.7854L14.2614 31.3246L14.2614 31.3229L14.2619 31.3224C14.4737 31.0675 14.4388 30.6893 14.1839 30.4776L13.2619 29.7119L13.2613 29.7116C13.0067 29.4996 12.6285 29.5342 12.4165 29.7888L12.0331 30.2502L13.8774 31.7854ZM32.4001 32.3974L32.4001 30.2458L30.2484 32.3974L32.4001 32.3974ZM11.5741 34.5525L9.72949 33.0172L11.2651 31.1722L13.1094 32.7077L11.5741 34.5525Z" transform="translate(0 -1.46952E-05)" id="Combined-Shape" fill="#000000" fill-rule="evenodd" stroke="none" />
    </g>
</svg>