<?xml version="1.0" encoding="utf-8"?>
<svg width="542px" height="390px" viewBox="0 0 542 390" version="1.1" 
    xmlns:xlink="http://www.w3.org/1999/xlink" 
    xmlns="http://www.w3.org/2000/svg">
    <desc>Created with Lunacy</desc>
    <g id="undraw_social_influencer_sgsv" transform="translate(1 1)">
        <path d="M180 153.723C180 221.377 139.706 245 90 245C40.2944 245 0 221.377 0 153.723C0 86.0676 90 0 90 0C90 0 180 86.0677 180 153.723Z" transform="translate(360 79.76147)" id="Path" fill="#F2F2F2" stroke="none" />
        <path d="M35.955 234.877L36.8709 178.202L75 108.086L37.0146 169.311L37.4265 143.827L63.7046 93.0992L37.5351 137.083L37.5351 137.084L38.2761 91.2496L66.4156 50.8637L38.3923 84.0426L38.8552 0L35.9468 111.257L36.1859 106.668L7.57634 62.6498L35.7268 115.478L33.0614 166.666L32.9818 165.308L0 118.985L32.882 170.107L32.5486 176.509L32.4888 176.605L32.5162 177.131L25.7532 307L34.789 307L35.8733 239.92L68.6747 188.923L35.955 234.877L35.955 234.877Z" transform="translate(411 79.76147)" id="Path" fill="#3F3D56" stroke="none" />
        <path d="M49 41.411C49 59.6364 38.031 66 24.5 66C10.969 66 0 59.6364 0 41.411C0 23.1856 24.5 0 24.5 0C24.5 0 49 23.1856 49 41.411Z" transform="translate(0 304.7615)" id="Path" fill="#F2F2F2" stroke="none" />
        <path d="M9.58814 63.5011L9.83207 48.1784L20 29.2218L9.87047 45.7742L9.98026 38.8848L16.988 25.1697L10.0095 37.0615L10.0095 37.0615L10.2069 24.6698L17.7111 13.7514L10.2382 22.7215L10.3616 0L9.58598 30.0789L9.64926 28.8382L2.02007 16.9376L9.52703 31.2204L8.81636 45.0594L8.79526 44.6923L0 32.1683L8.76822 45.9897L8.67952 47.7204L8.66384 47.7463L8.67087 47.8885L6.86714 83L9.27716 83L9.56597 64.8641L18.3136 51.0769L9.58814 63.5011L9.58814 63.5011Z" transform="translate(14 303.7615)" id="Path" fill="#3F3D56" stroke="none" />
        <path d="M0 0.5L489 0.5" transform="translate(3 386.7615)" id="Path" fill="none" stroke="#3F3D56" stroke-width="2" />
        <path d="M33 28.2347C33 40.6611 25.6131 45 16.5 45C16.2889 45 16.0781 44.9977 15.8677 44.993C15.4454 44.9839 15.0272 44.9638 14.6141 44.9357C6.3897 44.3536 0 39.7916 0 28.2347C0 16.2747 15.2836 1.18324 16.4316 0.066345L16.4336 0.0643429C16.4779 0.0211158 16.5 0 16.5 0C16.5 0 33 15.8083 33 28.2347Z" transform="translate(460 342.7615)" id="Path" fill="#111B47" stroke="none" />
        <path d="M6.71158 43.1057L12.8188 34.672L6.69632 44.0317L6.68005 45C6.25275 44.9909 5.82952 44.9708 5.41138 44.9427L6.06963 32.5083L6.06454 32.4118L6.07573 32.3937L6.13779 31.2193L0 21.8364L6.15711 30.3385L6.17137 30.5879L6.66884 21.1929L1.41415 11.4974L6.73294 19.544L7.25078 0.0663774L7.25281 0L7.25281 0.0643529L7.16634 15.4236L12.3976 9.33459L7.14498 16.7468L7.00662 25.1584L11.891 17.0856L6.98628 26.3961L6.90896 31.0724L14 19.8365L6.8825 32.7043L6.71158 43.1057Z" transform="translate(469 342.7615)" id="Path" fill="#3F3D56" stroke="none" />
        <path d="M2.29066 0L3.70934 0Q3.82187 0 3.93386 0.0110302Q4.04586 0.0220603 4.15623 0.0440144Q4.2666 0.0659685 4.37428 0.098635Q4.48197 0.131302 4.58594 0.174366Q4.6899 0.217431 4.78915 0.270478Q4.88839 0.323526 4.98196 0.386046Q5.07553 0.448566 5.16252 0.519956Q5.24951 0.591346 5.32908 0.670919Q5.40865 0.750492 5.48004 0.837481Q5.55143 0.92447 5.61395 1.01804Q5.67647 1.11161 5.72952 1.21085Q5.78257 1.3101 5.82563 1.41406Q5.8687 1.51803 5.90136 1.62572Q5.93403 1.7334 5.95598 1.84377Q5.97794 1.95415 5.98897 2.06614Q6 2.17813 6 2.29066L6 44.7093Q6 44.8219 5.98897 44.9339Q5.97794 45.0459 5.95598 45.1562Q5.93403 45.2666 5.90136 45.3743Q5.8687 45.482 5.82563 45.5859Q5.78257 45.6899 5.72952 45.7892Q5.67647 45.8884 5.61395 45.982Q5.55143 46.0755 5.48004 46.1625Q5.40865 46.2495 5.32908 46.3291Q5.24951 46.4087 5.16252 46.4801Q5.07553 46.5514 4.98196 46.614Q4.88839 46.6765 4.78915 46.7295Q4.6899 46.7826 4.58594 46.8256Q4.48197 46.8687 4.37428 46.9014Q4.2666 46.934 4.15622 46.956Q4.04585 46.9779 3.93386 46.989Q3.82187 47 3.70934 47L2.29066 47Q2.17813 47 2.06614 46.989Q1.95415 46.9779 1.84377 46.956Q1.7334 46.934 1.62572 46.9014Q1.51803 46.8687 1.41406 46.8256Q1.3101 46.7826 1.21085 46.7295Q1.11161 46.6765 1.01804 46.614Q0.92447 46.5514 0.837481 46.4801Q0.750492 46.4087 0.670919 46.3291Q0.591346 46.2495 0.519956 46.1625Q0.448566 46.0755 0.386046 45.982Q0.323526 45.8884 0.270478 45.7892Q0.217431 45.6899 0.174366 45.5859Q0.131302 45.482 0.098635 45.3743Q0.0659685 45.2666 0.0440144 45.1562Q0.0220603 45.0459 0.0110302 44.9339Q0 44.8219 0 44.7093L0 2.29066Q0 2.17813 0.0110302 2.06614Q0.0220603 1.95415 0.0440144 1.84377Q0.0659685 1.7334 0.098635 1.62572Q0.131302 1.51803 0.174366 1.41406Q0.217431 1.3101 0.270478 1.21085Q0.323526 1.11161 0.386046 1.01804Q0.448566 0.92447 0.519956 0.837481Q0.591346 0.750492 0.670919 0.670919Q0.750492 0.591346 0.837481 0.519956Q0.92447 0.448566 1.01804 0.386046Q1.11161 0.323526 1.21085 0.270478Q1.3101 0.217431 1.41406 0.174366Q1.51803 0.131302 1.62572 0.098635Q1.7334 0.0659685 1.84377 0.0440144Q1.95415 0.0220603 2.06614 0.0110302Q2.17813 0 2.29066 0Z" transform="translate(313 88.76147)" id="Rectangle" fill="#3F3D56" stroke="none" />
        <path d="M1.499 0L1.501 0Q1.57464 0 1.64793 0.00721809Q1.72121 0.0144362 1.79344 0.0288029Q1.86567 0.0431695 1.93614 0.0645464Q2.00661 0.0859233 2.07464 0.114105Q2.14268 0.142286 2.20762 0.177Q2.27257 0.211714 2.3338 0.252627Q2.39503 0.29354 2.45196 0.340257Q2.50888 0.386975 2.56095 0.439047Q2.61303 0.491119 2.65974 0.548044Q2.70646 0.60497 2.74737 0.6662Q2.78829 0.727431 2.823 0.792376Q2.85771 0.857322 2.8859 0.925357Q2.91408 0.993393 2.93545 1.06386Q2.95683 1.13433 2.9712 1.20656Q2.98556 1.27879 2.99278 1.35207Q3 1.42536 3 1.499L3 13.501Q3 13.5746 2.99278 13.6479Q2.98556 13.7212 2.9712 13.7934Q2.95683 13.8657 2.93545 13.9361Q2.91408 14.0066 2.8859 14.0746Q2.85771 14.1427 2.823 14.2076Q2.78829 14.2726 2.74737 14.3338Q2.70646 14.395 2.65974 14.452Q2.61303 14.5089 2.56095 14.561Q2.50888 14.613 2.45196 14.6597Q2.39503 14.7065 2.3338 14.7474Q2.27257 14.7883 2.20762 14.823Q2.14268 14.8577 2.07464 14.8859Q2.00661 14.9141 1.93614 14.9355Q1.86567 14.9568 1.79344 14.9712Q1.72121 14.9856 1.64793 14.9928Q1.57464 15 1.501 15L1.499 15Q1.42536 15 1.35207 14.9928Q1.27879 14.9856 1.20656 14.9712Q1.13433 14.9568 1.06386 14.9355Q0.993393 14.9141 0.925357 14.8859Q0.857322 14.8577 0.792376 14.823Q0.727431 14.7883 0.6662 14.7474Q0.60497 14.7065 0.548044 14.6597Q0.491119 14.613 0.439047 14.561Q0.386975 14.5089 0.340257 14.452Q0.29354 14.395 0.252627 14.3338Q0.211714 14.2726 0.177 14.2076Q0.142286 14.1427 0.114105 14.0746Q0.0859233 14.0066 0.0645464 13.9361Q0.0431695 13.8657 0.0288029 13.7934Q0.0144362 13.7212 0.00721809 13.6479Q0 13.5746 0 13.501L0 1.499Q0 1.42536 0.00721809 1.35207Q0.0144362 1.27879 0.0288029 1.20656Q0.0431695 1.13433 0.0645464 1.06386Q0.0859233 0.993393 0.114105 0.925357Q0.142286 0.857322 0.177 0.792376Q0.211714 0.727431 0.252627 0.6662Q0.29354 0.60497 0.340257 0.548044Q0.386975 0.491119 0.439047 0.439047Q0.491119 0.386975 0.548044 0.340257Q0.60497 0.29354 0.6662 0.252627Q0.727431 0.211714 0.792376 0.177Q0.857322 0.142286 0.925357 0.114105Q0.993393 0.0859233 1.06386 0.0645464Q1.13433 0.0431695 1.20656 0.0288029Q1.27879 0.0144362 1.35207 0.00721809Q1.42536 0 1.499 0L1.499 0Z" transform="translate(124 51.76147)" id="Rectangle" fill="#3F3D56" stroke="none" />
        <path d="M1.6936 0L2.3064 0Q2.3896 0 2.4724 0.00815515Q2.5552 0.0163103 2.6368 0.032542Q2.71841 0.0487738 2.79803 0.0729258Q2.87764 0.0970779 2.95451 0.128918Q3.03138 0.160757 3.10476 0.199978Q3.17813 0.239199 3.24731 0.285423Q3.31649 0.331647 3.38081 0.384429Q3.44512 0.437212 3.50396 0.496044Q3.56279 0.554876 3.61557 0.619192Q3.66835 0.683507 3.71458 0.752686Q3.7608 0.821865 3.80002 0.895242Q3.83924 0.968619 3.87108 1.04549Q3.90292 1.12236 3.92707 1.20197Q3.95123 1.28159 3.96746 1.36319Q3.98369 1.4448 3.99184 1.5276Q4 1.6104 4 1.6936L4 25.3064Q4 25.3896 3.99184 25.4724Q3.98369 25.5552 3.96746 25.6368Q3.95123 25.7184 3.92707 25.798Q3.90292 25.8776 3.87108 25.9545Q3.83924 26.0314 3.80002 26.1048Q3.7608 26.1781 3.71458 26.2473Q3.66835 26.3165 3.61557 26.3808Q3.56279 26.4451 3.50396 26.504Q3.44512 26.5628 3.38081 26.6156Q3.31649 26.6684 3.24731 26.7146Q3.17813 26.7608 3.10476 26.8Q3.03138 26.8392 2.95451 26.8711Q2.87764 26.9029 2.79803 26.9271Q2.71841 26.9512 2.6368 26.9675Q2.5552 26.9837 2.4724 26.9918Q2.3896 27 2.3064 27L1.6936 27Q1.6104 27 1.5276 26.9918Q1.4448 26.9837 1.36319 26.9675Q1.28159 26.9512 1.20197 26.9271Q1.12236 26.9029 1.04549 26.8711Q0.968619 26.8392 0.895242 26.8Q0.821865 26.7608 0.752686 26.7146Q0.683507 26.6684 0.619192 26.6156Q0.554876 26.5628 0.496044 26.504Q0.437212 26.4451 0.38443 26.3808Q0.331647 26.3165 0.285423 26.2473Q0.239199 26.1781 0.199978 26.1048Q0.160757 26.0314 0.128918 25.9545Q0.0970779 25.8776 0.0729258 25.798Q0.0487738 25.7184 0.032542 25.6368Q0.0163103 25.5552 0.00815515 25.4724Q0 25.3896 0 25.3064L0 1.6936Q0 1.6104 0.00815515 1.5276Q0.0163103 1.4448 0.032542 1.36319Q0.0487738 1.28159 0.0729258 1.20197Q0.0970779 1.12236 0.128918 1.04549Q0.160757 0.968619 0.199978 0.895242Q0.239199 0.821865 0.285423 0.752686Q0.331647 0.683507 0.384429 0.619192Q0.437212 0.554876 0.496044 0.496044Q0.554876 0.437212 0.619192 0.38443Q0.683507 0.331647 0.752686 0.285423Q0.821865 0.239199 0.895242 0.199978Q0.968619 0.160757 1.04549 0.128918Q1.12236 0.0970779 1.20197 0.0729258Q1.28159 0.0487738 1.36319 0.032542Q1.4448 0.0163103 1.5276 0.00815515Q1.6104 0 1.6936 0Z" transform="translate(124 79.76147)" id="Rectangle" fill="#3F3D56" stroke="none" />
        <path d="M1.499 0L1.501 0Q1.57464 0 1.64793 0.00721809Q1.72121 0.0144362 1.79344 0.0288029Q1.86567 0.0431695 1.93614 0.0645464Q2.00661 0.0859233 2.07464 0.114105Q2.14268 0.142286 2.20762 0.177Q2.27257 0.211714 2.3338 0.252627Q2.39503 0.29354 2.45196 0.340257Q2.50888 0.386975 2.56095 0.439047Q2.61303 0.491119 2.65974 0.548044Q2.70646 0.60497 2.74737 0.6662Q2.78829 0.727431 2.823 0.792376Q2.85771 0.857322 2.8859 0.925357Q2.91408 0.993393 2.93545 1.06386Q2.95683 1.13433 2.9712 1.20656Q2.98556 1.27879 2.99278 1.35207Q3 1.42536 3 1.499L3 25.501Q3 25.5746 2.99278 25.6479Q2.98556 25.7212 2.9712 25.7934Q2.95683 25.8657 2.93545 25.9361Q2.91408 26.0066 2.8859 26.0746Q2.85771 26.1427 2.823 26.2076Q2.78829 26.2726 2.74737 26.3338Q2.70646 26.395 2.65974 26.452Q2.61303 26.5089 2.56095 26.561Q2.50888 26.613 2.45196 26.6597Q2.39503 26.7065 2.3338 26.7474Q2.27257 26.7883 2.20762 26.823Q2.14268 26.8577 2.07464 26.8859Q2.00661 26.9141 1.93614 26.9355Q1.86567 26.9568 1.79344 26.9712Q1.72121 26.9856 1.64793 26.9928Q1.57464 27 1.501 27L1.499 27Q1.42536 27 1.35207 26.9928Q1.27879 26.9856 1.20656 26.9712Q1.13433 26.9568 1.06386 26.9355Q0.993393 26.9141 0.925357 26.8859Q0.857322 26.8577 0.792376 26.823Q0.727431 26.7883 0.6662 26.7474Q0.60497 26.7065 0.548044 26.6597Q0.491119 26.613 0.439047 26.561Q0.386975 26.5089 0.340257 26.452Q0.29354 26.395 0.252627 26.3338Q0.211714 26.2726 0.177 26.2076Q0.142286 26.1427 0.114105 26.0746Q0.0859233 26.0066 0.0645464 25.9361Q0.0431695 25.8657 0.0288029 25.7934Q0.0144362 25.7212 0.00721809 25.6479Q0 25.5746 0 25.501L0 1.499Q0 1.42536 0.00721809 1.35207Q0.0144362 1.27879 0.0288029 1.20656Q0.0431695 1.13433 0.0645464 1.06386Q0.0859233 0.993393 0.114105 0.925357Q0.142286 0.857322 0.177 0.792376Q0.211714 0.727431 0.252627 0.6662Q0.29354 0.60497 0.340257 0.548044Q0.386975 0.491119 0.439047 0.439047Q0.491119 0.386975 0.548044 0.340257Q0.60497 0.29354 0.6662 0.252627Q0.727431 0.211714 0.792376 0.177Q0.857322 0.142286 0.925357 0.114105Q0.993393 0.0859233 1.06386 0.0645464Q1.13433 0.0431695 1.20656 0.0288029Q1.27879 0.0144362 1.35207 0.00721809Q1.42536 0 1.499 0L1.499 0Z" transform="translate(124 116.7615)" id="Rectangle" fill="#3F3D56" stroke="none" />
        <path d="M35.693 0L154.307 0Q155.183 0 156.058 0.0429937Q156.934 0.0859874 157.806 0.171871Q158.678 0.257755 159.544 0.386322Q160.411 0.514889 161.27 0.68583Q162.13 0.856771 162.98 1.06967Q163.83 1.28258 164.668 1.53693Q165.507 1.79128 166.332 2.08646Q167.157 2.38165 167.966 2.71696Q168.776 3.05228 169.568 3.42691Q170.36 3.80153 171.133 4.21458Q171.905 4.62762 172.657 5.07809Q173.408 5.52855 174.137 6.01535Q174.866 6.50214 175.569 7.0241Q176.273 7.54606 176.95 8.10193Q177.628 8.65779 178.277 9.24622Q178.926 9.83465 179.546 10.4542Q180.165 11.0738 180.754 11.723Q181.342 12.3723 181.898 13.0496Q182.454 13.7269 182.976 14.4307Q183.498 15.1345 183.985 15.863Q184.471 16.5916 184.922 17.3431Q185.372 18.0947 185.785 18.8674Q186.198 19.6402 186.573 20.4322Q186.948 21.2243 187.283 22.0338Q187.618 22.8434 187.914 23.6684Q188.209 24.4933 188.463 25.3318Q188.717 26.1703 188.93 27.0203Q189.143 27.8702 189.314 28.7296Q189.485 29.589 189.614 30.4557Q189.742 31.3224 189.828 32.1944Q189.914 33.0664 189.957 33.9416Q190 34.8167 190 35.693L190 350.307Q190 351.183 189.957 352.058Q189.914 352.934 189.828 353.806Q189.742 354.678 189.614 355.544Q189.485 356.411 189.314 357.27Q189.143 358.13 188.93 358.98Q188.717 359.83 188.463 360.668Q188.209 361.507 187.914 362.332Q187.618 363.157 187.283 363.966Q186.948 364.776 186.573 365.568Q186.198 366.36 185.785 367.133Q185.372 367.905 184.922 368.657Q184.471 369.408 183.985 370.137Q183.498 370.866 182.976 371.569Q182.454 372.273 181.898 372.95Q181.342 373.628 180.754 374.277Q180.165 374.926 179.546 375.546Q178.926 376.165 178.277 376.754Q177.628 377.342 176.95 377.898Q176.273 378.454 175.569 378.976Q174.866 379.498 174.137 379.985Q173.408 380.471 172.657 380.922Q171.905 381.372 171.133 381.785Q170.36 382.198 169.568 382.573Q168.776 382.948 167.966 383.283Q167.157 383.618 166.332 383.914Q165.507 384.209 164.668 384.463Q163.83 384.717 162.98 384.93Q162.13 385.143 161.27 385.314Q160.411 385.485 159.544 385.614Q158.678 385.742 157.806 385.828Q156.934 385.914 156.058 385.957Q155.183 386 154.307 386L35.693 386Q34.8167 386 33.9416 385.957Q33.0664 385.914 32.1944 385.828Q31.3224 385.742 30.4557 385.614Q29.589 385.485 28.7296 385.314Q27.8702 385.143 27.0203 384.93Q26.1703 384.717 25.3318 384.463Q24.4933 384.209 23.6684 383.914Q22.8434 383.618 22.0338 383.283Q21.2243 382.948 20.4322 382.573Q19.6402 382.198 18.8674 381.785Q18.0947 381.372 17.3431 380.922Q16.5916 380.471 15.863 379.985Q15.1345 379.498 14.4307 378.976Q13.7269 378.454 13.0496 377.898Q12.3723 377.342 11.723 376.754Q11.0738 376.165 10.4542 375.546Q9.83465 374.926 9.24622 374.277Q8.65779 373.628 8.10193 372.95Q7.54606 372.273 7.0241 371.569Q6.50214 370.866 6.01535 370.137Q5.52855 369.408 5.07809 368.657Q4.62762 367.905 4.21458 367.133Q3.80153 366.36 3.42691 365.568Q3.05228 364.776 2.71696 363.966Q2.38165 363.157 2.08646 362.332Q1.79128 361.507 1.53693 360.668Q1.28258 359.83 1.06967 358.98Q0.856771 358.13 0.68583 357.27Q0.514889 356.411 0.386322 355.544Q0.257755 354.678 0.171871 353.806Q0.0859874 352.934 0.0429937 352.058Q0 351.183 0 350.307L0 35.693Q0 34.8167 0.0429937 33.9416Q0.0859874 33.0664 0.171871 32.1944Q0.257755 31.3224 0.386322 30.4557Q0.514889 29.589 0.68583 28.7296Q0.856771 27.8702 1.06967 27.0203Q1.28258 26.1703 1.53693 25.3318Q1.79128 24.4933 2.08646 23.6684Q2.38165 22.8434 2.71696 22.0338Q3.05228 21.2243 3.42691 20.4322Q3.80153 19.6402 4.21458 18.8674Q4.62762 18.0947 5.07809 17.3431Q5.52855 16.5916 6.01535 15.863Q6.50214 15.1345 7.0241 14.4307Q7.54606 13.7269 8.10193 13.0496Q8.65779 12.3723 9.24622 11.723Q9.83465 11.0738 10.4542 10.4542Q11.0738 9.83465 11.723 9.24622Q12.3723 8.65779 13.0496 8.10193Q13.7269 7.54606 14.4307 7.0241Q15.1345 6.50214 15.863 6.01535Q16.5916 5.52855 17.3431 5.07809Q18.0947 4.62762 18.8674 4.21458Q19.6402 3.80153 20.4322 3.42691Q21.2243 3.05228 22.0338 2.71696Q22.8434 2.38165 23.6684 2.08646Q24.4933 1.79128 25.3318 1.53693Q26.1703 1.28258 27.0203 1.06967Q27.8702 0.856771 28.7296 0.68583Q29.589 0.514889 30.4557 0.386322Q31.3224 0.257755 32.1944 0.171871Q33.0664 0.0859874 33.9416 0.0429937Q34.8167 0 35.693 0Z" transform="translate(126 0.7614679)" id="Rectangle" fill="#3F3D56" stroke="none" />
        <path d="M2.499 0L24.501 0Q24.6238 0 24.7459 0.0120334Q24.8681 0.0240667 24.9885 0.0480176Q25.1089 0.0719684 25.2264 0.107606Q25.3439 0.143244 25.4573 0.190225Q25.5707 0.237206 25.679 0.295079Q25.7873 0.352951 25.8894 0.421157Q25.9914 0.489364 26.0863 0.567247Q26.1812 0.64513 26.2681 0.73194Q26.3549 0.81875 26.4328 0.913651Q26.5106 1.00855 26.5788 1.11063Q26.647 1.21271 26.7049 1.32098Q26.7628 1.42925 26.8098 1.54267Q26.8568 1.6561 26.8924 1.77358Q26.928 1.89106 26.952 2.01147Q26.9759 2.13188 26.988 2.25405Q27 2.37623 27 2.499L27 2.501Q27 2.62377 26.988 2.74594Q26.9759 2.86812 26.952 2.98853Q26.928 3.10894 26.8924 3.22642Q26.8568 3.3439 26.8098 3.45732Q26.7628 3.57075 26.7049 3.67902Q26.647 3.78729 26.5788 3.88937Q26.5106 3.99145 26.4328 4.08635Q26.3549 4.18125 26.2681 4.26806Q26.1812 4.35487 26.0863 4.43275Q25.9914 4.51064 25.8894 4.57884Q25.7873 4.64705 25.679 4.70492Q25.5707 4.76279 25.4573 4.80977Q25.3439 4.85675 25.2264 4.89239Q25.1089 4.92803 24.9885 4.95198Q24.8681 4.97593 24.7459 4.98797Q24.6238 5 24.501 5L2.499 5Q2.37623 5 2.25405 4.98797Q2.13188 4.97593 2.01147 4.95198Q1.89106 4.92803 1.77358 4.89239Q1.6561 4.85675 1.54267 4.80977Q1.42925 4.76279 1.32098 4.70492Q1.21271 4.64705 1.11063 4.57884Q1.00855 4.51064 0.913651 4.43275Q0.81875 4.35487 0.73194 4.26806Q0.64513 4.18125 0.567247 4.08635Q0.489364 3.99145 0.421157 3.88937Q0.352951 3.78729 0.295079 3.67902Q0.237206 3.57075 0.190225 3.45732Q0.143244 3.3439 0.107606 3.22642Q0.0719684 3.10894 0.0480176 2.98853Q0.0240667 2.86812 0.0120334 2.74594Q0 2.62377 0 2.501L0 2.499Q0 2.37623 0.0120334 2.25405Q0.0240667 2.13188 0.0480176 2.01147Q0.0719684 1.89106 0.107606 1.77358Q0.143244 1.6561 0.190225 1.54267Q0.237206 1.42925 0.295079 1.32098Q0.352951 1.21271 0.421157 1.11063Q0.489364 1.00855 0.567247 0.913651Q0.64513 0.81875 0.73194 0.73194Q0.81875 0.64513 0.913651 0.567247Q1.00855 0.489364 1.11063 0.421157Q1.21271 0.352951 1.32098 0.295079Q1.42925 0.237206 1.54267 0.190225Q1.6561 0.143244 1.77358 0.107606Q1.89106 0.0719684 2.01147 0.0480176Q2.13188 0.0240667 2.25405 0.0120334Q2.37623 0 2.499 0L2.499 0Z" transform="translate(202 12.76147)" id="Rectangle" fill="#E6E8EC" stroke="none" />
        <path d="M3 6C4.65685 6 6 4.65685 6 3C6 1.34315 4.65685 0 3 0C1.34315 0 0 1.34315 0 3C0 4.65685 1.34315 6 3 6Z" transform="translate(233 11.76147)" id="Oval" fill="#E6E8EC" stroke="none" />
        <path d="M167 15.0897L167 350.916C166.998 359.248 160.223 366.001 151.867 366L15.1331 366C6.77692 366.001 0.0016739 359.248 5.61835e-08 350.916L5.61835e-08 15.0897C-0.000345565 11.0875 1.59392 7.24921 4.43201 4.41928C7.2701 1.58934 11.1195 -0.000344572 15.1331 5.60221e-08L35.5941 5.60221e-08L35.5941 2.62046C35.596 9.48187 41.1738 15.0437 48.055 15.0456L117.592 15.0456C124.474 15.0456 130.053 9.48268 130.053 2.62046L130.053 5.60221e-08L151.867 5.60221e-08C155.881 -0.000344572 159.73 1.58934 162.568 4.41928C165.406 7.24921 167 11.0875 167 15.0897L167 15.0897Z" transform="translate(138 10.76147)" id="Path" fill="#FFFFFF" stroke="none" />
        <path d="M0 0L167 0L167 192L0 192L0 0Z" transform="translate(138 88.76147)" id="Rectangle" fill="#F2F2F2" stroke="none" />
        <path d="M6 11L5.12996 10.2206C2.04027 7.40337 0.000502098 5.57488 0.000502098 3.29715C-0.0149557 2.42159 0.327069 1.5771 0.948672 0.956022C1.57028 0.334945 2.41853 -0.00983527 3.30023 0.000213667C4.34264 0.00572756 5.3299 0.466077 6 1.25909C6.67009 0.466058 7.65736 0.00570402 8.69977 0.000213667C9.58147 -0.00983527 10.4297 0.334945 11.0513 0.956022C11.6729 1.5771 12.015 2.42159 11.9995 3.29715C11.9995 5.57491 9.95967 7.4034 6.87004 10.2206L6 11Z" transform="translate(144 295.7615)" id="Path" fill="#FF6584" stroke="none" />
        <path d="M0 5.5375L1.73437 6C2.36293 4.29816 3.84969 2.99473 5.70882 2.51565C7.56795 2.03656 9.56063 2.44336 11.0357 3.60311L8.38726 6L15 6L15 0L12.3348 2.38439C10.3995 0.800098 7.74123 0.228718 5.25845 0.863389C2.77567 1.49806 0.800279 3.25395 2.25e-05 5.53752L0 5.5375Z" transform="translate(181 298.7615)" id="Path" fill="#F2F2F2" stroke="none" />
        <path d="M7.5 15C11.6421 15 15 11.6421 15 7.5C15 3.35786 11.6421 0 7.5 0C3.35786 0 0 3.35786 0 7.5C0 11.6421 3.35786 15 7.5 15Z" transform="translate(141 59.76147)" id="Oval" fill="#111B47" stroke="none" />
        <path d="M0 0L72 0L72 9L0 9L0 0Z" transform="translate(162 62.76147)" id="Rectangle" fill="#111B47" stroke="none" />
        <path d="M0 0L72 0L72 9L0 9L0 0Z" transform="translate(143 319.7615)" id="Rectangle" fill="#F2F2F2" stroke="none" />
        <path d="M0 0L151 0L151 9L0 9L0 0Z" transform="translate(144 338.7615)" id="Rectangle" fill="#F2F2F2" stroke="none" />
        <path d="M11 10L9.15588 6.71316C10.0676 4.48337 9.22892 1.91017 7.18895 0.678297C5.14897 -0.553576 2.52985 -0.0684241 1.04639 1.81611C-0.437076 3.70065 -0.332454 6.40982 1.29175 8.16987C2.91596 9.92992 5.5644 10.2041 7.50308 8.81281L11 10Z" transform="translate(163 296.7615)" id="Path" fill="#F2F2F2" stroke="none" />
        <path d="M17.5551 0.450454L17.5551 0.450454C11.8499 1.62991 6.84225 5.05063 3.63365 9.9601C0.425061 14.8696 -0.721613 20.8656 0.445887 26.6292L4.97744 49L10.0514 47.951L10.4094 45.5803L11.4717 47.6574L42.3183 41.2803L42.6763 38.9096L43.7386 40.9867L48 40.1057L43.4684 17.7349C42.3009 11.9713 38.9149 6.91234 34.0552 3.67088C29.1955 0.429417 23.2603 -0.729004 17.5551 0.450454L17.5551 0.450454Z" transform="translate(189 132.7615)" id="Path" fill="#2F2E41" stroke="none" />
        <path d="M1.64706 0L28 16.186L24.7059 24L0 12.2791L1.64706 0L1.64706 0Z" transform="translate(244 201.7615)" id="Path" fill="#9F616A" stroke="none" />
        <path d="M65.9065 0.638511C65.9065 0.638511 12.392 0.638511 3.56487 14.3995C-5.26226 28.1605 1.90978 47.4259 29.4946 51.8295C57.0793 56.233 140.937 58.4347 147.557 41.9215C154.178 25.4083 149.213 16.0508 149.213 16.0508C149.213 16.0508 120.524 -3.76501 65.9065 0.638511Z" transform="translate(146 219.7615)" id="Path" fill="#111B47" stroke="none" />
        <path d="M19.6056 116.985L49.0005 128C49.0005 128 61.2021 119.188 55.1013 109.275C49.0005 99.3618 21.2695 42.0854 21.2695 42.0854C21.2695 42.0854 13.5048 31.0707 23.488 25.0127C33.4711 18.9546 37.3534 28.8678 37.3534 28.8678C37.3534 28.8678 36.7988 31.0707 40.6812 29.4185C44.5635 27.7663 51.7736 33.2737 47.8912 42.0854C44.0089 50.8972 41.2358 53.1001 49.5551 52.5494C52.5593 52.3505 55.2018 50.2126 57.3522 47.562C61.4739 42.4815 59.6338 38.3895 59.322 31.873C58.7878 20.7098 57.9144 13.4311 55.1013 9.04137C51.2189 2.98329 45.6727 -1.97332 31.2526 0.780352C16.8325 3.53402 -4.24303 17.3024 0.748548 37.1288C5.74012 56.9553 16.8325 78.9846 16.8325 78.9846C16.8325 78.9846 24.5972 109.826 19.6056 116.985Z" transform="translate(239 116.7615)" id="Path" fill="#111B47" stroke="none" />
        <path d="M70 7.77651C65.2378 9.09037 59.2575 9.73074 52.8197 9.92948C41.5866 10.2773 28.9425 9.28359 18.8448 8.15742C7.93702 6.9374 0 5.56834 0 5.56834C3.68737 2.12358 9.35354 0.760036 16.0118 0.263197C24.2796 -0.355125 34.0796 0.351524 43.5433 0.0479C47.0321 -0.0743761 50.5238 0.188509 53.9551 0.831802C64.3945 2.82466 70 7.77651 70 7.77651Z" transform="translate(189 225.7615)" id="Path" fill="#000000" fill-opacity="0.1" stroke="none" />
        <path d="M15.5 31C24.0604 31 31 24.0604 31 15.5C31 6.93959 24.0604 0 15.5 0C6.93959 0 0 6.93959 0 15.5C0 24.0604 6.93959 31 15.5 31Z" transform="translate(196 142.7615)" id="Oval" fill="#9F616A" stroke="none" />
        <path d="M9.25316 6.11111C9.25316 6.11111 11.9747 16.6667 9.25316 17.2222C6.53165 17.7778 0 20.5556 0 20.5556L8.16456 23.8889L23.4051 38.3333L36.4684 45L43 42.7778L43 30.5556L33.2025 15C33.2025 15 26.6709 17.2222 25.038 10C23.4051 2.77778 20.1392 0 20.1392 0L9.25316 6.11111Z" transform="translate(200 164.7615)" id="Path" fill="#9F616A" stroke="none" />
        <path d="M46.3554 0L39.7387 0C39.7387 0 28.1595 3.83668 21.5428 12.6062C14.9261 21.3758 4.44962 30.1453 4.44962 30.1453C4.44962 30.1453 -2.71848 40.0111 1.14127 53.7135C5.00101 67.416 10.5149 77.2817 15.4775 74.5412C20.44 71.8007 8.30937 52.0692 8.30937 52.0692L11.6177 40.0111C11.6177 40.0111 28.7109 20.2796 35.879 20.8277C43.0471 21.3758 43.5985 27.4049 43.5985 27.4049L59.0375 31.7896L64 21.3758L61.243 10.4138L46.3554 0Z" transform="translate(159 185.7615)" id="Path" fill="#9F616A" stroke="none" />
        <path d="M45.7754 41.2376C44.7387 43.0098 43.9789 44.9289 43.5222 46.929C42.8379 49.883 42.4595 52.8992 42.393 55.9302C31.2204 56.2743 18.6445 55.2912 8.60133 54.1769C7.7133 51.8174 6.73747 49.1028 5.7836 46.3664C3.21246 38.9709 0.822312 31.4225 0.822312 30.3137C0.822312 28.129 12.3347 31.9523 15.0757 31.4061C17.8168 30.8599 18.9132 22.1208 15.0757 17.7513C11.2383 13.3817 0 6.00813 0 6.00813L3.83746 4.91574C3.83746 4.91574 12.3347 11.197 29.8773 21.5746C47.42 31.9523 40.2933 15.5665 40.2933 15.5665L30.1515 0L34.5371 0C34.5371 0 43.0343 14.4741 47.42 21.0285C51.8057 27.5828 50.161 34.1371 45.7754 41.2376Z" transform="translate(199 179.7615)" id="Path" fill="#3F3D56" stroke="none" />
        <path d="M3.79621e-13 -4.34838e-13L28.4943 -4.34838e-13L28.4943 17.4852L1.77156e-13 17.4852L3.79621e-13 -4.34838e-13Z" transform="matrix(0.9796967 -0.2004855 0.2004855 0.9796967 194.3662 143.6626)" id="Rectangle" fill="#2F2E41" stroke="none" />
        <path d="M8.5 17C13.1944 17 17 13.1944 17 8.5C17 3.80558 13.1944 0 8.5 0C3.80558 0 0 3.80558 0 8.5C0 13.1944 3.80558 17 8.5 17Z" transform="translate(274 123.7615)" id="Oval" fill="#3F3D56" stroke="none" />
        <path d="M4.5 9.00001C6.98528 9.00001 9 6.98529 9 4.5C9 2.01472 6.98528 0 4.5 0C2.01472 0 0 2.01472 0 4.5C0 6.98529 2.01472 9.00001 4.5 9.00001Z" transform="translate(278 127.7615)" id="Oval" fill="#FFFFFF" stroke="none" />
        <path d="M1.46715 0L0.893546 4.32769C0.69936 5.79277 0.505067 7.25889 0.40051 8.73267C0.0526922 13.6352 0.7011 18.5575 0.530446 23.469C0.399051 27.2505 -0.217496 31.0291 0.0803384 34.8016C0.343758 38.1382 1.3157 41.3776 2.28209 44.5881L3.66341 49.1772C3.68631 49.4552 3.84056 49.7068 4.08055 49.8577C4.32054 50.0086 4.61882 50.0415 4.88721 49.9467L11 49.4053C10.6085 47.6515 10.1731 45.8233 9.96275 44.0401C9.79636 42.6298 9.69637 41.2129 9.59202 39.7969C9.26672 35.3831 8.89844 30.9724 8.53017 26.5618L7.88322 18.8137C7.6026 15.4527 7.31862 12.072 6.45267 8.80779C5.58974 5.50328 3.87311 2.47056 1.46715 0L1.46715 0Z" transform="translate(38 226.7615)" id="Path" fill="#111B47" stroke="none" />
        <path d="M1.46715 0L0.893546 4.32769C0.69936 5.79277 0.505067 7.25889 0.40051 8.73267C0.0526922 13.6352 0.7011 18.5575 0.530446 23.469C0.399051 27.2505 -0.217496 31.0291 0.0803384 34.8016C0.343758 38.1382 1.3157 41.3776 2.28209 44.5881L3.66341 49.1772C3.68631 49.4552 3.84056 49.7068 4.08055 49.8577C4.32054 50.0086 4.61882 50.0415 4.88721 49.9467L11 49.4053C10.6085 47.6515 10.1731 45.8233 9.96275 44.0401C9.79636 42.6298 9.69637 41.2129 9.59202 39.7969C9.26672 35.3831 8.89844 30.9724 8.53017 26.5618L7.88322 18.8137C7.6026 15.4527 7.31862 12.072 6.45267 8.80779C5.58974 5.50328 3.87311 2.47056 1.46715 0L1.46715 0Z" transform="translate(38 226.7615)" id="Path" fill="#000000" fill-opacity="0.1" stroke="none" />
        <path d="M1.84662 5.4397C1.49031 6.13813 1.1802 6.8592 0.918293 7.59826C0.223525 9.63869 0.118526 11.8257 0.0196769 13.979C-0.0277558 14.3946 0.0107877 14.8154 0.13291 15.2154C0.429861 15.9894 1.28595 16.3816 2.08624 16.5969C5.43775 17.4986 8.97161 16.6499 12.4284 16.3405C15.8213 16.0369 19.2776 16.2565 22.6008 15.5079C23.092 15.4152 23.5667 15.2503 24.0095 15.0184C24.852 14.4705 25.4804 13.6494 25.7895 12.6929C25.8906 12.4483 25.9586 12.1912 25.9916 11.9286C26.1014 10.7957 25.1143 9.81127 24.0392 9.43889C22.9641 9.0665 21.7951 9.12802 20.6633 9.01167C15.8768 8.51962 12.0155 4.87613 11.245 0.124535C11.2049 -0.122799 5.6487 0.0231392 5.06389 0.344078C4.37939 0.719759 3.96509 1.65757 3.57947 2.29111C2.95641 3.31475 2.3788 4.36428 1.84662 5.4397Z" transform="translate(49 370.7615)" id="Path" fill="#3F3D56" stroke="none" />
        <path d="M1.84662 5.4397C1.49031 6.13813 1.1802 6.8592 0.918293 7.59826C0.223525 9.63869 0.118526 11.8257 0.0196769 13.979C-0.0277558 14.3946 0.0107877 14.8154 0.13291 15.2154C0.429861 15.9894 1.28595 16.3816 2.08624 16.5969C5.43775 17.4986 8.97161 16.6499 12.4284 16.3405C15.8213 16.0369 19.2776 16.2565 22.6008 15.5079C23.092 15.4152 23.5667 15.2503 24.0095 15.0184C24.852 14.4705 25.4804 13.6494 25.7895 12.6929C25.8906 12.4483 25.9586 12.1912 25.9916 11.9286C26.1014 10.7957 25.1143 9.81127 24.0392 9.43889C22.9641 9.0665 21.7951 9.12802 20.6633 9.01167C15.8768 8.51962 12.0155 4.87613 11.245 0.124535C11.2049 -0.122799 5.6487 0.0231392 5.06389 0.344078C4.37939 0.719759 3.96509 1.65757 3.57947 2.29111C2.95641 3.31475 2.3788 4.36428 1.84662 5.4397Z" transform="translate(49 370.7615)" id="Path" fill="#000000" fill-opacity="0.1" stroke="none" />
        <path d="M1.84662 5.4397C1.49031 6.13813 1.1802 6.8592 0.918294 7.59826C0.22353 9.63869 0.118526 11.8257 0.0196772 13.979C-0.0277559 14.3946 0.0107876 14.8154 0.13291 15.2154C0.429861 15.9894 1.28595 16.3816 2.08624 16.5969C5.43775 17.4986 8.97161 16.6499 12.4284 16.3405C15.8213 16.0369 19.2776 16.2565 22.6008 15.5079C23.092 15.4152 23.5667 15.2503 24.0095 15.0184C24.852 14.4705 25.4804 13.6494 25.7895 12.6929C25.8906 12.4483 25.9586 12.1912 25.9916 11.9286C26.1014 10.7957 25.1143 9.81128 24.0392 9.43889C22.9641 9.06651 21.7951 9.12802 20.6633 9.01168C15.8768 8.51962 12.0155 4.87613 11.245 0.124534C11.2049 -0.1228 5.6487 0.0231434 5.06389 0.344077C4.37939 0.719763 3.96509 1.65757 3.57947 2.29111C2.95641 3.31474 2.3788 4.36428 1.84662 5.4397Z" transform="translate(58 370.7615)" id="Path" fill="#3F3D56" stroke="none" />
        <path d="M42.9989 51.9545C43.0691 63.0011 39.8876 73.7983 36.156 84.1821C34.6786 88.2926 33.1109 92.3673 31.4529 96.4062C30.4713 98.8 29.3653 101.455 30.4172 103.819C27.3902 102.655 24.2909 101.968 21.0953 102.505C22.3117 100.002 22.1973 97.0872 22.2515 94.3003C22.3571 90.5161 22.7605 86.7463 23.4579 83.0267C24.5283 77.367 26.3648 71.8828 28.9157 66.7285C29.4328 65.6417 29.7893 64.4842 29.9735 63.2929C30.3047 60.6437 30.1523 57.9555 29.5239 55.3617C28.3579 49.6157 26.1444 44.1387 22.9962 39.2095C22.9862 39.3189 22.9761 39.4304 22.9641 39.5398C22.7737 41.1826 22.4997 42.8144 22.1431 44.4287C21.4285 47.8501 20.5955 51.2735 20.7199 54.7131C20.8539 58.3614 20.63 62.0141 20.0515 65.6178C19.8678 67.0337 19.5028 68.4195 18.9656 69.7405C18.6163 70.531 18.1607 71.2748 17.8856 72.0937C17.6128 73.0403 17.4703 74.0204 17.4621 75.0063C17.0546 83.3246 17.4561 93.9689 19.1402 102.123C16.3022 101.991 13.482 102.64 10.9806 104C8.94515 98.2011 7.64845 89.9647 6.67894 83.8577C5.58105 76.6434 5.80421 69.2868 7.33731 62.1538C7.81416 59.7738 7.99288 57.3428 7.86927 54.9178C7.65246 50.0877 6.4762 45.3631 5.30797 40.6749C4.71382 38.2953 4.11966 35.9151 3.52547 33.5341C2.68041 30.1432 1.83401 26.7515 0.986265 23.3592C0.424216 21.1033 -0.143837 18.7987 0.0328049 16.4779C0.15693 15.2056 0.421524 13.9512 0.821657 12.7383C2.08618 8.61052 3.97675 4.70564 6.42602 1.16273C16.1794 1.71607 26.0513 0.793839 35.7906 0.037804C36.2642 -0.056806 36.7557 0.0275928 37.1717 0.274956C37.5023 0.615458 37.6992 1.06565 37.7257 1.54177C38.9461 8.52035 40.1659 15.4989 41.385 22.4775C41.9787 25.3917 42.3272 28.3514 42.4268 31.3249C42.4448 34.2882 41.9691 37.2413 42.0795 40.2026C42.228 44.1915 42.9748 47.9636 42.9989 51.9545Z" transform="translate(40 269.7615)" id="Path" fill="#2F2E41" stroke="none" />
        <path d="M12 16.1807C11.806 17.8001 11.5268 19.4086 11.1634 21C9.00153 17.3475 6.67188 13.787 4.68178 10.0426C4.1684 9.07756 3.67959 8.1005 3.18868 7.12544C2.69986 6.15039 2.21102 5.17534 1.72216 4.20029C1.44807 3.65281 1.17198 3.10332 0.924472 2.54189C0.520191 1.73315 0.210093 0.882637 0 0.00632935C0.724033 -0.123539 2.50756 1.78261 3.04344 2.28013C4.14268 3.33903 5.1806 4.45702 6.15234 5.62888C7.3281 6.92872 8.40738 8.30889 9.38193 9.75887C10.6274 11.7359 11.5132 13.9085 12 16.1807L12 16.1807Z" transform="translate(51 293.7615)" id="Path" fill="#000000" fill-opacity="0.1" stroke="none" />
        <path d="M22 4.61531C22 4.61531 16.4486 13.5766 17.4766 15.4522C18.5047 17.3278 0 13.785 0 13.785C0 13.785 10.0748 4.82372 9.04674 1.07248C8.01871 -2.67877 22 4.61531 22 4.61531Z" transform="translate(50 203.7615)" id="Path" fill="#EFB7B9" stroke="none" />
        <path d="M12.5 25C19.4036 25 25 19.4036 25 12.5C25 5.59644 19.4036 0 12.5 0C5.59644 0 0 5.59644 0 12.5C0 19.4036 5.59644 25 12.5 25Z" transform="translate(54 185.7615)" id="Oval" fill="#EFB7B9" stroke="none" />
        <path d="M32.8634 6.21357C31.5287 4.36835 29.7168 2.9159 27.6195 2.00993C26.4121 1.58058 25.1639 1.27454 23.8941 1.09654L18.9192 0.227587C17.7 0.0146201 16.395 -0.189109 15.2639 0.310771C14.6858 0.600767 14.1594 0.983049 13.7059 1.44239C11.9767 3.03327 10.301 4.78311 8.13314 5.70138C7.53961 5.95279 6.91889 6.13682 6.32629 6.39037C3.90068 7.42812 2.08712 9.59486 1.0567 12.0108C-0.0242746 14.5453 -0.0555907 17.2924 0.0297424 20.0437C0.0270444 20.9932 0.121001 21.9404 0.310179 22.8711C0.561168 23.7568 0.876528 24.6232 1.25378 25.4635C1.9408 27.2582 2.51618 29.0932 2.97666 30.9581C4.26548 35.8599 5.33696 40.8115 6.19111 45.8128C6.26556 46.5318 6.47838 47.2298 6.81799 47.869C7.29804 48.5051 7.87891 49.0595 8.53789 49.5105C9.0597 49.94 9.54203 50.4148 9.97916 50.9292C10.1924 51.1488 10.3488 51.4167 10.4346 51.7097C10.596 52.4491 9.9383 53.0826 9.40449 53.6222C8.29557 54.7462 7.494 56.133 7.07581 57.6511C6.81525 57.9624 6.68307 58.3602 6.70589 58.7644C6.81268 59.0444 6.85245 59.3452 6.82205 59.6431C6.71967 59.915 6.55977 60.1619 6.35315 60.3672C5.87209 60.9896 5.68363 61.7875 5.8358 62.5575C9.70092 64.226 13.8373 65.1881 18.0462 65.3975C19.0769 65.4452 20.1116 65.4456 21.1356 65.571C21.866 65.6604 22.5875 65.8131 23.3184 65.8978C24.3817 65.9968 25.4505 66.0239 26.5175 65.9789C32.0675 65.8697 37.7804 65.7269 42.8769 63.5406C43.357 60.9436 42.3227 58.2973 41.6739 55.7367C40.6421 51.6644 40.3821 47.4409 39.6144 43.3114C39.089 40.485 38.3258 37.7035 37.8882 34.8623C37.4506 32.0212 37.348 29.0756 38.1341 26.3095C38.8308 23.8584 39.041 21.3629 39.7631 18.9191C40.4852 16.4752 40.9912 13.8257 40.176 11.411C39.1653 8.41693 36.0376 6.04822 32.8634 6.21357Z" transform="translate(39 210.7615)" id="Path" fill="#111B47" stroke="none" />
        <path d="M37.8375 11.4963C38.4466 9.31208 37.2487 7.03865 35.8156 5.26438C34.2757 3.358 32.286 1.63788 29.8565 1.15908C27.8821 0.769995 25.8362 1.23972 23.8287 1.08338C22.0493 0.9448 20.3443 0.318243 18.5741 0.0934199C16.9728 -0.0754203 15.355 -0.0151668 13.7713 0.272296C12.2659 0.487944 10.7946 0.891458 9.39321 1.47305C4.06086 3.79308 0.936453 9.52299 0.211486 15.2056C-0.513481 20.8882 0.75776 26.6134 2.02147 32.2044L3.16378 37.2583C4.35274 42.5186 5.54569 47.8063 5.86381 53.1856C6.18193 58.5648 5.58836 64.087 3.33485 69C10.6209 65.157 16.2662 58.881 19.2499 51.3066C20.0602 49.2263 20.6601 47.068 21.5576 45.0226C22.3299 43.2628 23.3185 41.596 24.0029 39.8015C24.7749 37.7742 25.1455 35.6209 25.095 33.4571C25.056 31.8309 24.7789 30.2125 24.8272 28.5866C24.8755 26.9607 25.2966 25.2639 26.4413 24.0881C27.4588 23.043 28.9045 22.5408 30.2156 21.8828C32.2775 20.8432 34.0788 19.3672 35.4896 17.5614C36.3151 16.5052 36.3591 16.0541 36.5691 14.8358C36.7733 13.6505 37.5168 12.6464 37.8375 11.4963Z" transform="translate(40 180.7615)" id="Path" fill="#2F2E41" stroke="none" />
        <path d="M1.89337 6.91587C2.02055 8.20739 1.7861 9.53118 2.06835 10.7978C2.28048 11.7498 2.77339 12.6149 3.06319 13.5461C3.351 14.6252 3.49904 15.7369 3.50367 16.8539C3.54555 17.7905 3.47373 18.9294 2.64583 19.3684C2.28225 19.5612 1.84606 19.5649 1.46763 19.7266C1.08921 19.8884 0.76448 20.3475 0.981179 20.6975C1.16343 20.9919 1.57703 20.9954 1.916 21.065C2.25497 21.1347 2.62798 21.4861 2.43126 21.771C2.35224 21.8641 2.24698 21.9311 2.12925 21.9634C1.78267 22.0677 1.45454 22.2257 1.15677 22.4316C0.855793 22.6462 0.701039 23.0119 0.756521 23.3776C0.797774 23.5525 0.917192 23.6986 1.08029 23.7738C1.24339 23.849 1.432 23.8449 1.59167 23.7627C1.43978 24.0873 1.35682 24.4399 1.34803 24.7982C2.67269 25.3682 4.16382 24.623 5.41052 23.898C5.95115 23.598 6.47311 23.2656 6.97352 22.9024C9.01177 21.3274 10.1396 18.8455 9.98613 16.2731C9.92835 15.6354 9.83064 15.002 9.69356 14.3766C9.50027 13.2891 9.24512 12.2134 8.92935 11.1549C8.57299 10.0384 8.08315 8.96998 7.66301 7.87593C6.76781 5.54473 6.19151 3.10401 5.38544 0.740454C5.36208 0.512156 5.24468 0.303935 5.06148 0.165876C4.87829 0.0278171 4.64588 -0.0275846 4.42016 0.0129973C3.51183 -0.03432 2.60142 0.0495267 1.71697 0.261955C1.18249 0.418103 0.305754 0.761731 0.0661786 1.32193C-0.149683 1.8267 0.212121 2.27869 0.441654 2.71105C1.19333 4.00525 1.68638 5.43336 1.89337 6.91587Z" transform="translate(76 277.7615)" id="Path" fill="#EFB7B9" stroke="none" />
        <path d="M11.3143 0C11.5724 0.26899 11.7886 0.577156 11.9552 0.913643C13.6742 4.11512 13.696 7.94721 13.7768 11.6004C13.8678 15.7126 14.0874 19.8206 14.307 23.9277L14.9638 36.2106C15.0265 37.3841 15.0894 38.5593 15.25 39.7229C16.0226 39.9227 16.0546 40.9456 15.965 41.7569C15.412 46.7695 14.0359 51.9294 15.477 56.7529C15.5321 57.0014 15.6481 57.2314 15.814 57.4212C15.0876 57.1863 14.3099 57.1755 13.5776 57.3902C12.8592 57.5454 12.1685 57.8146 11.4527 57.9816C10.5418 58.1941 9.50922 58.2853 8.88776 59C8.18557 56.8325 7.6264 54.619 7.21405 52.3746C6.87286 50.335 6.77999 48.2142 5.96902 46.319C5.64153 45.5537 5.20401 44.8442 4.80477 44.1155C2.70436 40.2819 1.676 35.9458 0.670934 31.6716C0.219697 29.645 0.111524 27.5539 0.351134 25.4897C0.493879 24.5479 0.577696 23.5977 0.602073 22.6449C0.538085 21.6397 0.40954 20.6399 0.21727 19.652C-0.207035 16.7544 -0.00828991 13.7967 0.799598 10.986C1.55226 8.37576 2.2122 5.62971 3.78625 3.43733C5.36029 1.24494 8.65836 0.036989 11.3143 0Z" transform="translate(66 222.7615)" id="Path" fill="#000000" fill-opacity="0.1" stroke="none" />
        <path d="M11.3143 0C11.5724 0.268991 11.7886 0.577157 11.9552 0.913643C13.6742 4.11512 13.696 7.94722 13.7768 11.6004C13.8678 15.7126 14.0874 19.8206 14.307 23.9277L14.9638 36.2106C15.0265 37.3841 15.0894 38.5593 15.25 39.7229C16.0226 39.9227 16.0546 40.9456 15.965 41.7569C15.412 46.7694 14.0359 51.9294 15.477 56.7529C15.5321 57.0014 15.6481 57.2314 15.814 57.4212C15.0876 57.1863 14.3099 57.1755 13.5776 57.3902C12.8592 57.5454 12.1685 57.8146 11.4527 57.9816C10.5418 58.1941 9.50922 58.2853 8.88776 59C8.18557 56.8325 7.62641 54.619 7.21405 52.3746C6.87286 50.335 6.77999 48.2142 5.96902 46.319C5.64153 45.5537 5.20401 44.8442 4.80477 44.1155C2.70436 40.2819 1.676 35.9458 0.670933 31.6716C0.219695 29.645 0.111522 27.5539 0.351132 25.4897C0.49388 24.5479 0.577698 23.5977 0.602071 22.6449C0.538084 21.6397 0.409538 20.6399 0.217268 19.652C-0.207034 16.7544 -0.00828909 13.7967 0.799597 10.986C1.55226 8.37576 2.2122 5.62971 3.78625 3.43733C5.36029 1.24494 8.65836 0.036989 11.3143 0Z" transform="translate(66 221.7615)" id="Path" fill="#111B47" stroke="none" />
        <g id="Group" transform="translate(43 179.7615)" opacity="0.1">
            <path d="M28.4907 5.30228C26.9557 3.38218 24.9722 1.64966 22.5503 1.16743C20.5821 0.775539 18.5426 1.24865 16.5415 1.09118C14.7676 0.951602 13.068 0.320527 11.3033 0.0940968C9.70705 -0.0759652 8.09435 -0.0152778 6.51564 0.274261C5.01488 0.491456 3.5482 0.897874 2.1512 1.48366C1.39632 1.81713 0.675871 2.22256 0 2.69423C1.2454 2.22653 2.53749 1.89188 3.85439 1.69594C5.4331 1.40641 7.0458 1.34572 8.64208 1.51578C10.4067 1.74222 12.1064 2.37329 13.8802 2.51287C15.8814 2.67033 17.9208 2.1972 19.8891 2.58911C22.311 3.07135 24.2944 4.80386 25.8295 6.72396C27.2581 8.51102 28.4523 10.8008 27.8451 13.0007C27.5253 14.1592 26.7842 15.1705 26.5806 16.3643C26.3713 17.5914 26.3275 18.0457 25.5046 19.1095C24.4453 20.4777 23.1641 21.6615 21.7133 22.6125C22.1137 22.4233 22.517 22.2388 22.9084 22.0404C24.9638 20.9932 26.7594 19.5066 28.1658 17.6878C28.9887 16.624 29.0325 16.1697 29.2419 14.9426C29.4455 13.7488 30.1865 12.7375 30.5063 11.5791C31.1136 9.37913 29.9194 7.08934 28.4907 5.30228Z" transform="translate(4.206272 0.2777575)" id="Path" fill="#000000" stroke="none" />
            <path d="M23.034 0.60141C23.2486 0.381119 23.4822 0.179882 23.7322 0C22.539 0.573085 21.2838 1.07762 20.3728 2.02309C19.2317 3.20734 18.8119 4.91635 18.7637 6.55395C18.7156 8.19155 18.9918 9.82169 19.0307 11.4595C19.0811 13.6389 18.7116 15.8077 17.9421 17.8496C17.2598 19.657 16.2743 21.3358 15.5044 23.1083C14.6097 25.1684 14.0118 27.3423 13.204 29.4375C10.6238 36.0502 6.04191 41.7074 0.0885111 45.6309C0.0582222 45.6992 0.0309389 45.7686 0 45.8367C7.26324 41.9661 12.8908 35.6448 15.8652 28.0158C16.673 25.9206 17.271 23.7467 18.1657 21.6866C18.9355 19.9141 19.921 18.2353 20.6033 16.4279C21.3728 14.386 21.7423 12.2172 21.6919 10.0378C21.6531 8.39998 21.3768 6.76984 21.425 5.13224C21.4731 3.49464 21.893 1.78566 23.034 0.60141Z" transform="translate(0.3181222 23.93789)" id="Path" fill="#000000" stroke="none" />
        </g>
        <path d="M18.5249 9.8217C17.9246 10.5036 16.8966 10.6408 15.9666 10.7308C14.765 10.8948 13.5463 10.9167 12.339 10.796C10.9045 10.5951 10.0453 11.3626 8.73475 10.7723C7.94218 10.4153 6.72192 11.1293 5.92935 10.7723C4.84285 10.2829 1.09074 10.1816 0.429293 9.22647C-0.232152 8.27134 -0.16489 6.76231 0.881062 6.19859C1.17763 6.06599 1.48378 5.95327 1.79723 5.86125C3.54835 5.20545 7.09559 0.258364 8.95852 0.00503657C9.88287 -0.0353881 10.8008 0.168167 11.6087 0.592721C13.4456 1.36007 16.6893 1.96618 17.4908 3.91375C18.1151 5.43104 19.8236 8.33862 18.5249 9.8217Z" transform="translate(320 375.7615)" id="Path" fill="#2F2E41" stroke="none" />
        <path d="M0.469672 10.3997C1.06307 11.1217 2.0792 11.267 2.99854 11.3623C4.18631 11.5359 5.39095 11.5591 6.58443 11.4314C8.00236 11.2186 9.72976 12.4458 11.0252 11.8208C11.8086 11.4428 13.0149 11.6397 13.7983 11.2617C14.8723 10.7435 19.9218 11.899 20.5756 10.8876C21.2295 9.87627 21.163 8.27846 20.1291 7.68156C19.8359 7.54116 19.5333 7.4218 19.2234 7.32437C17.4925 6.62998 11.7675 0.27357 9.92599 0.00533436C9.01227 -0.0374754 8.10488 0.178059 7.30625 0.627604C5.49051 1.44011 2.28411 2.08189 1.49188 4.14407C0.874683 5.75065 -0.814177 8.82935 0.469672 10.3997Z" transform="translate(351 375.7615)" id="Path" fill="#2F2E41" stroke="none" />
        <path d="M41.0879 2.84285C41.6532 3.92017 42.1469 5.03297 42.566 6.17414C47.5815 19.3353 48.0014 33.7175 48.2086 47.7861C48.1913 50.0736 48.323 52.3598 48.6028 54.6304C48.813 56.0702 49.1449 57.5256 48.9308 58.9648C48.7456 60.2093 48.1554 61.4366 48.3908 62.6727C48.4964 63.2271 48.7643 63.7413 48.8696 64.2958C48.9512 64.9037 48.9344 65.5206 48.8198 66.1232L48.1474 71.086C47.7643 73.913 46.8803 76.6359 46.9284 79.488C46.9613 81.4334 46.9943 83.3823 47.2127 85.316C47.4344 87.2793 47.8472 89.2276 47.8684 91.2031C47.8842 92.6825 47.68 94.1542 47.5481 95.6279C47.3619 97.709 47.3196 99.8004 47.4217 101.887C47.5003 103.495 47.6863 105.165 48.5459 106.53C47.5827 107.9 46.6293 109.128 45.0871 109.799C41.9535 111.162 38.3579 110.699 34.9718 110.212C35.1594 109.592 35.4498 108.889 35.1791 108.3C35.0197 108.015 34.8243 107.752 34.5976 107.515C33.8585 106.473 33.3455 105.289 33.0909 104.04C32.681 102.558 32.2706 100.963 33.1124 99.5412C33.4024 99.0349 33.5304 98.4531 33.4794 97.873C32.7783 88.5431 30.6857 78.8902 32.6128 69.7338C32.8185 68.7564 33.0636 67.7847 33.1785 66.7928C33.2821 65.3661 33.2993 63.9345 33.2301 62.5057L33.1898 60.5167C33.0895 58.3944 33.1763 56.2193 32.7472 54.12C32.4398 52.6165 31.8659 51.1059 32.5733 49.574C32.8861 48.8619 32.8473 48.0461 32.4685 47.3664C30.981 44.7815 29.7846 42.0421 28.9009 39.1977C28.7175 38.4027 28.4662 37.6247 28.1498 36.8721C27.7183 36.079 27.2223 35.3221 26.6668 34.6089C24.9889 32.1952 23.9854 29.3945 23.0004 26.6301C23.1053 26.3764 23.0247 26.0237 22.7507 26.0602C22.4799 26.1287 22.2475 26.3008 22.1044 26.539C20.7548 28.3384 20.6415 30.7387 20.5809 32.9807C20.4784 35.0637 20.5143 37.1512 20.6883 39.2296C20.8038 40.3184 20.9951 41.3987 21.0935 42.4893C21.2228 44.5239 21.1903 46.5656 20.9962 48.5952L20.3072 58.5825C20.2137 59.4081 20.2639 60.2436 20.4555 61.0525C20.8979 62.4521 21.1133 63.9126 21.0938 65.3794C20.9125 71.4122 21.4383 77.4456 22.6607 83.3581C22.9972 84.9905 23.3863 86.6127 23.6719 88.2546C24.3449 92.124 24.437 96.0667 24.5276 99.9922C24.5833 102.406 24.6231 104.906 23.6645 107.126C23.2899 107.81 23.0149 108.543 22.8477 109.304C22.8443 109.696 22.7917 110.086 22.6912 110.466C22.4098 111.184 21.5655 111.49 20.8065 111.654C19.3802 111.962 17.9169 112.065 16.4611 111.961C16.1193 111.955 15.7821 111.881 15.4701 111.742C14.9271 111.463 14.6388 110.872 14.2258 110.425C13.3351 109.459 11.8543 109.164 11.0427 108.132C10.028 106.842 10.4541 104.973 11.0581 103.451C11.6621 101.928 12.4098 100.275 11.8899 98.7222C11.277 96.8921 9.10473 95.9067 8.52158 94.0671C10.186 86.6481 6.09862 78.975 6.44892 71.3824C6.53051 69.614 6.83997 67.8582 6.84616 66.0879C6.86213 61.5276 4.87081 57.0905 5.19837 52.5418C6.03079 40.9825 2.06178 29.4428 0.38035 17.9747C0.0615585 16.2629 -0.0574589 14.5204 0.0256492 12.7817C0.275183 9.91111 1.6187 7.23955 3.23438 4.84521C4.39202 3.12967 5.78414 1.45056 7.70166 0.648073C9.28075 -0.0127868 11.0501 -0.00999187 12.764 0.00317731C17.04 0.0360318 21.316 0.0688863 25.5914 0.145145C28.501 0.104525 31.4069 0.362476 34.263 0.914882C36.5757 1.43972 38.7394 2.50935 41.0879 2.84285Z" transform="translate(316 270.7615)" id="Path" fill="#2F2E41" stroke="none" />
        <path d="M10.6412 8.12455C10.2122 6.0541 11.023 3.83926 10.3887 1.82071C10.16 1.09282 9.59807 0.336307 8.82544 0.357402C8.07465 0.37791 7.56674 1.10246 6.9012 1.44563C5.82843 1.99876 4.5254 1.49639 3.45329 0.941996C2.38118 0.387605 1.18594 -0.239709 0.0231643 0.0925906C-0.113673 0.810682 0.377944 1.49532 0.913151 2.00075C1.50578 2.44222 1.99633 3.00296 2.35221 3.64572C2.52652 4.34061 2.59279 5.05757 2.54876 5.77207C2.6705 7.41224 3.72422 8.82435 4.77687 10.1001C6.47302 12.1557 8.27419 14.1249 10.1734 16C10.1702 15.9968 13.0546 12.4778 12.9992 11.8631C12.947 11.2834 11.9765 10.7409 11.6239 10.2735C11.1412 9.6365 10.8057 8.90301 10.6412 8.12455L10.6412 8.12455Z" transform="translate(278 212.7615)" id="Path" fill="#A1616A" stroke="none" />
        <path d="M7.59088 3.37522C7.83319 4.0242 8.01477 4.69562 8.13312 5.38031C8.83424 8.88759 9.27624 12.4438 9.71196 15.9966C9.82824 16.9447 9.94425 17.8944 9.98014 18.8494C10.1034 21.1171 9.65137 23.3787 8.66871 25.4109C7.66947 27.4482 5.97053 29.0282 3.90343 29.8426C3.26671 30.0762 2.37672 30.1187 2.09869 29.483C1.99971 29.189 2.00191 28.8688 2.10493 28.5762C2.35621 27.63 2.86773 26.781 3.19955 25.8617C3.69189 24.4883 3.77401 22.9941 3.43531 21.5721C3.30457 21.0284 3.02892 20.4216 2.4964 20.3132C2.76217 21.5671 2.53833 22.8786 1.87342 23.9634C1.72203 24.2657 1.46107 24.494 1.14735 24.5987C0.693979 24.6455 0.269424 24.3627 0.124004 23.9171C-0.0059622 23.4798 -0.0342528 23.0171 0.0414257 22.5664C0.212211 20.2874 0.548405 18.0248 1.04718 15.7977C1.64082 13.3531 2.58183 10.9413 2.52145 8.42182C2.46672 6.13863 1.58538 3.89716 1.83224 1.62752C1.83564 1.48726 1.87947 1.35124 1.95811 1.2368C2.03547 1.15703 2.12983 1.09704 2.23365 1.06162C2.85133 0.798064 3.48668 0.581003 4.13472 0.412134C4.5175 0.312353 5.82509 -0.156215 6.19185 0.053362C6.48904 0.223143 6.58066 1.24006 6.72907 1.5843C6.99177 2.19372 7.3419 2.75877 7.59088 3.37522Z" transform="translate(363 259.7615)" id="Path" fill="#A1616A" stroke="none" />
        <path d="M9 18C13.9706 18 18 13.9706 18 9C18 4.02944 13.9706 0 9 0C4.02944 0 0 4.02944 0 9C0 13.9706 4.02944 18 9 18Z" transform="translate(317 177.7615)" id="Oval" fill="#A1616A" stroke="none" />
        <path d="M15.6845 4.60992C15.6833 5.20217 15.7301 5.79354 15.8245 6.37816C15.952 6.96957 16.1325 7.54817 16.3638 8.1069C16.673 9.01541 17.1092 9.87516 17.6592 10.6604C18.2182 11.4505 19.0547 11.9982 20 12.1926C13.6776 15.1699 6.92847 17.1297 0 18C1.0916 17.2703 1.99981 16.2962 2.6532 15.1541C2.99972 14.4208 3.23644 13.6401 3.35566 12.8372C3.94578 9.47754 3.64608 6.02102 2.48662 2.8145C2.37173 2.49829 2.25945 2.11026 2.47693 1.8542C2.5695 1.75957 2.68153 1.6864 2.80519 1.63983C5.5524 0.471275 8.51921 -0.0846397 11.501 0.0104274C12.263 0.0157325 13.0247 0.0495941 13.7847 0.104709C14.1935 0.134353 15.0964 0.0479848 15.4213 0.348776C15.8092 0.707813 15.6148 1.82194 15.627 2.30874L15.6845 4.60992Z" transform="translate(319 188.7615)" id="Path" fill="#A1616A" stroke="none" />
        <path d="M53.9498 3.78246C51.1481 0.220941 46.259 -0.987261 42.0999 0.8541C37.6937 2.94025 35.5242 7.94958 31.649 10.8954C30.7676 11.5494 29.8284 12.1232 28.8429 12.6098C28.2612 12.9286 27.6407 13.1721 26.9966 13.3344C26.2722 13.4928 25.516 13.4708 24.7948 13.6429C23.4208 14.0432 22.2503 14.9442 21.5184 16.165C21.1556 16.8033 20.7534 17.4188 20.3142 18.008C19.9092 18.4847 19.4062 18.8699 18.9779 19.3263C17.437 20.9686 17.0186 23.3266 16.6673 25.5428C15.4615 26.8018 14.1458 27.9526 12.7356 28.9817C12.2923 29.32 11.8 29.5901 11.2755 29.7829C9.91954 30.2186 8.42474 29.6642 7.26923 28.8366C6.11372 28.009 5.17252 26.9179 4.03348 26.0681C2.98653 27.552 1.89268 29.0409 0.777172 30.4749C0.608692 30.7479 0.352248 30.9565 0.0493556 31.0669C-0.160222 31.7658 0.342308 32.4899 0.718261 33.1165L2.73682 36.4807C3.40404 37.7052 4.22246 38.8425 5.17316 39.8664C6.13764 40.896 7.45488 41.5314 8.86696 41.6483C9.75834 41.6402 10.6409 41.4726 11.4723 41.1536C15.3186 39.8705 18.8501 37.8229 22.5091 36.0825C23.1719 35.7068 23.9144 35.4909 24.6768 35.4521C25.46 35.4314 26.1609 35.9317 26.3897 36.6749C26.8094 38.7765 27.2263 40.8703 27.8032 42.9349C28.3473 44.8819 28.8527 46.839 29.3195 48.8063C29.6312 50.01 29.8539 51.2347 29.9858 52.4706C30.0461 53.1724 30.0526 53.8774 30.059 54.5817L30.1369 63.0929C30.1452 64.0092 29.6185 64.5808 29.2132 65.4042C28.5919 66.6819 28.4983 68.1497 28.9523 69.4949C29.18 70.1588 29.5362 70.7722 29.7885 71.4272C30.3984 73.011 30.3748 74.755 30.343 76.45L30.2702 80.3339C30.2517 80.4947 30.281 80.6574 30.3546 80.8018C30.5936 81.1721 31.1697 80.9552 31.5341 80.7048L33.3652 79.4461C35.8151 79.7811 38.2901 79.8997 40.7611 79.8006C47.7888 79.6997 54.8182 79.977 61.8294 80.4638C64.1687 80.6262 66.5868 80.8022 68.7981 80.0282C69.9202 79.6354 70.954 79.0076 72.1008 78.6928C72.5742 78.6196 73.0233 78.4361 73.4115 78.1575C74.0532 77.5688 73.8827 76.5353 73.621 75.708C73.392 74.9842 73.132 74.271 72.841 73.5685C72.5414 72.9227 72.2972 72.253 72.111 71.5665C71.7597 70.0172 72.1014 68.2272 71.1289 66.9657C68.9521 64.1419 70.4928 59.7975 69.5793 56.3604C69.2838 55.2482 68.847 54.176 68.5699 53.0592C68.3961 52.3581 68.2861 51.6432 68.1764 50.9295C67.8899 49.3856 67.7478 47.8188 67.7518 46.249C67.7784 45.4636 67.878 44.6825 67.9776 43.9029L68.6691 38.4885C69.5337 40.0895 70.1346 41.8175 70.4489 43.6068C71.0783 46.2793 71.8532 48.916 72.7704 51.5052C73.2917 53.0667 73.8132 54.6285 74.3763 56.1756C74.7329 57.0562 75.0076 57.9674 75.1967 58.8976C75.3214 59.648 75.3248 60.4128 75.4124 61.1683C75.6019 62.7882 76.1734 64.3412 77.0807 65.7013C77.2484 66.0166 77.5259 66.2609 77.8615 66.3886C78.0882 66.4303 78.3214 66.4209 78.5439 66.3611C80.9877 65.8826 83.3529 65.071 85.5724 63.9495C86.0451 63.756 86.4555 63.4381 86.7594 63.0301C87.3569 62.0669 86.6889 60.8631 86.3984 59.7695C86.0871 58.5972 86.1597 57.1868 85.2288 56.4011C81.9872 53.6651 83.5963 48.1102 81.9739 44.2073C81.6891 43.5222 81.3572 42.8557 81.1117 42.1559C80.9239 41.6208 80.7878 41.0696 80.6508 40.5197C79.5182 35.9738 78.306 31.4483 77.0142 26.9433C75.6748 22.2725 75.8181 17.4073 74.132 12.8482C73.815 11.8926 73.4011 10.9714 72.8965 10.0988C72.3259 9.18696 71.5635 8.40812 70.6614 7.81549C68.2143 6.21072 65.744 4.84401 62.8696 4.26177C59.9953 3.67954 56.8834 3.76962 53.9498 3.78246Z" transform="translate(285 196.7615)" id="Path" fill="#D0CDE1" stroke="none" />
        <path d="M5.59923 19.1287C4.34946 18.4596 4.67871 16.6428 4.46631 15.2476C4.02934 12.3772 0.766077 10.6743 0 7.8728C0.880087 7.9803 1.77312 7.85462 2.5886 7.50849C2.74599 6.57832 2.56074 5.62292 2.06684 4.81753C4.75067 3.73374 6.92271 1.60703 9.64782 0.6303C13.0748 -0.597991 16.8912 0.155853 20.3482 1.29787C22.0731 1.86766 23.868 2.6073 24.9108 4.08713C26.0562 5.71255 26.0389 7.85188 25.9773 9.83547C25.8808 12.9464 25.7574 16.169 24.364 18.9562C22.5899 22.505 17.5671 25.7919 13.4172 24.8305C11.6913 24.4307 11.1834 23.3535 10.4559 21.8626C10.0031 20.9347 9.83304 19.8575 8.81359 19.3748C7.81731 18.9032 6.61043 19.6701 5.59923 19.1287Z" transform="translate(312 169.7615)" id="Path" fill="#2F2E41" stroke="none" />
        <g id="Group" transform="translate(314 254.7615)" opacity="0.1">
            <path d="M0.265962 0C0.277461 0.245411 0.284363 0.492377 0.286669 0.740899C0.274998 0.496099 0.268753 0.248839 0.265962 0Z" transform="translate(41.34647 0.2880883)" id="Path" fill="#000000" stroke="none" />
            <path d="M1.11887 1.84018C1.7287 3.43407 1.70512 5.18929 1.67332 6.89519C1.66502 7.34049 1.65672 7.78579 1.64842 8.23109C1.60957 7.31119 1.43101 6.40251 1.11887 5.53613C0.866621 4.87688 0.510522 4.25952 0.282838 3.5914C-0.107726 2.42365 -0.0934294 1.15866 0.323428 0C0.551273 0.627856 0.880017 1.21587 1.11887 1.84018Z" transform="translate(0.4075926 7.729683)" id="Path" fill="#000000" stroke="none" />
        </g>
        <g id="Group" transform="translate(314 173.7615)" opacity="0.1">
            <path d="M0.469905 1.87097L0.4618 1.87519C0.385533 1.29781 0.228904 0.744557 0 0.244C0.142 0.16708 0.282045 0.0850867 0.42106 0C0.531151 0.613003 0.547761 1.24925 0.469905 1.87097L0.469905 1.87097Z" transform="translate(0.01272 0.09707333)" id="Path" fill="#000000" stroke="none" />
        </g>
        <path d="M15 28L12.8249 26.0159C5.10069 18.8449 0.00125577 14.1906 0.00125577 8.39274C-0.037397 6.16406 0.817659 4.01445 2.37167 2.43352C3.92567 0.852594 6.04631 -0.0250306 8.25055 0.000543935C10.8566 0.0145784 13.3247 1.18638 15 3.20495C16.6752 1.18634 19.1434 0.0145314 21.7494 0.000543935C23.9537 -0.0250365 26.0743 0.852583 27.6283 2.4335C29.1823 4.01443 30.0374 6.16404 29.9987 8.39271C29.9987 14.1906 24.8992 18.845 17.1751 26.0159L15 28Z" transform="translate(9 129.7615)" id="Path" fill="#FF6584" stroke="none" />
        <path d="M15 28L12.8249 26.0159C5.10069 18.8449 0.00125577 14.1906 0.00125577 8.39274C-0.037397 6.16406 0.817659 4.01445 2.37167 2.43352C3.92567 0.852595 6.04631 -0.0250306 8.25055 0.000543935C10.8566 0.0145785 13.3247 1.18638 15 3.20495C16.6752 1.18634 19.1434 0.0145314 21.7494 0.000543935C23.9537 -0.0250365 26.0743 0.852583 27.6283 2.4335C29.1823 4.01443 30.0374 6.16404 29.9987 8.39272C29.9987 14.1906 24.8992 18.845 17.1751 26.0159L15 28Z" transform="translate(13 124.7615)" id="Path" fill="none" stroke="#3F3D56" stroke-width="2" />
    </g>
</svg>