<?xml version="1.0" encoding="utf-8"?>
<svg width="540px" height="525px" viewBox="0 0 540 525" version="1.1" 
    xmlns:xlink="http://www.w3.org/1999/xlink" 
    xmlns="http://www.w3.org/2000/svg">
    <desc>Created with Lunacy</desc>
    <g id="undraw_mobile_login_ikmv">
        <path d="M100.187 126L142 59.8782L48.3587 0L0 76.4734L77.4531 126L100.187 126L100.187 126Z" transform="translate(25 271.963)" id="Path" fill="#F0F0F0" stroke="none" />
        <path d="M0 20L103 20L103 0L0 0L0 20ZM101.662 18.7097L1.33766 18.7097L1.33766 1.29032L101.662 1.29032L101.662 18.7097Z" transform="translate(80 396.963)" id="Shape" fill="#3F3D56" fill-rule="evenodd" stroke="none" />
        <path d="M6.5 13C10.0899 13 13 10.0899 13 6.5C13 2.91015 10.0899 0 6.5 0C2.91015 0 0 2.91015 0 6.5C0 10.0899 2.91015 13 6.5 13Z" transform="translate(165 400.963)" id="Oval" fill="#222F65" stroke="none" />
        <path d="M6.5 13C10.0899 13 13 10.0899 13 6.5C13 2.91015 10.0899 0 6.5 0C2.91015 0 0 2.91015 0 6.5C0 10.0899 2.91015 13 6.5 13Z" transform="translate(145 400.963)" id="Oval" fill="#222F65" stroke="none" />
        <path d="M6.5 13C10.0899 13 13 10.0899 13 6.5C13 2.91015 10.0899 0 6.5 0C2.91015 0 0 2.91015 0 6.5C0 10.0899 2.91015 13 6.5 13Z" transform="translate(127 400.963)" id="Oval" fill="#222F65" stroke="none" />
        <path d="M6.5 13C10.0899 13 13 10.0899 13 6.5C13 2.91015 10.0899 0 6.5 0C2.91015 0 0 2.91015 0 6.5C0 10.0899 2.91015 13 6.5 13Z" transform="translate(108 400.963)" id="Oval" fill="#222F65" stroke="none" />
        <path d="M6.5 13C10.0899 13 13 10.0899 13 6.5C13 2.91015 10.0899 0 6.5 0C2.91015 0 0 2.91015 0 6.5C0 10.0899 2.91015 13 6.5 13Z" transform="translate(89 400.963)" id="Oval" fill="#222F65" stroke="none" />
        <path d="M99.4624 75.9409L99.4624 24.8656L125 24.8656L125 0L0 0L0 125L106.855 125L106.855 112.778C106.855 108.177 108.683 103.765 111.936 100.511C115.19 97.2579 119.602 95.4301 124.203 95.4301L125 95.4301L125 75.9409L99.4624 75.9409Z" transform="translate(208 109.963)" id="Path" fill="#F0F0F0" stroke="none" />
        <path d="M0 0L41 0L41 41L0 41L0 0Z" transform="matrix(0.9702957 -0.2419219 0.2419219 0.9702957 47.64954 10.56834)" id="Rectangle" fill="#F0F0F0" stroke="none" />
        <path d="M0 0L84 0L84 17L0 17L0 0Z" transform="translate(362 432.963)" id="Rectangle" fill="#222F65" stroke="none" />
        <path d="M0 0L123 0L123 16L0 16L0 0Z" transform="translate(340 346.963)" id="Rectangle" fill="#F0F0F0" stroke="none" />
        <path d="M0 0L524 0L524 1L0 1L0 0Z" transform="translate(0 523.963)" id="Rectangle" fill="#3F3D56" stroke="none" />
        <path d="M18.0353 320L170.965 320C180.921 319.989 188.989 311.924 189 301.973L189 18.0265C188.989 8.07544 180.921 0.011318 170.965 0L18.0353 0C8.07939 0.011318 0.0113236 8.07544 0 18.0265L0 301.973C0.0114419 311.924 8.07944 319.989 18.0353 320ZM1.3452 18.0265C1.35567 8.81766 8.82197 1.35501 18.0353 1.34454L170.965 1.34454C180.178 1.35501 187.644 8.81766 187.655 18.0265L187.655 301.973C187.644 311.182 180.178 318.645 170.965 318.655L18.0353 318.655C8.82197 318.645 1.35567 311.182 1.3452 301.973L1.3452 18.0265Z" transform="translate(313 204.963)" id="Shape" fill="#3F3D56" fill-rule="evenodd" stroke="none" />
        <path d="M0 4C0 6.20914 1.79086 8 4 8C6.20814 7.99759 7.99759 6.20814 8 4C8 1.79086 6.20914 0 4 0C1.79086 0 0 1.79086 0 4ZM1.33333 4C1.33333 2.52724 2.52724 1.33333 4 1.33333C5.47211 1.3349 6.6651 2.52789 6.66667 4C6.66667 5.47276 5.47276 6.66667 4 6.66667C2.52724 6.66667 1.33333 5.47276 1.33333 4Z" transform="translate(386 210.963)" id="Shape" fill="#3F3D56" fill-rule="evenodd" stroke="none" />
        <path d="M0 0L30 0L30 1L0 1L0 0Z" transform="translate(400 213.963)" id="Rectangle" fill="#3F3D56" stroke="none" />
        <path d="M54 0L54 54C24.1772 53.9987 0.00133075 29.8228 0 0L54 0Z" transform="translate(437 223.963)" id="Path" fill="#222F65" stroke="none" />
        <path d="M0 283L166 283L166 0L0 0L0 283ZM164.656 281.656L1.34413 281.656L1.34413 1.34442L164.656 1.34442L164.656 281.656Z" transform="translate(325 223.963)" id="Shape" fill="#3F3D56" fill-rule="evenodd" stroke="none" />
        <path d="M18.5 37C28.7173 37 37 28.7173 37 18.5C37 8.28273 28.7173 0 18.5 0C8.28273 0 0 8.28273 0 18.5C0 28.7173 8.28273 37 18.5 37Z" transform="translate(433 237.963)" id="Oval" fill="#000000" fill-opacity="0.1" stroke="none" />
        <path d="M18.5 37C28.7173 37 37 28.7173 37 18.5C37 8.28273 28.7173 0 18.5 0C8.28273 0 0 8.28273 0 18.5C0 28.7173 8.28273 37 18.5 37Z" transform="translate(430 239.963)" id="Oval" fill="#222F65" stroke="none" />
        <path d="M0 0L26 0L26 9L0 9L0 0Z" transform="translate(332 234.963)" id="Rectangle" fill="#3F3D56" stroke="none" />
        <path d="M0 0L26 0L26 9L0 9L0 0Z" transform="translate(346 324.963)" id="Rectangle" fill="#3F3D56" stroke="none" />
        <path d="M0 17L124 17L124 0L0 0L0 17ZM122.652 15.6923L1.34783 15.6923L1.34783 1.30769L122.652 1.30769L122.652 15.6923Z" transform="translate(347 342.963)" id="Shape" fill="#3F3D56" fill-rule="evenodd" stroke="none" />
        <path d="M0 0L123 0L123 16L0 16L0 0Z" transform="translate(340 397.963)" id="Rectangle" fill="#F0F0F0" stroke="none" />
        <path d="M0 0L26 0L26 9L0 9L0 0Z" transform="translate(346 374.963)" id="Rectangle" fill="#3F3D56" stroke="none" />
        <path d="M0 17L124 17L124 0L0 0L0 17ZM122.652 15.6923L1.34783 15.6923L1.34783 1.30769L122.652 1.30769L122.652 15.6923Z" transform="translate(347 393.963)" id="Shape" fill="#3F3D56" fill-rule="evenodd" stroke="none" />
        <path d="M0 18L85 18L85 0L0 0L0 18ZM83.6508 16.7143L1.34921 16.7143L1.34921 1.28571L83.6508 1.28571L83.6508 16.7143Z" transform="translate(366 427.963)" id="Shape" fill="#3F3D56" fill-rule="evenodd" stroke="none" />
        <path d="M13 6.49994C12.9997 9.24148 11.2797 11.6881 8.70041 12.616C6.12107 13.5439 3.23695 12.7535 1.49077 10.6403L1.48427 10.6338C-0.216516 8.5704 -0.480066 5.67573 0.820107 3.33905C2.12028 1.00237 4.71877 -0.299316 7.36842 0.0587422C10.0181 0.4168 12.178 2.36151 12.8115 4.9595C12.8115 4.96123 12.8122 4.96291 12.8134 4.96414C12.8146 4.96536 12.8163 4.96604 12.818 4.966C12.9381 5.4685 12.9992 5.98329 13 6.49994L13 6.49994Z" transform="translate(453 346.963)" id="Path" fill="#222F65" stroke="none" />
        <path d="M12 4.12509C11.9997 7.02473 10.2353 9.61248 7.58929 10.5939C4.9433 11.5753 1.98465 10.7393 0.193333 8.50419L0.186667 8.49731C0.0635173 7.96583 0.000872302 7.42136 0 6.87491C0.000271306 3.97527 1.76472 1.38752 4.41071 0.40612C7.0567 -0.575281 10.0154 0.260673 11.8067 2.49581C11.8066 2.49765 11.8073 2.49942 11.8086 2.50072C11.8098 2.50202 11.8116 2.50273 11.8133 2.50269C11.9365 3.03417 11.9991 3.57864 12 4.12509L12 4.12509Z" transform="translate(454 348.963)" id="Path" fill="#000000" fill-opacity="0.1" stroke="none" />
        <path d="M6.5 13C10.0899 13 13 10.0899 13 6.5C13 2.91015 10.0899 0 6.5 0C2.91015 0 0 2.91015 0 6.5C0 10.0899 2.91015 13 6.5 13Z" transform="translate(456 349.963)" id="Oval" fill="#222F65" stroke="none" />
        <path d="M13 6.49994C12.9997 9.24148 11.2797 11.6881 8.70041 12.616C6.12107 13.5439 3.23695 12.7535 1.49077 10.6403L1.48427 10.6338C-0.216516 8.5704 -0.480066 5.67573 0.820107 3.33905C2.12028 1.00237 4.71877 -0.299316 7.36842 0.0587422C10.0181 0.4168 12.178 2.36151 12.8115 4.9595C12.8115 4.96123 12.8122 4.96291 12.8134 4.96414C12.8146 4.96536 12.8163 4.96604 12.818 4.966C12.9381 5.4685 12.9992 5.98329 13 6.49994L13 6.49994Z" transform="translate(453 396.963)" id="Path" fill="#222F65" stroke="none" />
        <path d="M12 4.12509C11.9997 7.02473 10.2353 9.61248 7.58929 10.5939C4.9433 11.5753 1.98465 10.7393 0.193333 8.50419L0.186667 8.49731C0.0635173 7.96583 0.000872302 7.42136 0 6.87491C0.000271306 3.97527 1.76472 1.38752 4.41071 0.40612C7.0567 -0.575281 10.0154 0.260673 11.8067 2.49581C11.8066 2.49765 11.8073 2.49942 11.8086 2.50072C11.8098 2.50202 11.8116 2.50273 11.8133 2.50269C11.9365 3.03417 11.9991 3.57864 12 4.12509L12 4.12509Z" transform="translate(454 399.963)" id="Path" fill="#000000" fill-opacity="0.1" stroke="none" />
        <path d="M6.5 13C10.0899 13 13 10.0899 13 6.5C13 2.91015 10.0899 0 6.5 0C2.91015 0 0 2.91015 0 6.5C0 10.0899 2.91015 13 6.5 13Z" transform="translate(456 400.963)" id="Oval" fill="#222F65" stroke="none" />
        <path d="M0 0L35 0L35 35L0 35L0 0Z" transform="translate(315 141.963)" id="Rectangle" fill="#F0F0F0" stroke="none" />
        <path d="M0 8C0 12.4183 3.58172 16 8 16C12.4162 15.9951 15.9951 12.4162 16 8C16 3.58172 12.4183 0 8 0C3.58172 0 0 3.58172 0 8ZM1.33333 8C1.33333 4.3181 4.3181 1.33333 8 1.33333C11.6802 1.33754 14.6625 4.31985 14.6667 8C14.6667 11.6819 11.6819 14.6667 8 14.6667C4.3181 14.6667 1.33333 11.6819 1.33333 8Z" transform="translate(443 150.963)" id="Shape" fill="#3F3D56" fill-rule="evenodd" stroke="none" />
        <path d="M0 17L17 17L17 0L0 0L0 17ZM15.6923 15.6923L1.30769 15.6923L1.30769 1.30769L15.6923 1.30769L15.6923 15.6923Z" transform="translate(257 262.963)" id="Shape" fill="#3F3D56" fill-rule="evenodd" stroke="none" />
        <path d="M0 17L17 17L17 0L0 0L0 17ZM15.6923 15.6923L1.30769 15.6923L1.30769 1.30769L15.6923 1.30769L15.6923 15.6923Z" transform="translate(523 393.963)" id="Shape" fill="#3F3D56" fill-rule="evenodd" stroke="none" />
        <path d="M0 23.9042L2.99769 25.53L13.198 31.0658L29.6653 40L39.2619 22.0708C41.0873 18.6684 41.4938 14.6747 40.3917 10.9702C39.2897 7.26573 36.7696 4.15478 33.3873 2.32333C26.0441 -1.66958 16.9808 -0.431301 10.9597 5.38751L10.9547 5.39257C9.51084 6.78896 8.2924 8.40381 7.34337 10.1788L0 23.9042Z" transform="translate(195 269.963)" id="Path" fill="#2F2E41" stroke="none" />
        <path d="M14 2.08036L12.0693 24.9602L4.82745 26L0 0L14 2.08036L14 2.08036Z" transform="translate(226 471.963)" id="Path" fill="#FFB8B8" stroke="none" />
        <path d="M2.35189 2.61827C2.35189 2.61827 11.9274 -2.51354 13.9433 1.59191C13.9433 1.59191 12.4314 13.9083 18.4791 15.4478C24.5268 16.9874 27.0467 27.7642 18.4791 28.7905C9.91153 29.8169 4.3678 26.7378 1.34394 26.7378C-1.67992 26.7378 1.34394 15.961 1.34394 15.961L2.35189 2.61827Z" transform="translate(226 495.963)" id="Path" fill="#2F2E41" stroke="none" />
        <path d="M0 2.08036L1.93137 24.9602L9.17255 26L14 0L0 2.08036L0 2.08036Z" transform="translate(179 471.963)" id="Path" fill="#FFB8B8" stroke="none" />
        <path d="M21.6481 2.61827C21.6481 2.61827 12.0725 -2.51354 10.0567 1.59191C10.0567 1.59191 11.5686 13.9083 5.52089 15.4478C-0.52683 16.9874 -3.04671 27.7642 5.52089 28.7905C14.0885 29.8169 19.6323 26.7378 22.6561 26.7378C25.6799 26.7378 22.6561 15.961 22.6561 15.961L21.6481 2.61827Z" transform="translate(170 495.963)" id="Path" fill="#2F2E41" stroke="none" />
        <path d="M13.5 27C20.9558 27 27 20.9558 27 13.5C27 6.04416 20.9558 0 13.5 0C6.04416 0 0 6.04416 0 13.5C0 20.9558 6.04416 27 13.5 27Z" transform="translate(206 270.963)" id="Oval" fill="#FFB8B8" stroke="none" />
        <path d="M0 25.8L10.4945 42.4941L22.988 41.4823L43.4773 43C43.4773 43 45.4113 39.0845 46.9905 35.2752C47.8551 33.3729 48.52 31.384 48.9744 29.3412C49.4742 25.8 42.4778 22.2588 42.4778 22.2588C42.4778 22.2588 42.203 22.2082 41.7432 22.0969C41.1336 21.9502 40.194 21.7074 39.1646 21.3533C36.8408 20.554 34.0472 19.1982 33.4825 17.2C32.483 13.6588 39.9791 8.6 39.9791 8.6L30.9838 0C30.9838 0 22.993 11.2356 13.2881 13.7954C12.7254 13.9459 12.1548 14.0641 11.5789 14.1495C11.5489 14.1545 11.524 14.1596 11.494 14.1647C0.999474 15.6823 0 25.8 0 25.8Z" transform="translate(179 283.963)" id="Path" fill="#FFB8B8" stroke="none" />
        <path d="M18.2644 0L12.4765 4.53824C12.4765 4.53824 7.74094 26.2209 9.31946 32.2719C10.898 38.3229 8.79329 43.8696 8.79329 44.8781C8.79329 45.8866 4.05772 83.7053 4.05772 83.7053C4.05772 83.7053 -5.41342 103.875 4.58389 101.858C14.5812 99.8412 10.898 79.6713 10.898 79.6713L23 44.3739L23 14.6232L18.2644 0Z" transform="translate(166 305.963)" id="Path" fill="#FFB8B8" stroke="none" />
        <path d="M2.04565 0L6.13693 2.9997L8.18258 44.9955L23.525 80.9919C23.525 80.9919 34.776 98.4901 27.6162 98.99C20.4564 99.49 15.8538 80.9919 15.8538 80.9919L2.04565 46.4953L0 12.9987L2.04565 0Z" transform="translate(222 309.963)" id="Path" fill="#FFB8B8" stroke="none" />
        <path d="M24.7344 0C24.7344 0 34.8212 7.07764 50.9602 4.54991C50.9602 4.54991 55.4993 13.6497 52.9776 18.7052C50.4558 23.7606 56.0036 35.8937 57.0123 37.4104C58.021 38.927 69.6209 70.2708 73.6556 104.142C77.6904 138.014 88.7859 161.269 79.2034 164.302C69.6209 167.336 49.9515 170.874 47.9341 167.841C45.9167 164.808 42.8907 89.4815 42.8907 89.4815L37.3429 118.298C37.3429 118.298 44.9081 167.335 39.3603 168.347C33.8125 169.358 -0.987186 166.324 0.0214954 160.258C1.03018 154.191 11.117 122.342 11.117 122.342C11.117 122.342 10.6127 58.6432 20.6996 46.5102C20.6996 46.5102 24.7343 39.9381 19.1866 31.3438C13.6388 22.7495 14.1431 9.0998 14.1431 9.0998C14.1431 9.0998 18.1779 9.09982 24.7344 0Z" transform="translate(174 311.963)" id="Path" fill="#2F2E41" stroke="none" />
        <path d="M0 0.352475L8.08003 19L10 17.993L1.64166 0L0 0.352475L0 0.352475Z" transform="translate(190 297.963)" id="Path" fill="#2F2E41" stroke="none" />
        <path d="M0 0L6.45209 14L8 13.864L7.4738 11.4811L2.63603 0.74057C2.0128 0.594483 1.05233 0.352651 0 0Z" transform="translate(218 305.963)" id="Path" fill="#2F2E41" stroke="none" />
        <path d="M0.376554 26.0234C1.36595 29.2892 4.16668 31.6285 7.48411 31.9598C10.8015 32.2912 13.9894 30.5502 15.5741 27.5415C9.20826 19.0012 14.6683 13.6365 25.0097 9.57804C26.6028 6.54409 26.2509 2.82306 24.119 0.160015C18.3459 -0.597579 12.5482 1.36065 8.34265 5.48864L8.33762 5.49381L0.990543 19.4763C-0.0665851 21.4843 -0.28801 23.8454 0.376554 26.0234L0.376554 26.0234Z" transform="translate(197 268.963)" id="Path" fill="#2F2E41" stroke="none" />
        <path d="M1.5 6C2.32843 6 3 4.65685 3 3C3 1.34315 2.32843 0 1.5 0C0.671573 0 0 1.34315 0 3C0 4.65685 0.671573 6 1.5 6Z" transform="translate(211 282.963)" id="Oval" fill="#FFB8B8" stroke="none" />
        <path d="M0 10.1212L15.2117 17L18 10.8586C17.5196 8.61401 16.5138 6.51473 15.0649 4.73232L4.59494 0L0 10.1212Z" transform="translate(218 270.963)" id="Path" fill="#2F2E41" stroke="none" />
        <path d="M6.5 13C10.0899 13 13 10.0899 13 6.5C13 2.91015 10.0899 0 6.5 0C2.91015 0 0 2.91015 0 6.5C0 10.0899 2.91015 13 6.5 13Z" transform="translate(248 402.963)" id="Oval" fill="#222F65" stroke="none" />
        <path d="M4.5 9C6.98528 9 9 6.98528 9 4.5C9 2.01472 6.98528 0 4.5 0C2.01472 0 0 2.01472 0 4.5C0 6.98528 2.01472 9 4.5 9Z" transform="translate(34 446.963)" id="Oval" fill="#FF6584" stroke="none" />
        <path d="M0 0L1 0L1 50L0 50L0 0Z" transform="translate(59 474.963)" id="Rectangle" fill="#3F3D56" stroke="none" />
        <path d="M7 14C10.866 14 14 10.866 14 7C14 3.13401 10.866 0 7 0C3.13401 0 0 3.13401 0 7C0 10.866 3.13401 14 7 14Z" transform="translate(53 466.963)" id="Oval" fill="#3F3D56" stroke="none" />
        <path d="M21 19C21 19 20.0233 -2.27267 0 0.19999" transform="translate(38 485.963)" id="Path" fill="#3F3D56" stroke="none" />
    </g>
</svg>